<svg width="72" height="56" viewBox="0 0 72 56" fill="none" xmlns="http://www.w3.org/2000/svg">
<path opacity="0.75" d="M71.8388 44.9603V19.1572C71.8388 19.007 71.8286 18.8469 71.8185 18.6967V18.6867C71.859 17.2855 71.3538 15.9543 70.3838 14.9334L70.2019 14.7432C70.0503 14.5631 69.8887 14.3929 69.7169 14.2328L60.8153 4.88439C59.8251 3.83345 58.4207 3.23291 56.9657 3.23291C56.7838 3.23291 56.5918 3.24292 56.41 3.26294C56.2988 3.25293 56.1877 3.24292 56.0765 3.24292H38.0409C34.2418 3.24292 31.15 6.30566 31.15 10.069V24.2317H10.1843C7.69868 24.2317 5.68799 26.2235 5.68799 28.6857V29.9768C5.68799 32.4391 7.69868 34.4308 10.1843 34.4308H10.356V37.6737H7.7492C5.26362 37.6737 3.25293 39.6655 3.25293 42.1277V43.4189C3.25293 44.7901 3.87938 46.0212 4.86957 46.8319C3.87938 47.6527 3.25293 48.8738 3.25293 50.255V51.5462C3.25293 54.0084 5.26362 56.0001 7.7492 56.0001H35.1714H64.281C68.4539 56.0001 71.8489 52.6471 71.8489 48.5034V44.9603H71.8388Z" fill="#CFD8DC"/>
<path d="M68.5853 41.7274V15.9243C68.5853 15.7741 68.5752 15.614 68.5651 15.4638C68.5651 15.4638 68.5651 15.4538 68.5651 15.4438C68.6055 14.0426 68.1003 12.7214 67.1304 11.7005L66.9485 11.5103C66.7969 11.3301 66.6353 11.16 66.4635 10.9999L57.5619 1.65148C56.5717 0.600539 55.1672 0 53.7123 0C53.5304 0 53.3384 0.0100154 53.1566 0.0300333C53.0454 0.0200243 52.9343 0.0100111 52.8231 0.0100111H34.7875C30.9884 0.0100111 27.8966 3.07275 27.8966 6.83612V20.9988H6.93084C4.44526 20.9988 2.43457 22.9906 2.43457 25.4528V26.7439C2.43457 29.2061 4.44526 31.1979 6.93084 31.1979H7.10261V34.4408H4.49578C2.0102 34.4408 -0.000488281 36.4326 -0.000488281 38.8948V40.186C-0.000488281 41.5572 0.625959 42.7883 1.61615 43.599C0.625959 44.4198 -0.000488281 45.6409 -0.000488281 47.0221V48.3132C-0.000488281 50.7754 2.0102 52.7672 4.49578 52.7672H31.918H61.0276C65.2005 52.7672 68.5954 49.4142 68.5954 45.2705V41.7274H68.5853Z" fill="white"/>
<path d="M13.9124 40.2666H32.6149C32.6149 40.2666 33.6556 40.2666 33.6556 43.3694C33.6556 45.3311 33.3423 46.6323 33.3423 46.6323C33.3423 46.6323 33.3019 47.2829 31.0993 47.2829C28.8966 47.2829 13.4375 47.393 13.4375 47.393C13.4375 47.393 16.9335 43.4895 13.9124 40.2666Z" fill="#1E5796"/>
<path d="M10.0327 47.7137C11.6797 47.0231 12.8315 45.4116 12.8315 43.53C12.8315 41.9686 12.0333 40.5873 10.8107 39.7666" stroke="#1E5796" stroke-width="1.7422" stroke-miterlimit="10"/>
<path d="M12.2861 35.8727C12.2861 36.6935 12.9631 37.364 13.7916 37.364H30.4733C31.3018 37.364 31.9788 36.6935 31.9788 35.8727V30.2076C31.9788 29.3869 31.3018 28.7163 30.4733 28.7163H13.7916C12.9631 28.7163 12.2861 29.3869 12.2861 30.2076V35.8727Z" fill="#D22329"/>
<path d="M12.2861 35.8727C12.2861 36.6935 12.9631 37.364 13.7916 37.364H30.4733C31.3018 37.364 31.9788 36.6935 31.9788 35.8727V30.2076C31.9788 29.3869 31.3018 28.7163 30.4733 28.7163H13.7916C12.9631 28.7163 12.2861 29.3869 12.2861 30.2076V35.8727Z" stroke="#1E5796" stroke-width="1.7422" stroke-miterlimit="10"/>
<path d="M6.97119 26.1143H37.364V32.0696" stroke="#1E5796" stroke-width="1.7422" stroke-miterlimit="10"/>
<path d="M36.394 33.1303C36.394 33.6408 36.8083 34.0511 37.3236 34.0511C37.8389 34.0511 38.2532 33.6408 38.2532 33.1303C38.2532 32.6198 37.8389 32.2095 37.3236 32.2095C36.8184 32.2095 36.394 32.6198 36.394 33.1303Z" stroke="#1E5796" stroke-width="1.7422" stroke-miterlimit="10"/>
<path d="M37.677 36.0928L38.2832 38.8352H36.4746L37.2829 36.0928C37.2728 36.0928 37.6164 36.1528 37.677 36.0928Z" stroke="#1E5796" stroke-width="1.7422" stroke-miterlimit="10"/>
<path d="M4.53613 47.6832H31.9583C32.9586 47.6832 33.7771 46.8725 33.7771 45.8816V41.3475C33.7771 40.3566 32.9586 39.5459 31.9583 39.5459H4.53613" stroke="#1E5796" stroke-width="1.7422" stroke-miterlimit="10"/>
<path d="M39.2334 12.2316C39.2334 14.3635 40.9814 16.0951 43.1335 16.0951C45.2857 16.0951 47.0337 14.3635 47.0337 12.2316C47.0337 10.0997 45.2857 8.36816 43.1335 8.36816C40.9814 8.37817 39.2334 10.0997 39.2334 12.2316Z" fill="#D22329"/>
<path d="M39.2334 12.2316C39.2334 14.3635 40.9814 16.0951 43.1335 16.0951C45.2857 16.0951 47.0337 14.3635 47.0337 12.2316C47.0337 10.0997 45.2857 8.36816 43.1335 8.36816C40.9814 8.37817 39.2334 10.0997 39.2334 12.2316Z" stroke="#1E5796" stroke-width="1.059" stroke-miterlimit="10"/>
<path d="M40.2539 14.6431L37.0913 20.138L40.3044 19.1471L41.3451 22.0197L44.0327 16.0143" stroke="#1E5796" stroke-width="1.059" stroke-miterlimit="10"/>
<path d="M46.1548 14.8535L49.3174 20.3484L46.1043 19.3676L45.0636 22.2401L43.1641 17.9863" stroke="#1E5796" stroke-width="1.059" stroke-miterlimit="10"/>
<path d="M35.4946 47.1624H61.7346C62.6137 47.1624 63.3412 46.4518 63.3412 45.571V15.9244C63.3412 15.0537 62.6238 14.333 61.7346 14.333H56.0663C55.1872 14.333 54.4598 13.6124 54.4598 12.7416V6.84631C54.4598 5.97553 53.7424 5.25488 52.8532 5.25488H34.8277C33.9487 5.25488 33.2212 5.97553 33.2212 6.84631V21.2492" stroke="#1E5796" stroke-width="2.0946" stroke-miterlimit="10" stroke-linecap="round"/>
<path d="M63.3209 15.2941L53.7524 5.24512" stroke="#1E5796" stroke-width="2.0946" stroke-miterlimit="10" stroke-linecap="round"/>
<path d="M42.335 26.1143H56.2684" stroke="#1E5796" stroke-width="1.5301" stroke-miterlimit="10" stroke-linecap="round"/>
<path d="M42.335 29.7969H56.2684" stroke="#1E5796" stroke-width="1.5301" stroke-miterlimit="10" stroke-linecap="round"/>
<path d="M42.335 33.48H56.2684" stroke="#1E5796" stroke-width="1.5301" stroke-miterlimit="10" stroke-linecap="round"/>
</svg>
