<svg width="280" height="64" viewBox="0 0 280 64" fill="none" xmlns="http://www.w3.org/2000/svg">
<path d="M-76.8996 63.4423C-74.8829 62.5406 -73.979 60.1747 -74.8807 58.1579C-75.7825 56.1412 -78.1484 55.2374 -80.1651 56.1391L-76.8996 63.4423ZM-61.1718 48.0713C-63.2208 48.8972 -64.2123 51.2277 -63.3864 53.2766C-62.5606 55.3256 -60.2301 56.3171 -58.1811 55.4913L-61.1718 48.0713ZM-57.2377 55.112C-55.1873 54.2899 -54.1915 51.9612 -55.0136 49.9107C-55.8357 47.8603 -58.1644 46.8645 -60.2149 47.6866L-57.2377 55.112ZM-40.9321 40.3552C-43.0107 41.1036 -44.089 43.3952 -43.3407 45.4737C-42.5924 47.5522 -40.3008 48.6306 -38.2222 47.8823L-40.9321 40.3552ZM-37.2648 47.5385C-35.1849 46.7938 -34.1026 44.5041 -34.8473 42.4243C-35.5919 40.3444 -37.8817 39.2621 -39.9615 40.0068L-37.2648 47.5385ZM-20.429 33.3908C-22.5331 34.0638 -23.6933 36.3152 -23.0202 38.4193C-22.3472 40.5234 -20.0959 41.6836 -17.9918 41.0106L-20.429 33.3908ZM-17.0219 40.7013C-14.9167 40.0318 -13.7528 37.7824 -14.4222 35.6772C-15.0917 33.5719 -17.3411 32.408 -19.4463 33.0774L-17.0219 40.7013ZM0.300056 27.1559C-1.82607 27.7558 -3.06331 29.9657 -2.4634 32.0918C-1.86349 34.2179 0.346397 35.4552 2.47252 34.8553L0.300056 27.1559ZM3.45331 34.5794C5.5804 33.9829 6.82121 31.775 6.22472 29.6479C5.62825 27.5209 3.42036 26.28 1.29327 26.8765L3.45331 34.5794ZM21.2267 21.6274C19.0818 22.1563 17.7718 24.3238 18.3007 26.4687C18.8296 28.6136 20.9972 29.9236 23.1421 29.3947L21.2267 21.6274ZM24.1298 29.1519C26.2755 28.6263 27.5889 26.4608 27.0633 24.3151C26.5377 22.1694 24.3722 20.8561 22.2265 21.3816L24.1298 29.1519ZM42.3186 16.7856C40.1579 17.2455 38.7791 19.3699 39.239 21.5306C39.6988 23.6914 41.8233 25.0702 43.984 24.6103L42.3186 16.7856ZM44.9797 24.3992C47.1411 23.9425 48.5231 21.8201 48.0664 19.6587C47.6098 17.4973 45.4874 16.1153 43.326 16.5719L44.9797 24.3992ZM63.5474 12.612C61.3735 13.0046 59.9294 15.0853 60.3221 17.2593C60.7148 19.4332 62.7955 20.8772 64.9694 20.4846L63.5474 12.612ZM65.972 20.3042C68.1466 19.9147 69.5936 17.8361 69.2041 15.6616C68.8146 13.4871 66.736 12.04 64.5615 12.4296L65.972 20.3042ZM84.8884 9.08967C82.7036 9.4167 81.1976 11.4529 81.5246 13.6377C81.8517 15.8225 83.8879 17.3286 86.0727 17.0015L84.8884 9.08967ZM87.0814 16.8513C89.2667 16.5273 90.7756 14.4932 90.4516 12.308C90.1277 10.1227 88.0936 8.6138 85.9083 8.93774L87.0814 16.8513ZM106.319 6.20412C104.126 6.46683 102.561 8.45796 102.823 10.6514C103.086 12.8449 105.077 14.4101 107.271 14.1473L106.319 6.20412ZM108.285 14.0266C110.479 13.7669 112.047 11.778 111.787 9.58416C111.527 7.39034 109.538 5.8224 107.344 6.08207L108.285 14.0266ZM127.826 3.94288C125.626 4.14228 124.004 6.08747 124.204 8.28759C124.403 10.4877 126.348 12.1096 128.549 11.9102L127.826 3.94288ZM129.561 11.8191C131.762 11.6227 133.386 9.67975 133.19 7.47936C132.993 5.27897 131.05 3.65442 128.85 3.85083L129.561 11.8191ZM149.392 2.29775C147.187 2.43449 145.511 4.33277 145.647 6.53767C145.784 8.74258 147.682 10.4192 149.887 10.2824L149.392 2.29775ZM150.901 10.2202C153.106 10.0864 154.786 8.1904 154.652 5.98532C154.518 3.78023 152.622 2.1011 150.417 2.23488L150.901 10.2202ZM170.994 1.26447C168.786 1.33883 167.056 3.18895 167.131 5.39684C167.205 7.60473 169.055 9.3343 171.263 9.25994L170.994 1.26447ZM172.279 9.22641C174.487 9.15502 176.219 7.30722 176.148 5.09923C176.076 2.89125 174.229 1.15919 172.021 1.23059L172.279 9.22641ZM192.616 0.842525C190.407 0.854293 188.625 2.65467 188.637 4.86378C188.649 7.07288 190.449 8.85418 192.658 8.84241L192.616 0.842525ZM193.675 8.83768C195.884 8.8289 197.668 7.03094 197.659 4.82182C197.65 2.61269 195.852 0.828966 193.643 0.837746L193.675 8.83768ZM214.241 1.03659C212.033 0.984994 210.201 2.73354 210.149 4.94207C210.097 7.15061 211.846 8.98281 214.054 9.03441L214.241 1.03659ZM215.071 9.05885C217.279 9.11349 219.114 7.36747 219.168 5.15901C219.223 2.95055 217.477 1.11594 215.268 1.0613L215.071 9.05885ZM235.854 1.85776C233.648 1.7413 231.765 3.43525 231.649 5.64132C231.532 7.84739 233.226 9.73017 235.432 9.84663L235.854 1.85776ZM236.446 9.90088C238.652 10.0205 240.537 8.32919 240.657 6.12329C240.776 3.91739 239.085 2.03221 236.879 1.91261L236.446 9.90088ZM257.434 3.32511C255.233 3.14136 253.299 4.77705 253.115 6.97854C252.931 9.18002 254.567 11.1136 256.769 11.2974L257.434 3.32511ZM257.778 11.3824C259.979 11.5694 261.915 9.93659 262.102 7.73538C262.289 5.53417 260.657 3.59813 258.455 3.41111L257.778 11.3824ZM278.957 5.46794C276.762 5.21325 274.777 6.7857 274.522 8.9801C274.268 11.1745 275.84 13.1599 278.035 13.4146L278.957 5.46794ZM-77.3638 63.6501C-77.2091 63.5808 -77.0543 63.5115 -76.8996 63.4423L-80.1651 56.1391C-80.3222 56.2093 -80.4792 56.2796 -80.6362 56.35L-77.3638 63.6501ZM-58.1811 55.4913C-57.8668 55.3645 -57.5523 55.2381 -57.2377 55.112L-60.2149 47.6866C-60.534 47.8145 -60.8529 47.9428 -61.1718 48.0713L-58.1811 55.4913ZM-38.2222 47.8823C-37.9032 47.7674 -37.584 47.6528 -37.2648 47.5385L-39.9615 40.0068C-40.2851 40.1226 -40.6087 40.2388 -40.9321 40.3552L-38.2222 47.8823ZM-17.9918 41.0106C-17.6686 40.9072 -17.3453 40.8041 -17.0219 40.7013L-19.4463 33.0774C-19.7739 33.1816 -20.1015 33.2861 -20.429 33.3908L-17.9918 41.0106ZM2.47252 34.8553C2.7994 34.763 3.12634 34.6711 3.45331 34.5794L1.29327 26.8765C0.962158 26.9694 0.631088 27.0625 0.300056 27.1559L2.47252 34.8553ZM23.1421 29.3947C23.4713 29.3135 23.8005 29.2326 24.1298 29.1519L22.2265 21.3816C21.8932 21.4633 21.5599 21.5452 21.2267 21.6274L23.1421 29.3947ZM43.984 24.6103C44.3159 24.5397 44.6478 24.4693 44.9797 24.3992L43.326 16.5719C42.9902 16.6429 42.6544 16.7141 42.3186 16.7856L43.984 24.6103ZM64.9694 20.4846C65.3036 20.4242 65.6378 20.3641 65.972 20.3042L64.5615 12.4296C64.2235 12.4901 63.8855 12.5509 63.5474 12.612L64.9694 20.4846ZM86.0727 17.0015C86.409 16.9512 86.7452 16.9011 87.0814 16.8513L85.9083 8.93774C85.5684 8.98813 85.2284 9.03877 84.8884 9.08967L86.0727 17.0015ZM107.271 14.1473C107.609 14.1069 107.947 14.0666 108.285 14.0266L107.344 6.08207C107.003 6.1225 106.661 6.16319 106.319 6.20412L107.271 14.1473ZM128.549 11.9102C128.886 11.8796 129.224 11.8493 129.561 11.8191L128.85 3.85083C128.509 3.88127 128.168 3.91195 127.826 3.94288L128.549 11.9102ZM149.887 10.2824C150.225 10.2614 150.563 10.2407 150.901 10.2202L150.417 2.23488C150.075 2.2556 149.734 2.27656 149.392 2.29775L149.887 10.2824ZM171.263 9.25994C171.602 9.24853 171.941 9.23735 172.279 9.22641L172.021 1.23059C171.678 1.24165 171.336 1.25294 170.994 1.26447L171.263 9.25994ZM192.658 8.84241C192.997 8.84061 193.336 8.83903 193.675 8.83768L193.643 0.837746C193.301 0.839107 192.958 0.840699 192.616 0.842525L192.658 8.84241ZM214.054 9.03441C214.393 9.04233 214.732 9.05048 215.071 9.05885L215.268 1.0613C214.926 1.05283 214.584 1.0446 214.241 1.03659L214.054 9.03441ZM235.432 9.84663C235.77 9.86449 236.108 9.88257 236.446 9.90088L236.879 1.91261C236.538 1.8941 236.196 1.87581 235.854 1.85776L235.432 9.84663ZM256.769 11.2974C257.105 11.3255 257.442 11.3538 257.778 11.3824L258.455 3.41111C258.115 3.38221 257.775 3.35355 257.434 3.32511L256.769 11.2974ZM278.035 13.4146C278.202 13.434 278.369 13.4534 278.536 13.473L279.464 5.52704C279.295 5.50728 279.126 5.48758 278.957 5.46794L278.035 13.4146Z" fill="#2576B9"/>
</svg>
