<svg width="1357" height="565" viewBox="0 0 1357 565" fill="none" xmlns="http://www.w3.org/2000/svg">
<g clip-path="url(#clip0_2527_917)">
<path d="M1329.16 248.31C1331.69 253.141 1333.74 258.311 1335.27 263.683L1336.75 268.863L1331.51 267.693C1325.96 266.447 1320.6 264.65 1315.56 262.321L1313.95 265.829C1319.24 268.264 1324.86 270.158 1330.67 271.452L1342.23 274.042L1338.98 262.62C1337.38 256.987 1335.23 251.566 1332.58 246.503L1329.16 248.31Z" fill="#2376BC"/>
<path d="M1275.81 230.182C1276.95 227.428 1278.43 224.781 1280.23 222.307L1277.12 220.036C1275.41 222.394 1273.96 224.897 1272.79 227.496L1264.84 219.959L1241.86 218.065L1265.52 240.483L1282.56 241.874L1292.75 251.528C1296.44 255.016 1300.51 258.176 1304.83 260.891L1306.88 257.615C1302.77 255.026 1298.91 252.03 1295.4 248.706L1275.81 230.182ZM1267.19 236.734L1252.49 222.819L1263.18 223.699L1277.87 237.613L1267.19 236.734Z" fill="#2376BC"/>
<path d="M1330.88 243.652L1330.07 241.903L1329.26 240.145C1328.64 240.435 1313.85 247.44 1307.72 263.046L1311.3 264.457C1316.85 250.329 1330.75 243.72 1330.88 243.652Z" fill="#2376BC"/>
<path d="M1312.24 245.662C1313.88 243.913 1314.76 241.614 1314.68 239.207C1314.62 236.801 1313.61 234.56 1311.87 232.907C1310.14 231.265 1307.91 230.453 1305.7 230.453C1303.31 230.453 1300.92 231.4 1299.16 233.274C1297.51 235.023 1296.64 237.323 1296.71 239.729C1296.78 242.135 1297.78 244.377 1299.52 246.029C1301.27 247.682 1303.54 248.561 1305.96 248.484C1308.36 248.416 1310.59 247.421 1312.24 245.662ZM1302.16 243.218C1300.1 241.266 1300.01 238 1301.95 235.932C1303.9 233.864 1307.15 233.767 1309.21 235.719C1310.21 236.666 1310.78 237.942 1310.82 239.323C1310.86 240.696 1310.37 242.01 1309.42 243.015C1308.48 244.02 1307.21 244.59 1305.83 244.628C1304.48 244.657 1303.16 244.165 1302.16 243.218Z" fill="#2376BC"/>
<path d="M1292.72 229.843L1295.37 227.032L1270.02 203.035L1267.38 205.846L1292.72 229.843Z" fill="#2376BC"/>
<path d="M1235.08 205.474L1235.69 199.522L1244.61 204.663L1246.53 201.31L1232.47 193.203L1231.84 199.309L1218.84 192.227L1217 195.628L1235.08 205.474Z" fill="#2376BC"/>
<path d="M1256.51 167.635L1265.4 181.25L1268.62 179.133L1262.99 170.495L1268.87 169.538L1258.04 152L1254.76 154.039L1262.56 166.649L1256.51 167.635Z" fill="#2376BC"/>
<path d="M1261.37 212.847L1261.44 212.915C1265.1 216.384 1270.09 218.249 1275.12 218.017L1274.95 214.152C1270.96 214.345 1266.99 212.857 1264.07 210.093L1264.01 210.026C1262.71 208.789 1261.6 207.368 1260.72 205.793L1250.31 187.028L1269.68 196.459C1271.29 197.242 1272.76 198.266 1274.06 199.493C1276.97 202.247 1278.67 206.131 1278.72 210.151L1282.57 210.103C1282.51 205.049 1280.37 200.16 1276.71 196.691C1275.13 195.193 1273.33 193.947 1271.36 192.99L1241 178.206L1257.36 207.678C1258.42 209.591 1259.77 211.33 1261.37 212.847Z" fill="#2376BC"/>
<path d="M1291.87 207.204C1289.34 208.528 1286.95 210.132 1284.7 211.978L1287.15 214.963C1289.51 213.021 1292.05 211.388 1294.73 210.084L1314.31 228.627C1317.81 231.951 1321.02 235.642 1323.83 239.613L1326.97 237.371C1324.02 233.197 1320.64 229.313 1316.96 225.815L1306.76 216.162L1304.38 199.174L1280.71 176.766L1283.91 199.677L1291.87 207.204ZM1300.75 201.049L1302.24 211.707L1287.54 197.783L1286.05 187.125L1300.75 201.049Z" fill="#2376BC"/>
<path d="M1283.17 268.062L1285.83 265.265L1265.12 245.453L1262.46 248.25L1283.17 268.062Z" fill="#2376BC"/>
<path d="M1265.37 259.874L1268 257.049L1253.55 243.52L1250.92 246.346L1265.37 259.874Z" fill="#2376BC"/>
<path d="M1331.69 233.637L1334.59 231.092L1321.1 215.631L1318.2 218.177L1331.69 233.637Z" fill="#2376BC"/>
<path d="M1331.69 222.042L1334.59 219.497L1321.1 204.036L1318.2 206.581L1331.69 222.042Z" fill="#2376BC"/>
</g>
<path d="M-79.4902 560.82C40.3998 236.07 352.72 4.51025 719.13 4.51025C907.74 4.51025 1082.02 65.8703 1223.1 169.71" stroke="#2576B9" stroke-width="8" stroke-miterlimit="10" stroke-linecap="round" stroke-linejoin="round" stroke-dasharray="1 20"/>
<defs>
<clipPath id="clip0_2527_917">
<rect width="140" height="137" fill="white" transform="translate(1357 289) rotate(-180)"/>
</clipPath>
</defs>
</svg>
