<svg width="92" height="92" viewBox="0 0 92 92" fill="none" xmlns="http://www.w3.org/2000/svg">
<path d="M78.5321 49.7806C81.006 51.3872 83.3409 53.2808 85.4828 55.4078L87.5465 57.459L84.756 58.296C81.7991 59.1783 78.7836 59.7523 75.7833 59.9891L75.946 62.0689C79.0931 61.8159 82.2572 61.2184 85.35 60.2901L91.5083 58.4487L86.9593 53.9243C84.7166 51.6921 82.2653 49.7081 79.6756 48.0229L78.5321 49.7806Z" fill="#2376BC"/>
<path d="M48.4786 55.3693C48.2909 53.7699 48.2956 52.1287 48.4967 50.4854L46.4242 50.2391C46.2336 51.8048 46.209 53.3675 46.3376 54.9042L40.5815 53.4588L29.1949 58.6546L46.3165 62.9532L54.7552 59.095L62.1325 60.9434C64.7997 61.6105 67.5584 62.0233 70.323 62.1576L70.4313 60.0697C67.8001 59.9385 65.1807 59.5497 62.6434 58.9115L48.4786 55.3693ZM46.1174 60.7443L35.4858 58.0786L40.7825 55.6606L51.4141 58.3263L46.1174 60.7443Z" fill="#2376BC"/>
<path d="M78.121 47.1281L77.2766 46.5179L76.4296 45.9032C76.2095 46.2057 71.0478 53.428 72.2601 62.4079L74.3295 62.1237C73.2331 53.9939 78.0749 47.1957 78.121 47.1281Z" fill="#2376BC"/>
<path d="M69.8168 53.016C70.1359 51.7551 69.9448 50.4387 69.274 49.3248C68.6077 48.2084 67.5421 47.417 66.2806 47.0999C65.0262 46.7848 63.7581 46.9916 62.7086 47.5785C61.577 48.2114 60.6951 49.2907 60.3543 50.6414C60.0351 51.9023 60.2308 53.2161 60.8971 54.3326C61.5634 55.449 62.629 56.2404 63.8905 56.5575C65.152 56.8746 66.4607 56.6869 67.5857 56.01C68.704 55.3427 69.5002 54.2814 69.8168 53.016ZM64.3994 54.5327C62.9083 54.1586 62.0016 52.6444 62.3781 51.1541C62.7547 49.6638 64.2715 48.7557 65.7626 49.1298C66.4868 49.3108 67.0923 49.7616 67.4748 50.4028C67.8548 51.0395 67.9686 51.7891 67.7864 52.513C67.6042 53.2368 67.1522 53.8424 66.5098 54.2255C65.8787 54.5965 65.1236 54.7137 64.3994 54.5327Z" fill="#2376BC"/>
<path d="M56.4 50.7295L56.9116 48.7036L38.5781 44.1057L38.0665 46.1315L56.4 50.7295Z" fill="#2376BC"/>
<path d="M22.663 54.5156L21.3857 51.5462L26.9664 51.6066L26.9904 49.5181L18.191 49.4218L19.5045 52.4667L11.4771 52.5726L11.5024 54.6635L22.663 54.5156Z" fill="#2376BC"/>
<path d="M22.8438 30.9964L30.6449 35.0595L31.611 33.2096L26.6642 30.6299L29.1999 28.6198L19.4427 23.2226L18.4288 25.0514L25.4494 28.9292L22.8438 30.9964Z" fill="#2376BC"/>
<path d="M37.0638 51.0247L37.1136 51.0387C39.7667 51.7019 42.622 51.2592 44.9427 49.8178L43.8415 48.0416C42.0034 49.1892 39.7311 49.539 37.6199 49.0094L37.5702 48.9953C36.6281 48.7568 35.7288 48.3806 34.8983 47.8703L25.0184 41.7823L36.6809 41.0966C37.6493 41.0394 38.6175 41.1318 39.557 41.3659C41.6611 41.8935 43.4929 43.2731 44.5755 45.1554L46.3879 44.1118C45.0236 41.7473 42.7215 40.0087 40.073 39.3431C38.9298 39.0555 37.7479 38.945 36.5648 39.0146L18.28 40.0909L33.8027 49.6492C34.809 50.2704 35.9064 50.7331 37.0638 51.0247Z" fill="#2376BC"/>
<path d="M50.027 40.2827C49.1805 41.5754 48.4673 42.967 47.8907 44.4317L49.8369 45.1911C50.4427 43.6503 51.2168 42.2067 52.1414 40.8824L66.3067 44.4362C68.844 45.0744 71.3366 45.9648 73.7161 47.0919L74.6126 45.2032C72.1112 44.0187 69.49 43.0805 66.8202 42.4089L59.443 40.5604L53.8372 33.1824L36.7136 28.8909L44.2734 38.8419L50.027 40.2827ZM52.6112 35.0282L56.1285 39.6572L45.4943 36.987L41.9771 32.358L52.6112 35.0282Z" fill="#2376BC"/>
<path d="M61.9506 71.2782L62.4727 69.2551L47.4385 65.4021L46.9164 67.4252L61.9506 71.2782Z" fill="#2376BC"/>
<path d="M51.3601 72.1338L51.8604 70.1052L41.4481 67.5557L40.9478 69.5843L51.3601 72.1338Z" fill="#2376BC"/>
<path d="M75.8619 42.1934L76.5645 40.2253L66.1002 36.5091L65.3976 38.4772L75.8619 42.1934Z" fill="#2376BC"/>
<path d="M72.8047 36.7269L73.5073 34.7588L63.0431 31.0426L62.3405 33.0107L72.8047 36.7269Z" fill="#2376BC"/>
</svg>
