<svg width="140" height="137" viewBox="0 0 140 137" fill="none" xmlns="http://www.w3.org/2000/svg">
<g clip-path="url(#clip0_2527_918)">
<path d="M112.158 96.3098C114.691 101.141 116.742 106.311 118.273 111.683L119.747 116.863L114.508 115.693C108.96 114.447 103.596 112.65 98.5594 110.321L96.9511 113.829C102.238 116.264 107.863 118.158 113.67 119.452L125.227 122.042L121.981 110.62C120.382 104.987 118.225 99.5662 115.577 94.5028L112.158 96.3098Z" fill="#2376BC"/>
<path d="M58.814 78.1823C59.9504 75.4284 61.4335 72.7808 63.2345 70.3071L60.1238 68.0363C58.4095 70.3941 56.9649 72.8967 55.79 75.496L47.8351 67.959L24.8565 66.0651L48.5189 88.4829L65.5554 89.8744L75.7542 99.5276C79.4428 103.016 83.5069 106.176 87.831 108.891L89.8823 105.615C85.7701 103.026 81.9082 100.03 78.4027 96.706L58.814 78.1823ZM50.185 84.7337L35.4887 70.8192L46.1787 71.6985L60.875 85.613L50.185 84.7337Z" fill="#2376BC"/>
<path d="M113.882 91.6524L113.073 89.9034L112.264 88.1448C111.638 88.4347 96.8453 95.4403 90.7203 111.046L94.3028 112.457C99.8501 98.3294 113.747 91.7201 113.882 91.6524Z" fill="#2376BC"/>
<path d="M95.2366 93.6623C96.8835 91.9133 97.7599 89.6135 97.6828 87.2075C97.6154 84.8014 96.6138 82.5596 94.8707 80.9073C93.1372 79.2646 90.9125 78.4529 88.6975 78.4529C86.3091 78.4529 83.9207 79.3999 82.1583 81.2745C80.5115 83.0235 79.6447 85.3232 79.7121 87.7293C79.7795 90.1353 80.7811 92.3771 82.5243 94.0295C84.2674 95.6818 86.5402 96.5611 88.9575 96.4838C91.3555 96.4162 93.5898 95.4209 95.2366 93.6623ZM85.163 91.2176C83.1021 89.2657 83.0058 85.9996 84.9512 83.9318C86.8965 81.8639 90.1517 81.7673 92.2126 83.7192C93.2142 84.6662 93.7824 85.9416 93.8209 87.3234C93.8595 88.6956 93.3683 90.0097 92.4245 91.0146C91.4807 92.0196 90.2095 92.5897 88.8323 92.6283C87.484 92.6573 86.1646 92.1645 85.163 91.2176Z" fill="#2376BC"/>
<path d="M75.7211 77.8429L78.3652 75.0317L53.0236 51.035L50.3794 53.8462L75.7211 77.8429Z" fill="#2376BC"/>
<path d="M18.0766 53.4744L18.6929 47.522L27.6109 52.6627L29.5273 49.3097L15.4667 41.2025L14.8407 47.3095L1.83939 40.2266L-3.72886e-05 43.6279L18.0766 53.4744Z" fill="#2376BC"/>
<path d="M39.5141 15.6345L48.4031 29.2495L51.6197 27.1334L45.9858 18.4948L51.8701 17.5381L41.0357 4.48265e-05L37.7613 2.03891L45.5621 14.6489L39.5141 15.6345Z" fill="#2376BC"/>
<path d="M44.3681 60.8472L44.4355 60.9148C48.1048 64.3838 53.0935 66.2487 58.1206 66.0168L57.9473 62.1517C53.9602 62.3449 49.9924 60.8568 47.0743 58.0933L47.0069 58.0256C45.7068 56.7888 44.5993 55.3683 43.7229 53.7933L33.3122 35.028L52.6793 44.459C54.2876 45.2417 55.7611 46.2659 57.0613 47.4931C59.9697 50.247 61.6743 54.1315 61.7225 58.1512L65.5747 58.1029C65.5073 53.0493 63.3693 48.1599 59.7097 44.6909C58.1303 43.1931 56.3293 41.9466 54.3647 40.99L23.9994 26.2058L40.3618 55.6775C41.4212 57.5908 42.7694 59.3301 44.3681 60.8472Z" fill="#2376BC"/>
<path d="M74.8682 55.2041C72.3449 56.5279 69.9469 58.1319 67.703 59.9775L70.1492 62.9633C72.5087 61.0211 75.0511 59.3881 77.7284 58.0836L97.3074 76.6266C100.813 79.9506 104.02 83.6418 106.832 87.6133L109.972 85.3715C107.015 81.1971 103.644 77.3127 99.9559 73.8147L89.7571 64.1615L87.3783 47.1742L63.7063 24.7661L66.9133 47.6767L74.8682 55.2041ZM83.7476 49.0488L85.2403 59.707L70.544 45.7828L69.0513 35.1246L83.7476 49.0488Z" fill="#2376BC"/>
<path d="M66.1692 116.062L68.8276 113.265L48.1208 93.4533L45.4623 96.2505L66.1692 116.062Z" fill="#2376BC"/>
<path d="M48.3726 107.874L51.001 105.049L36.553 91.5198L33.9246 94.3456L48.3726 107.874Z" fill="#2376BC"/>
<path d="M114.687 81.6375L117.586 79.0923L104.103 63.6314L101.204 66.1766L114.687 81.6375Z" fill="#2376BC"/>
<path d="M114.687 70.0418L117.586 67.4966L104.103 52.0357L101.204 54.5809L114.687 70.0418Z" fill="#2376BC"/>
</g>
<defs>
<clipPath id="clip0_2527_918">
<rect width="140" height="137" fill="white" transform="translate(140 137) rotate(-180)"/>
</clipPath>
</defs>
</svg>
