<svg width="951" height="201" viewBox="0 0 951 201" fill="none" xmlns="http://www.w3.org/2000/svg">
<path opacity="0.6" d="M673.65 56.1802C673.65 56.1802 673.65 68.7502 661.08 68.7602C661.08 68.7602 673.65 68.7602 673.66 81.3302C673.66 81.3302 673.66 68.7602 686.23 68.7502C686.23 68.7502 673.66 68.7502 673.65 56.1802Z" stroke="#BCDAF2" stroke-width="2.8563" stroke-miterlimit="10" stroke-linecap="round" stroke-linejoin="round"/>
<path opacity="0.6" d="M226.54 90.73C226.54 90.73 226.54 106 211.27 106.01C211.27 106.01 226.54 106.01 226.55 121.28C226.55 121.28 226.55 106.01 241.82 106C241.82 106 226.54 106 226.54 90.73Z" stroke="#BCDAF2" stroke-width="3.47" stroke-miterlimit="10" stroke-linecap="round" stroke-linejoin="round"/>
<path opacity="0.6" d="M927.28 6L926.8 25.17L944.88 31.54L926.51 37.01L926.03 56.18L915.15 40.39L896.78 45.86L908.43 30.64L897.55 14.85L915.63 21.23L927.28 6Z" stroke="#BCDAF2" stroke-width="3.5139" stroke-miterlimit="10"/>
<g clip-path="url(#clip0_2451_906)">
<g opacity="0.6">
<path opacity="0.6" d="M92.5999 127.83C92.5999 127.83 77.0199 114 90.8499 98.4199C90.8499 98.4199 77.0199 114 61.4399 100.17C61.4399 100.17 77.0199 114 63.1899 129.58C63.1899 129.58 77.0199 114 92.5999 127.83Z" stroke="#2576B9" stroke-width="4.2655" stroke-miterlimit="10"/>
<path opacity="0.6" d="M57.3101 136.21L18.6201 179.81" stroke="#2576B9" stroke-width="4.2655" stroke-miterlimit="10"/>
<path opacity="0.6" d="M12.7401 186.43L1.6001 198.99" stroke="#2576B9" stroke-width="4.2655" stroke-miterlimit="10"/>
<path opacity="0.6" d="M45.46 193.34L72.8 138.11" stroke="#2576B9" stroke-width="4.2655" stroke-miterlimit="10"/>
<path opacity="0.6" d="M2.56006 155.27L54.1501 121.56" stroke="#2576B9" stroke-width="4.2655" stroke-miterlimit="10"/>
</g>
</g>
<defs>
<clipPath id="clip0_2451_906">
<rect width="94.02" height="103.41" fill="white" transform="translate(0 97)"/>
</clipPath>
</defs>
</svg>
