<svg width="1349" height="321" viewBox="0 0 1349 321" fill="none" xmlns="http://www.w3.org/2000/svg">
<g clip-path="url(#clip0_2382_98)">
<path d="M1378 320.997C1335.69 219.407 1246.27 130.896 1131.08 76.6171C1015.9 22.3383 875.927 2.73011 744.591 22.4878C662.97 34.7691 586.018 61.3852 508.385 85.0306C430.753 108.676 350.132 129.74 267.082 130.049C184.053 130.348 97.2747 107.051 45 55.3343" stroke="#BCDAF2" stroke-width="7.9968" stroke-miterlimit="10" stroke-linecap="round" stroke-linejoin="round" stroke-dasharray="1 20"/>
</g>
<g clip-path="url(#clip1_2382_98)">
<path opacity="0.75" d="M1191.8 22.2917C1185.06 18.6664 1177.46 16.75 1169.82 16.75C1152.79 16.75 1137.18 25.9665 1129.09 40.7939C1127.99 42.8091 1126.17 46.1579 1121.33 77.4328L1121.25 77.581C1120.07 79.7443 1119.79 82.1546 1120.28 84.3871C1119.84 87.3111 1119.41 90.2253 1119.01 93.0406C1118.32 97.881 1119.6 102.712 1122.38 106.544C1121.98 107.483 1121.68 108.451 1121.46 109.439C1121.29 109.478 1121.13 109.518 1120.96 109.567C1116.99 110.743 1113.71 113.38 1111.73 117.006L1108.83 122.33C1106.85 125.945 1106.41 130.114 1107.59 134.065C1108.78 138.017 1111.43 141.267 1115.07 143.233L1131.68 152.163C1133.95 153.378 1136.5 154.03 1139.06 154.03C1140.56 154.03 1142.05 153.812 1143.5 153.388C1147.47 152.212 1150.75 149.575 1152.72 145.959L1155.62 140.625C1157.74 136.733 1157.99 132.327 1156.68 128.425C1157.39 127.714 1158.05 126.933 1158.63 126.084C1158.92 126.094 1159.21 126.104 1159.49 126.104C1164.05 126.104 1168.45 124.464 1171.86 121.5C1174.02 119.623 1176.24 117.687 1178.47 115.721C1180.68 114.882 1182.53 113.281 1183.67 111.197L1183.75 111.049C1207.49 89.9487 1209.32 86.5999 1210.43 84.5847C1222.58 62.2991 1214.22 34.3631 1191.8 22.2917Z" fill="#CFD8DC"/>
<path d="M1188.65 17.5304C1181.92 13.905 1174.32 11.9886 1166.68 11.9886C1149.65 11.9886 1134.04 21.2051 1125.95 36.0325C1124.84 38.0477 1123.02 41.3965 1118.19 72.6714L1118.11 72.8196C1116.93 74.9829 1116.65 77.3933 1117.13 79.6258C1116.7 82.5498 1116.27 85.4639 1115.87 88.2792C1115.17 93.1196 1116.46 97.9501 1119.23 101.783C1118.84 102.721 1118.54 103.689 1118.32 104.677C1118.15 104.717 1117.99 104.756 1117.82 104.806C1113.85 105.981 1110.57 108.619 1108.59 112.244L1105.68 117.569C1103.7 121.184 1103.27 125.353 1104.45 129.304C1105.63 133.255 1108.29 136.505 1111.93 138.471L1128.53 147.401C1130.8 148.616 1133.36 149.268 1135.92 149.268C1137.42 149.268 1138.91 149.051 1140.35 148.626C1144.32 147.451 1147.61 144.813 1149.58 141.198L1152.48 135.863C1154.6 131.971 1154.85 127.565 1153.53 123.664C1154.25 122.952 1154.91 122.172 1155.48 121.322C1155.77 121.332 1156.06 121.342 1156.35 121.342C1160.91 121.342 1165.3 119.702 1168.72 116.739C1170.87 114.862 1173.09 112.926 1175.32 110.96C1177.54 110.12 1179.39 108.52 1180.52 106.436L1180.6 106.287C1204.35 85.1873 1206.18 81.8385 1207.29 79.8233C1219.43 57.5279 1211.08 29.5918 1188.65 17.5304Z" fill="white"/>
<path d="M1195.42 74.0247C1204.38 57.597 1198.23 37.0698 1181.7 28.1693C1165.16 19.2689 1144.47 25.3738 1135.51 41.7916C1133.27 45.901 1128.5 77.9958 1126.77 89.9783C1126.39 92.6751 1127.73 95.3324 1130.15 96.6264L1152.08 108.431C1154.5 109.725 1157.46 109.399 1159.53 107.601C1168.71 99.6196 1193.17 78.1341 1195.42 74.0247Z" fill="#BCDAF2" stroke="#2576B9" stroke-width="4.5" stroke-miterlimit="10"/>
<path d="M1128.98 76.761L1169.38 98.4928" stroke="#2576B9" stroke-width="4.5" stroke-miterlimit="10"/>
<path d="M1141.75 83.6265C1141.75 83.6265 1144.4 61.0051 1164.69 23.8328L1141.75 83.6265Z" fill="#BCDAF2"/>
<path d="M1141.75 83.6265C1141.75 83.6265 1144.4 61.0051 1164.69 23.8328" stroke="#2576B9" stroke-width="4.5" stroke-miterlimit="10"/>
<path d="M1156.72 91.6873C1156.72 91.6873 1174.35 77.1265 1194.64 39.9444L1156.72 91.6873Z" fill="#BCDAF2"/>
<path d="M1156.72 91.6873C1156.72 91.6873 1174.35 77.1265 1194.64 39.9444" stroke="#2576B9" stroke-width="4.5" stroke-miterlimit="10"/>
<path d="M1129.48 106.1L1133.63 98.4935L1148.6 106.554L1144.45 114.16C1143.39 116.116 1140.92 116.847 1138.94 115.79L1131.11 111.572C1129.14 110.515 1128.41 108.065 1129.48 106.1Z" fill="#BCDAF2" stroke="#2576B9" stroke-width="4.5" stroke-miterlimit="10"/>
<path d="M1133.18 136.732L1116.58 127.802C1114.96 126.933 1114.36 124.918 1115.23 123.308L1118.14 117.983C1119.01 116.373 1121.04 115.781 1122.67 116.65L1139.27 125.58C1140.89 126.449 1141.49 128.464 1140.61 130.074L1137.71 135.398C1136.83 137.009 1134.8 137.601 1133.18 136.732Z" fill="#BCDAF2" stroke="#2576B9" stroke-width="4.5" stroke-miterlimit="10"/>
<path d="M1076.71 7L1083.32 17.3328L1095.26 14.2902L1087.4 23.7241L1094 34.0569L1082.54 29.5523L1074.69 38.9862L1075.46 26.7666L1064 22.2621L1075.94 19.2195L1076.71 7Z" fill="#2576B9"/>
</g>
<path d="M253.76 90.0612C253.76 90.0612 244.007 99.6955 235.18 89.0509C235.18 89.0509 244.007 99.6955 234.254 109.33C234.254 109.33 244.007 99.6955 252.834 110.34C252.834 110.355 244.007 99.7102 253.76 90.0612Z" stroke="#BCDAF2" stroke-width="3.3468" stroke-miterlimit="10" stroke-linecap="round" stroke-linejoin="round"/>
<g clip-path="url(#clip2_2382_98)">
<path d="M133.839 77.7707L119.024 73.3754C117.786 73.0079 116.496 72.9744 115.28 73.2483C115.314 73.1181 115.364 72.9922 115.39 72.8635C116.051 69.7391 114.668 66.534 111.941 64.8757L101.938 58.7807C102.262 58.4273 102.556 58.0418 102.81 57.6111L103.941 55.7172C104.966 54.0075 105.273 51.958 104.783 50.0242C104.3 48.0888 103.069 46.4203 101.359 45.3917L88.1411 37.4347C85.3742 35.7695 81.9739 36.1 79.5918 37.9983L73.2949 34.115C71.597 33.0685 69.5667 32.731 67.6165 33.1994C67.3536 33.263 67.1012 33.3397 66.852 33.4311C66.3773 32.9706 65.8445 32.5609 65.236 32.2288C65.2286 32.2304 64.5903 31.7585 64.2254 31.2363C64.024 30.9407 63.8604 30.714 64.4599 29.6022C66.4371 25.9519 65.0857 21.3865 61.4438 19.3997C57.8376 17.4362 53.3378 18.731 51.3255 22.2887C50.2514 24.0551 49.4694 23.6292 48.6427 23.1743C44.9935 21.1891 40.4354 22.5348 38.4567 26.1777C36.5011 29.7849 37.8016 34.2919 41.3585 36.3121C43.0281 37.3338 42.7361 38.088 42.3266 38.8672C39.2151 38.4288 36.0547 38.1931 32.8764 38.1612L24.3111 38.0745C21.6559 38.0468 19.199 39.4149 17.8252 41.6834C16.7223 43.4944 16.4696 45.6552 17.0429 47.656C16.3691 47.953 15.7394 48.3483 15.1742 48.8299C12.1676 48.4154 9.09004 49.8616 7.55863 52.6865C6.67139 54.3209 6.45562 56.151 6.81701 57.843C7.07784 59.0641 7.63984 60.2213 8.4763 61.1894C8.35531 62.061 8.39487 62.9293 8.57557 63.7753C9.01866 65.8499 10.3327 67.7239 12.3407 68.8198C13.982 69.7091 15.8029 69.9295 17.4924 69.5704C18.7118 69.3113 19.8667 68.7505 20.8324 67.9146C23.1984 68.2422 25.5916 67.4029 27.2627 65.6634C28.1316 66.8553 29.0325 68.0173 29.9712 69.1405C30.1375 69.3436 30.3168 69.5362 30.5004 69.7125C30.6891 70.1646 30.9292 70.6057 31.2192 71.0286L30.6229 71.8321C28.2593 75.0031 28.775 79.4308 31.7115 81.9982C30.2435 85.1557 31.1377 89.0185 34.035 91.1865L46.8328 100.771C48.4326 101.969 50.4313 102.482 52.4046 102.194C52.5677 102.167 52.7309 102.14 52.8925 102.105C54.6702 101.728 56.2508 100.715 57.3436 99.2521L57.9399 98.4486C58.5353 100.014 59.6313 101.334 61.0617 102.207L81.6384 114.775C83.3154 115.795 85.2774 116.101 87.1138 115.711C88.0834 115.505 89.0164 115.091 89.8571 114.497C90.1362 115.876 90.7915 117.183 91.7911 118.231L102.499 129.391C103.881 130.827 105.772 131.663 107.768 131.7C108.348 131.716 108.926 131.654 109.484 131.536C110.843 131.247 112.107 130.586 113.12 129.609L114.705 128.08C117.693 125.207 117.789 120.442 114.907 117.448L112.497 114.938C112.658 114.542 112.776 114.125 112.869 113.697C113.29 111.677 112.84 109.604 111.699 107.932L113.418 108.359C114.546 108.642 115.691 108.645 116.778 108.414C118.754 107.994 120.531 106.785 121.627 104.976C123.332 102.175 123.019 98.589 120.863 96.1172L120.641 95.8647C122.102 95.731 123.519 95.1759 124.691 94.227C125.032 93.9546 125.343 93.65 125.62 93.3296L128.957 94.3199C130.17 94.6774 131.439 94.7229 132.651 94.4653C133.349 94.317 134.032 94.0641 134.673 93.7203C136.421 92.7719 137.719 91.1578 138.286 89.2454L138.909 87.1289C140.092 83.1399 137.816 78.9556 133.839 77.7707ZM56.8336 64.7227L56.8556 64.7181C57.0686 64.6728 57.3315 64.7169 57.5171 64.8312C57.7117 64.9514 57.8722 65.1634 57.9209 65.3914C57.9754 65.6105 57.9318 65.8736 57.8121 66.0682C57.6924 66.2629 57.4793 66.4158 57.2605 66.47L56.8336 64.7227ZM56.2763 65.1334C56.3828 64.9493 56.5885 64.7979 56.7911 64.7395L57.1944 66.4841C56.9945 66.5189 56.7464 66.4716 56.5785 66.3689C56.1463 66.107 56.0138 65.5584 56.2763 65.1334Z" fill="#CFD8DC"/>
<path d="M132.896 73.3568L118.081 68.9615C116.843 68.5941 115.553 68.5605 114.337 68.8344C114.371 68.7042 114.421 68.5783 114.447 68.4497C115.108 65.3252 113.725 62.1201 110.998 60.4619L100.995 54.3668C101.319 54.0134 101.613 53.628 101.867 53.1972L102.998 51.3033C104.023 49.5936 104.33 47.5442 103.84 45.6103C103.358 43.6749 102.126 42.0064 100.416 40.9778L87.1982 33.0208C84.4314 31.3556 81.031 31.6862 78.649 33.5845L72.352 29.7011C70.6541 28.6547 68.6239 28.3172 66.6736 28.7855C66.4107 28.8491 66.1584 28.9258 65.9091 29.0172C65.4345 28.5567 64.9016 28.147 64.2931 27.815C64.2858 27.8165 63.6475 27.3446 63.2825 26.8224C63.0811 26.5268 62.9175 26.3001 63.5171 25.1883C65.4942 21.538 64.1428 16.9726 60.5009 14.9859C56.8947 13.0223 52.3949 14.3171 50.3826 17.8749C49.3086 19.6412 48.5265 19.2153 47.6998 18.7604C44.0506 16.7752 39.4925 18.1209 37.5138 21.7638C35.5582 25.371 36.8587 29.878 40.4156 31.8982C42.0852 32.9199 41.7932 33.6741 41.3837 34.4533C38.2722 34.0149 35.1118 33.7792 31.9335 33.7473L23.3682 33.6607C20.713 33.6329 18.2561 35.001 16.8823 37.2695C15.7794 39.0805 15.5268 41.2414 16.1 43.2421C15.4263 43.5391 14.7965 43.9344 14.2313 44.416C11.2247 44.0015 8.14717 45.4478 6.61576 48.2727C5.72852 49.9071 5.51275 51.7371 5.87414 53.4291C6.13497 54.6503 6.69697 55.8074 7.53343 56.7755C7.41244 57.6472 7.452 58.5155 7.6327 59.3615C8.07579 61.436 9.38987 63.31 11.3978 64.4059C13.0391 65.2952 14.8601 65.5157 16.5495 65.1566C17.7689 64.8974 18.9239 64.3366 19.8895 63.5007C22.2555 63.8284 24.6487 62.989 26.3198 61.2495C27.1887 62.4414 28.0897 63.6034 29.0284 64.7266C29.1946 64.9297 29.374 65.1223 29.5575 65.2986C29.7462 65.7507 29.9864 66.1918 30.2763 66.6147L29.68 67.4182C27.3164 70.5892 27.8321 75.0169 30.7687 77.5843C29.3006 80.7418 30.1948 84.6046 33.0921 86.7727L45.89 96.3571C47.4897 97.5552 49.4884 98.0686 51.4617 97.7799C51.6249 97.7529 51.7881 97.7259 51.9497 97.6915C53.7273 97.3137 55.3079 96.301 56.4007 94.8382L56.997 94.0347C57.5924 95.6 58.6885 96.9205 60.1189 97.7931L80.6956 110.361C82.3725 111.382 84.3345 111.687 86.1709 111.297C87.1406 111.091 88.0735 110.677 88.9142 110.083C89.1934 111.462 89.8487 112.769 90.8483 113.817L101.556 124.977C102.938 126.413 104.829 127.249 106.826 127.286C107.405 127.302 107.983 127.24 108.541 127.122C109.9 126.833 111.164 126.172 112.177 125.195L113.762 123.666C116.75 120.793 116.846 116.028 113.964 113.034L111.554 110.524C111.715 110.128 111.833 109.711 111.926 109.283C112.347 107.264 111.897 105.191 110.756 103.518L112.476 103.945C113.603 104.228 114.748 104.231 115.835 104C117.811 103.58 119.588 102.371 120.684 100.562C122.389 97.7616 122.076 94.1752 119.921 91.7034L119.698 91.4508C121.159 91.3171 122.576 90.7621 123.748 89.8131C124.089 89.5407 124.4 89.2361 124.677 88.9157L128.014 89.9061C129.227 90.2635 130.496 90.309 131.708 90.0514C132.406 89.9031 133.089 89.6502 133.73 89.3064C135.478 88.3581 136.777 86.7439 137.343 84.8316L137.966 82.715C139.149 78.726 136.873 74.5417 132.896 73.3568ZM55.8907 60.3089L55.9127 60.3042C56.1258 60.2589 56.3886 60.303 56.5743 60.4174C56.7689 60.5375 56.9293 60.7495 56.978 60.9775C57.0325 61.1967 56.9889 61.4597 56.8692 61.6544C56.7495 61.849 56.5364 62.0019 56.3176 62.0561L55.8907 60.3089ZM55.3334 60.7196C55.4399 60.5354 55.6457 60.384 55.8482 60.3256L56.2515 62.0702C56.0516 62.105 55.8035 62.0577 55.6357 61.955C55.2034 61.6931 55.0709 61.1445 55.3334 60.7196Z" fill="white"/>
<path d="M37.0863 58.4842C34.3688 55.2166 31.9636 51.6134 29.922 47.7715L27.9559 44.0673L32.142 44.1081C36.5758 44.1577 40.9595 44.6563 45.18 45.6127L45.8363 42.6815C41.4076 41.6849 36.8098 41.1548 32.1699 41.1106L22.9341 41.0127L27.2668 49.1818C29.4022 53.2114 31.9291 56.9887 34.7725 60.4141L37.0863 58.4842Z" fill="#2576B9"/>
<path d="M80.7227 63.6439C80.3037 65.9247 79.603 68.1808 78.6316 70.3561L81.3735 71.5805C82.2976 69.5076 82.9925 67.3681 83.466 65.1987L90.759 69.6471L108.594 67.3636L86.9001 54.1328L73.678 55.8282L64.3293 50.1325C60.9487 48.0749 57.3351 46.3282 53.5954 44.9621L52.5634 47.7885C56.1211 49.0933 59.5538 50.7477 62.7681 52.71L80.7227 63.6439ZM86.2448 57.2483L99.7168 65.459L91.4202 66.5227L77.9482 58.312L86.2448 57.2483Z" fill="#2576B9"/>
<path d="M36.5304 62.3168L37.4318 63.5172L38.3348 64.7249C38.7651 64.4027 48.9088 56.671 51.043 43.7974L48.081 43.3041C46.1472 54.9586 36.6222 62.2435 36.5304 62.3168Z" fill="#2576B9"/>
<path d="M50.4246 57.7639C49.4529 59.3624 49.1584 61.2553 49.6085 63.0746C50.0511 64.8954 51.1796 66.4397 52.7778 67.4151C54.3671 68.3846 56.196 68.6419 57.8854 68.2828C59.7072 67.8956 61.3749 66.7874 62.4143 65.0745C63.386 63.476 63.6731 61.5847 63.2305 59.7638C62.7878 57.943 61.6593 56.3987 60.0611 55.4233C58.4628 54.448 56.5863 54.147 54.7551 54.5978C52.9355 55.0307 51.3948 56.158 50.4246 57.7639ZM58.5041 57.9845C60.3934 59.1364 60.998 61.6073 59.8504 63.4969C58.7028 65.3866 56.2357 65.9879 54.3464 64.836C53.4285 64.2775 52.7877 63.3986 52.5336 62.3528C52.2811 61.3145 52.442 60.2344 52.9985 59.3163C53.5549 58.3982 54.4319 57.7581 55.476 57.5054C56.4997 57.2647 57.5861 57.426 58.5041 57.9845Z" fill="#2576B9"/>
<path d="M67.882 66.6325L66.3223 69.2013L89.5533 83.3618L91.113 80.793L67.882 66.6325Z" fill="#2576B9"/>
<path d="M115.813 75.8498L116.31 80.4813L108.672 78.0135L107.754 80.8695L119.799 84.7694L119.283 80.0186L130.351 83.3031L131.201 80.4154L115.813 75.8498Z" fill="#2576B9"/>
<path d="M105.613 108.126L96.6205 99.2092L94.5112 101.342L100.211 106.998L95.8804 108.687L107.002 120.274L109.162 118.2L101.167 109.855L105.613 108.126Z" fill="#2576B9"/>
<path d="M94.5603 74.4993L94.4978 74.4588C91.1351 72.4127 87.0268 71.8017 83.2301 72.7933L83.9909 75.7077C87.0005 74.9142 90.2689 75.4038 92.944 77.0347L93.0064 77.0752C94.1991 77.8061 95.2749 78.7079 96.1994 79.7649L107.191 92.3634L90.8859 88.3233C89.5319 87.9882 88.2415 87.4473 87.0503 86.7238C84.3841 85.0988 82.4523 82.4178 81.7619 79.3654L78.8315 80.0267C79.7047 83.8632 82.1305 87.2389 85.4859 89.2866C86.9341 90.1708 88.5104 90.8278 90.1645 91.2375L115.729 97.57L98.4566 77.7855C97.3375 76.5007 96.0263 75.3951 94.5603 74.4993Z" fill="#2576B9"/>
<path d="M72.2141 83.7403C73.9234 82.3234 75.4916 80.7135 76.903 78.9446L74.5517 77.068C73.0679 78.9292 71.3942 80.5846 69.5642 82.0118L51.6154 71.069C48.4011 69.1067 45.3548 66.8165 42.5641 64.2489L40.534 66.4646C43.4678 69.1633 46.6705 71.5741 50.0526 73.6391L59.4013 79.3347L63.9853 91.8802L85.6845 105.102L79.5129 88.1798L72.2141 83.7403ZM66.4408 89.8586L63.5691 81.9864L77.0427 90.2045L79.9144 98.0766L66.4408 89.8586Z" fill="#2576B9"/>
<path d="M68.9547 35.998L67.3818 38.5586L86.3972 50.2843L87.97 47.7238L68.9547 35.998Z" fill="#2576B9"/>
<path d="M83.8602 39.3453L82.3149 41.9227L95.5348 49.88L97.0801 47.3025L83.8602 39.3453Z" fill="#2576B9"/>
<path d="M37.5465 70.0716L35.749 72.4793L48.5467 82.064L50.3441 79.6563L37.5465 70.0716Z" fill="#2576B9"/>
<path d="M39.4322 78.8996L37.6348 81.3073L50.4324 90.892L52.2299 88.4843L39.4322 78.8996Z" fill="#2576B9"/>
<path d="M57.2312 21.8255C57.2312 21.8255 52.7231 30.1281 44.4228 25.6016C44.4228 25.6016 52.7231 30.1281 48.215 38.4307C48.215 38.4307 52.7231 30.1281 61.0234 34.6546C61.0234 34.6546 52.7231 30.1281 57.2312 21.8255Z" fill="#2576B9"/>
<path d="M19.4462 50.352C19.4462 50.352 17.3641 54.1937 13.5218 52.0957C13.5218 52.0957 17.3625 54.1864 15.273 58.0297C15.273 58.0297 17.3552 54.1879 21.1974 56.2859C21.1959 56.2786 17.3625 54.1864 19.4462 50.352Z" fill="#2576B9"/>
</g>
<defs>
<clipPath id="clip0_2382_98">
<rect width="1341" height="314" fill="white" transform="translate(8 7)"/>
</clipPath>
<clipPath id="clip1_2382_98">
<rect width="152" height="147" fill="white" transform="translate(1064 7)"/>
</clipPath>
<clipPath id="clip2_2382_98">
<rect width="124" height="126" fill="white" transform="matrix(0.978148 -0.207912 0.208878 0.977942 0 26)"/>
</clipPath>
</defs>
</svg>
