<svg width="32" height="32" viewBox="0 0 32 32" fill="none" xmlns="http://www.w3.org/2000/svg">
<path fill-rule="evenodd" clip-rule="evenodd" d="M0 5.33333C0 4.59695 0.596954 4 1.33333 4H30.6667C31.403 4 32 4.59695 32 5.33333C32 6.06971 31.403 6.66667 30.6667 6.66667H1.33333C0.596954 6.66667 0 6.06971 0 5.33333Z" fill="white"/>
<path fill-rule="evenodd" clip-rule="evenodd" d="M0 15.0304C0 14.294 0.596954 13.697 1.33333 13.697H30.6667C31.403 13.697 32 14.294 32 15.0304C32 15.7667 31.403 16.3637 30.6667 16.3637H1.33333C0.596954 16.3637 0 15.7667 0 15.0304Z" fill="white"/>
<path fill-rule="evenodd" clip-rule="evenodd" d="M0 25.3333C0 24.597 0.596954 24 1.33333 24H30.6667C31.403 24 32 24.597 32 25.3333C32 26.0697 31.403 26.6667 30.6667 26.6667H1.33333C0.596954 26.6667 0 26.0697 0 25.3333Z" fill="white"/>
</svg>
