<svg width="32" height="32" viewBox="0 0 32 32" fill="none" xmlns="http://www.w3.org/2000/svg">
<path fill-rule="evenodd" clip-rule="evenodd" d="M4.31261 4.20106C4.8767 3.63697 5.79127 3.63697 6.35536 4.20106L28.8256 26.6713C29.3897 27.2354 29.3897 28.15 28.8256 28.7141C28.2616 29.2782 27.347 29.2782 26.7829 28.7141L4.31261 6.24382C3.74852 5.67973 3.74852 4.76515 4.31261 4.20106Z" fill="white"/>
<path fill-rule="evenodd" clip-rule="evenodd" d="M3.68837 28.2011C3.12428 27.637 3.12428 26.7224 3.68837 26.1583L26.1586 3.68803C26.7227 3.12394 27.6373 3.12394 28.2014 3.68803C28.7655 4.25212 28.7655 5.16669 28.2014 5.73079L5.73112 28.2011C5.16703 28.7652 4.25246 28.7652 3.68837 28.2011Z" fill="white"/>
</svg>
