<svg width="113" height="143" viewBox="0 0 113 143" fill="none" xmlns="http://www.w3.org/2000/svg">
<path opacity="0.75" d="M88.7959 11.2917C82.0609 7.66637 74.4604 5.74997 66.8201 5.74997C49.7886 5.74997 34.1798 14.9665 26.0918 29.7939C24.9875 31.8091 23.167 35.1579 18.3321 66.4328L18.2525 66.581C17.0687 68.7443 16.7901 71.1546 17.2776 73.3871C16.8399 76.3111 16.4121 79.2253 16.0142 82.0406C15.3178 86.881 16.6011 91.7115 19.3767 95.5443C18.9788 96.4828 18.6803 97.4509 18.4615 98.4387C18.2923 98.4782 18.1332 98.5177 17.964 98.5671C13.9947 99.7426 10.7117 102.38 8.73203 106.006L5.82713 111.33C3.84742 114.945 3.40969 119.114 4.59354 123.065C5.77739 127.017 8.43358 130.267 12.0747 132.233L28.6784 141.163C30.9466 142.378 33.5033 143.03 36.06 143.03C37.5622 143.03 39.0544 142.812 40.4969 142.388C44.4663 141.212 47.7492 138.575 49.719 134.959L52.6239 129.625C54.7429 125.733 54.9916 121.327 53.6784 117.425C54.3947 116.714 55.0513 115.933 55.6283 115.084C55.9168 115.094 56.2053 115.104 56.4938 115.104C61.0501 115.104 65.4473 113.464 68.8595 110.5C71.0183 108.623 73.2368 106.687 75.4652 104.721C77.6837 103.882 79.534 102.281 80.6682 100.197L80.7477 100.049C104.494 78.9487 106.325 75.5999 107.429 73.5847C119.576 51.2991 111.219 23.3631 88.7959 11.2917Z" fill="#CFD8DC"/>
<path d="M85.6524 6.53035C78.9174 2.90499 71.3169 0.988586 63.6766 0.988586C46.6451 0.988586 31.0362 10.2051 22.9483 25.0325C21.844 27.0477 20.0235 30.3965 15.1886 61.6714L15.109 61.8196C13.9251 63.9829 13.6466 66.3933 14.1341 68.6258C13.6963 71.5498 13.2686 74.4639 12.8706 77.2792C12.1742 82.1196 13.4576 86.9501 16.2332 90.783C15.8352 91.7214 15.5368 92.6895 15.3179 93.6773C15.1488 93.7168 14.9896 93.7563 14.8205 93.8057C10.8511 94.9813 7.56819 97.6188 5.58848 101.244L2.68358 106.569C0.703865 110.184 0.266139 114.353 1.44999 118.304C2.63383 122.255 5.29003 125.505 8.9311 127.471L25.5348 136.401C27.803 137.616 30.3597 138.268 32.9164 138.268C34.4186 138.268 35.9109 138.051 37.3534 137.626C41.3228 136.451 44.6057 133.813 46.5755 130.198L49.4804 124.863C51.5993 120.971 51.8481 116.565 50.5349 112.664C51.2512 111.952 51.9077 111.172 52.4847 110.322C52.7732 110.332 53.0617 110.342 53.3502 110.342C57.9066 110.342 62.3037 108.702 65.716 105.739C67.8748 103.862 70.0932 101.926 72.3216 99.96C74.5401 99.1203 76.3905 97.52 77.5246 95.4357L77.6042 95.2875C101.351 74.1873 103.181 70.8385 104.286 68.8233C116.432 46.5279 108.076 18.5918 85.6524 6.53035Z" fill="white"/>
<path d="M92.4174 63.0247C101.381 46.597 95.2328 26.0698 78.6987 17.1693C62.1647 8.26894 41.4722 14.3738 32.5088 30.7916C30.2704 34.901 25.4952 66.9958 23.7742 78.9783C23.3862 81.6751 24.7292 84.3324 27.1467 85.6264L49.0827 97.4311C51.5001 98.7252 54.4647 98.3992 56.5339 96.6013C65.7063 88.6196 90.1691 67.1341 92.4174 63.0247Z" fill="#BCDAF2" stroke="#2576B9" stroke-width="4.5" stroke-miterlimit="10"/>
<path d="M25.9824 65.761L66.3825 87.4928" stroke="#2576B9" stroke-width="4.5" stroke-miterlimit="10"/>
<path d="M38.7461 72.6265C38.7461 72.6265 41.4023 50.0051 61.6869 12.8328L38.7461 72.6265Z" fill="#BCDAF2"/>
<path d="M38.7461 72.6265C38.7461 72.6265 41.4023 50.0051 61.6869 12.8328" stroke="#2576B9" stroke-width="4.5" stroke-miterlimit="10"/>
<path d="M53.7183 80.6873C53.7183 80.6873 71.3467 66.1265 91.6412 28.9444L53.7183 80.6873Z" fill="#BCDAF2"/>
<path d="M53.7183 80.6873C53.7183 80.6873 71.3467 66.1265 91.6412 28.9444" stroke="#2576B9" stroke-width="4.5" stroke-miterlimit="10"/>
<path d="M26.4803 95.0996L30.6287 87.4935L45.6009 95.554L41.4525 103.16C40.388 105.116 37.9208 105.847 35.9411 104.79L28.1118 100.572C26.142 99.5151 25.4059 97.0653 26.4803 95.0996Z" fill="#BCDAF2" stroke="#2576B9" stroke-width="4.5" stroke-miterlimit="10"/>
<path d="M30.1808 125.732L13.5771 116.802C11.9555 115.933 11.3586 113.918 12.2341 112.308L15.139 106.983C16.0145 105.373 18.0439 104.781 19.6655 105.65L36.2692 114.58C37.8908 115.449 38.4877 117.464 37.6122 119.074L34.7073 124.398C33.8318 126.009 31.8024 126.601 30.1808 125.732Z" fill="#BCDAF2" stroke="#2576B9" stroke-width="4.5" stroke-miterlimit="10"/>
</svg>
