<svg width="84" height="140" viewBox="0 0 84 140" fill="none" xmlns="http://www.w3.org/2000/svg">
<g clip-path="url(#clip0_4793_207)">
<g opacity="0.75">
<path opacity="0.75" d="M76.151 77.5695C80.5205 59.7236 84.38 42.379 83.9701 38.4489C81.6504 16.4122 61.8927 0.37094 39.9153 2.70695C17.938 5.03293 1.94986 24.8439 4.26958 46.8805C4.67953 50.8106 12.0786 66.9722 20.0677 83.5047L20.2877 85.5901L21.0376 85.5099C22.9973 89.5603 24.9771 93.6007 26.8869 97.4606C28.5267 100.789 31.9463 102.875 35.5958 102.875C35.9258 102.875 36.2658 102.854 36.6057 102.824L38.4955 102.624L39.2454 109.752C39.6254 113.331 42.645 115.998 46.1546 115.998C46.3946 115.998 46.6445 115.988 46.8845 115.958L56.6633 114.926C60.4729 114.524 63.2526 111.086 62.8526 107.256L62.1027 100.127L63.9925 99.9269C68.012 99.5059 71.3916 96.5783 72.3815 92.6482C73.4413 88.4775 74.5412 84.1063 75.6111 79.745L76.361 79.6648L76.151 77.5695Z" fill="#CFD8DC"/>
<path opacity="0.75" d="M69.3819 124.27C69.2119 122.635 68.412 121.162 67.1322 120.119C65.8523 119.086 64.2525 118.615 62.6127 118.775L41.8852 120.971C38.5156 121.332 36.0559 124.37 36.4158 127.759L37.1258 134.476C37.2957 136.11 38.0956 137.584 39.3755 138.627C40.4854 139.519 41.8352 140 43.235 140C43.455 140 43.675 139.99 43.895 139.97L64.6225 137.774C66.2523 137.604 67.7221 136.802 68.762 135.519C69.8019 134.235 70.2718 132.631 70.1018 130.987L69.3819 124.27Z" fill="#CFD8DC"/>
</g>
<path d="M77.4707 36.2231C75.2909 15.5199 56.7832 0.501262 36.1256 2.68688C15.4681 4.8725 0.499855 23.4302 2.6796 44.1435C3.22953 49.3168 19.0776 81.7903 25.0469 93.8814C26.3968 96.6084 29.2864 98.2025 32.2961 97.8817L59.6828 94.9842C62.6924 94.6634 65.1922 92.4978 65.9421 89.5603C69.2717 76.4766 78.0206 41.4064 77.4707 36.2231Z" fill="#FFD95C" stroke="#2576B9" stroke-width="4.9419" stroke-miterlimit="10"/>
<path d="M18.4575 80.3867L69.5914 74.9728" stroke="#2576B9" stroke-width="4.9419" stroke-miterlimit="10"/>
<path d="M34.6757 78.6723C34.6757 78.6723 22.8571 56.2245 17.9277 9.354L34.6757 78.6723Z" fill="#FFD95C"/>
<path d="M34.6757 78.6723C34.6757 78.6723 22.8571 56.2245 17.9277 9.354" stroke="#2576B9" stroke-width="4.9419" stroke-miterlimit="10"/>
<path d="M53.3735 76.6872C53.3735 76.6872 60.2535 52.2644 55.3235 5.39386L53.3735 76.6872Z" fill="#FFD95C"/>
<path d="M53.3735 76.6872C53.3735 76.6872 60.2535 52.2644 55.3235 5.39386" stroke="#2576B9" stroke-width="4.9419" stroke-miterlimit="10"/>
<path d="M37.6554 107.005L36.6455 97.4205L55.3433 95.4454L56.3532 105.03C56.6131 107.496 54.8233 109.712 52.3636 109.973L42.5848 111.005C40.1251 111.266 37.9154 109.481 37.6554 107.005Z" fill="#FFD95C" stroke="#2576B9" stroke-width="4.9419" stroke-miterlimit="10"/>
<path d="M60.3127 132.832L39.5852 135.027C37.5654 135.238 35.7556 133.774 35.5357 131.739L34.8257 125.021C34.6158 122.996 36.0756 121.182 38.1054 120.961L58.8329 118.765C60.8527 118.555 62.6624 120.019 62.8824 122.054L63.5923 128.771C63.7923 130.796 62.3325 132.611 60.3127 132.832Z" fill="#FFD95C" stroke="#2576B9" stroke-width="4.9419" stroke-miterlimit="10"/>
</g>
<defs>
<clipPath id="clip0_4793_207">
<rect width="84" height="140" fill="white"/>
</clipPath>
</defs>
</svg>
