<svg width="117" height="106" viewBox="0 0 117 106" fill="none" xmlns="http://www.w3.org/2000/svg">
<g clip-path="url(#clip0_1815_909)">
<path d="M115.39 36.67L106.16 34.16L109.41 22.22C109.65 21.32 109.12 20.39 108.22 20.15C83.58 13.45 72.69 17.96 68.36 21.3C66.54 16.23 59.69 6.94004 34.4 0.0600374C33.5 -0.179963 32.57 0.350037 32.33 1.25004L29.08 13.19L19.85 10.68C18.95 10.44 18.02 10.97 17.78 11.87L0.0600374 77C-0.179963 77.9 0.350037 78.83 1.25004 79.07L37.62 88.97C38.52 89.21 39.45 88.68 39.69 87.78C39.93 86.88 39.4 85.95 38.5 85.71L3.76004 76.26L20.6 14.38L28.2 16.45L14.9 65.3C14.66 66.2 15.19 67.13 16.09 67.37C48.37 76.15 47.7 88.2 47.68 88.45C47.57 89.29 48.11 90.07 48.91 90.29C48.98 90.31 49.05 90.32 49.12 90.33C49.14 90.33 49.17 90.33 49.19 90.33C49.28 90.37 49.36 90.41 49.46 90.43C49.58 90.46 49.69 90.48 49.81 90.49C49.87 90.52 49.94 90.55 50 90.57C50.74 90.77 51.55 90.44 51.93 89.75C51.99 89.64 58.36 78.87 89.91 87.46C90.81 87.7 91.74 87.17 91.98 86.27L105.27 37.42L112.87 39.49L96.03 101.37L60.2 91.62C59.3 91.38 58.37 91.91 58.13 92.81C57.89 93.71 58.42 94.64 59.32 94.88L96.77 105.07C97.67 105.31 98.6 104.78 98.84 103.88L116.56 38.74C116.82 37.84 116.29 36.91 115.39 36.67ZM18.6 64.56L35.14 3.77004C64.68 12.2 65.62 23.46 65.64 24.5L49.66 83.25C47.04 78.14 39.57 70.54 18.6 64.56ZM89.17 83.77C68.14 78.34 57.73 81.35 52.85 84.43L68.89 25.47C69.74 24.34 77.37 15.66 105.71 22.98L89.17 83.77Z" fill="white"/>
<path d="M92.9501 37.64C85.5901 36.43 79.0901 36.16 73.6401 36.84C72.7201 36.96 72.0601 37.8 72.1701 38.72C72.2601 39.42 72.7601 39.97 73.4001 40.14C73.6101 40.2 73.8301 40.21 74.0501 40.19C79.1801 39.55 85.3501 39.81 92.3901 40.97C93.3101 41.12 94.1801 40.5 94.3301 39.58C94.5001 38.66 93.8701 37.79 92.9501 37.64Z" fill="white"/>
<path d="M89.41 50.67C82.05 49.46 75.55 49.19 70.1 49.87C69.18 49.99 68.52 50.83 68.63 51.75C68.72 52.45 69.22 53 69.86 53.17C70.07 53.23 70.29 53.24 70.51 53.22C75.64 52.58 81.81 52.84 88.85 54C89.77 54.15 90.64 53.53 90.79 52.61C90.95 51.69 90.33 50.82 89.41 50.67Z" fill="white"/>
<path d="M85.86 63.7001C78.5 62.4901 72 62.2201 66.55 62.9001C65.63 63.0201 64.97 63.8601 65.09 64.7801C65.18 65.4801 65.68 66.0201 66.32 66.2001C66.53 66.2601 66.75 66.2701 66.97 66.2501C72.1 65.6101 78.27 65.8701 85.31 67.0301C86.23 67.1801 87.1 66.5601 87.25 65.6401C87.41 64.7201 86.78 63.8501 85.86 63.7001Z" fill="white"/>
<path d="M37.4301 26.0201C44.0901 28.5901 49.5401 31.4901 53.6401 34.6401C53.8201 34.7801 54.0201 34.8801 54.2301 34.9301C54.8701 35.1001 55.58 34.8901 56.01 34.3301C56.58 33.5901 56.4401 32.5301 55.7001 31.9601C51.3501 28.6101 45.6101 25.5501 38.6501 22.8701C37.7701 22.5301 36.8001 22.9701 36.4701 23.8401C36.1301 24.7001 36.5701 25.6801 37.4301 26.0201Z" fill="white"/>
<path d="M33.89 39.04C40.55 41.61 46 44.51 50.1 47.66C50.28 47.8 50.48 47.9 50.69 47.95C51.33 48.12 52.04 47.91 52.47 47.35C53.04 46.61 52.9 45.55 52.16 44.98C47.81 41.63 42.07 38.57 35.11 35.89C34.23 35.55 33.26 35.99 32.93 36.86C32.59 37.73 33.02 38.71 33.89 39.04Z" fill="white"/>
<path d="M48.6101 58.01C44.2601 54.66 38.5201 51.6 31.5601 48.92C30.6901 48.58 29.7101 49.02 29.3801 49.89C29.0401 50.76 29.4801 51.74 30.3501 52.07C37.0101 54.64 42.4601 57.54 46.5601 60.69C46.7401 60.83 46.9401 60.93 47.1501 60.98C47.7901 61.15 48.5001 60.94 48.9301 60.38C49.4901 59.64 49.3501 58.58 48.6101 58.01Z" fill="white"/>
</g>
<defs>
<clipPath id="clip0_1815_909">
<rect width="116.63" height="105.12" fill="white"/>
</clipPath>
</defs>
</svg>
