<svg width="92" height="94" viewBox="0 0 92 94" fill="none" xmlns="http://www.w3.org/2000/svg">
<g clip-path="url(#clip0_1782_2288)">
<path d="M77.4578 1.47888C77.4578 1.47888 77.4578 14.5092 64.3979 14.5092C64.3979 14.5092 77.4578 14.5092 77.4578 27.5395C77.4578 27.5395 77.4578 14.5092 90.5177 14.5092C90.5177 14.5092 77.4578 14.5092 77.4578 1.47888Z" stroke="#2576B9" stroke-width="2.9625" stroke-miterlimit="10" stroke-linecap="round" stroke-linejoin="round"/>
<path opacity="0.85" d="M66.9318 53.2304L47.6825 50.2426L44.5778 31.0569C44.2873 29.2383 42.9152 27.8693 41.0824 27.5895C39.2797 27.3097 37.517 28.2091 36.6958 29.8378L27.9024 47.1749L8.66311 44.1872C6.86036 43.9074 5.09768 44.8067 4.27643 46.4355C3.45518 48.0543 3.76566 50.0128 5.05762 51.2919L18.8686 64.9917L10.0753 82.3387C9.24399 83.9875 9.54445 85.8961 10.8564 87.1951C12.1484 88.4742 14.1114 88.7839 15.7239 87.9546L33.0502 79.0812L46.8712 92.781C47.8728 93.7702 49.2649 94.1799 50.5969 93.9301C50.9875 93.8602 51.3781 93.7303 51.7487 93.5404C53.3711 92.711 54.2625 90.9423 53.972 89.1537L50.8673 69.968L68.1937 61.0946C69.8162 60.2652 70.7075 58.5065 70.4171 56.7078C70.1367 54.8992 68.7345 53.5102 66.9318 53.2304Z" fill="#CFD8DC"/>
<path d="M38.5286 29.8383L41.6734 49.2639C41.8036 50.0832 42.4545 50.7328 43.2858 50.8627L62.7755 53.8804C64.6183 54.1702 65.0189 56.6484 63.3564 57.4977L45.8097 66.481C45.0685 66.8608 44.6479 67.6801 44.7881 68.4995L47.9329 87.9251C48.2333 89.7637 45.9899 90.9128 44.6679 89.5938L30.6766 75.7242C30.0857 75.1346 29.1743 74.9947 28.4332 75.3744L10.8865 84.3577C9.22398 85.2071 7.44126 83.4384 8.28255 81.7796L17.1861 64.2227C17.5667 63.4733 17.4164 62.5739 16.8255 61.9844L2.84427 48.1147C1.52226 46.7957 2.65398 44.5574 4.49678 44.8471L23.9864 47.8649C24.8177 47.9948 25.6289 47.5751 26.0095 46.8357L34.9131 29.2787C35.7443 27.61 38.2281 27.9997 38.5286 29.8383Z" fill="#EB9CC3" stroke="#2576B9" stroke-width="4.5202" stroke-miterlimit="10"/>
</g>
<defs>
<clipPath id="clip0_1782_2288">
<rect width="92" height="94" fill="white"/>
</clipPath>
</defs>
</svg>
