<svg width="89" height="89" viewBox="0 0 89 89" fill="none" xmlns="http://www.w3.org/2000/svg">
<path d="M58.77 0C42.56 0 29.37 13.19 29.37 29.41C29.37 36.73 32.07 43.43 36.51 48.58L27.43 57.66L24.54 54.77L0 79.31L8.87 88.18L33.41 63.64L30.52 60.75L39.6 51.67C44.75 56.11 51.45 58.81 58.77 58.81C74.99 58.81 88.18 45.62 88.18 29.4C88.18 13.18 74.99 0 58.77 0ZM8.87 81.99L6.19 79.31L24.54 60.96L27.22 63.64L8.87 81.99ZM58.77 54.44C44.97 54.44 33.74 43.21 33.74 29.41C33.74 15.61 44.97 4.38 58.77 4.38C72.57 4.38 83.8 15.61 83.8 29.41C83.8 43.21 72.58 54.44 58.77 54.44Z" fill="white"/>
</svg>
