<svg width="100" height="72" viewBox="0 0 100 72" fill="none" xmlns="http://www.w3.org/2000/svg">
<path d="M99.4633 39.2151L58.9188 0.484707C58.5511 0.138458 58.0542 -0.0396125 57.5474 0.00985169L1.58994 5.05519C0.90426 5.11455 0.327891 5.56962 0.0993307 6.21266C-0.129229 6.85569 0.0496438 7.56797 0.536576 8.04283L18.1655 24.8804C18.0661 25.0189 17.9767 25.1673 17.9171 25.3355L10.4044 46.6743C9.98704 47.8516 7.14494 58.4369 34.3933 67.9439C61.6416 77.4509 66.0538 67.4097 66.4712 66.2324L73.9839 44.8936C74.0435 44.7254 74.0634 44.5573 74.0733 44.3891L85.6404 43.3503L80.0258 59.2976C79.1115 58.981 78.1178 59.4559 77.7998 60.366C77.4818 61.2761 77.9588 62.2654 78.8731 62.582L78.4855 63.6801C77.5713 63.3635 76.5775 63.8384 76.2595 64.7485C75.9415 65.6587 76.4185 66.6479 77.3328 66.9645L76.9452 68.0626C76.6272 68.9728 77.1042 69.962 78.0184 70.2786C78.9327 70.5952 79.9264 70.1203 80.2444 69.2102L80.632 68.1121C81.5462 68.4286 82.5399 67.9538 82.8579 67.0437C83.1759 66.1335 82.699 65.1442 81.7847 64.8277L82.1723 63.7296C83.0865 64.0461 84.0802 63.5713 84.3982 62.6611C84.7162 61.751 84.2392 60.7617 83.325 60.4451L89.4663 43.0041L98.41 42.1929C99.0956 42.1335 99.672 41.6784 99.9006 41.0354C100.129 40.3924 99.9602 39.6801 99.4633 39.2151ZM63.1918 65.0453C63.162 65.1245 59.5249 73.0288 35.556 64.6694C11.587 56.3 13.7036 47.8714 13.7136 47.8318L20.8784 27.4723L41.0911 46.7733C41.27 46.9513 41.4886 47.0799 41.7271 47.1591C41.9556 47.2382 42.214 47.2679 42.4624 47.2481L70.3567 44.7353L63.1918 65.0453ZM42.9295 43.7065L5.7239 8.17144L57.0704 3.54159L94.276 39.0766L42.9295 43.7065Z" fill="white"/>
</svg>
