<svg width="120" height="114" viewBox="0 0 120 114" fill="none" xmlns="http://www.w3.org/2000/svg">
<path opacity="0.75" d="M64.9 0.0799934L61.25 0.489993C55.98 1.08999 51.88 4.93999 50.71 9.80999C50.39 11.16 50.29 12.59 50.46 14.05L51.86 26.39C51.88 26.7 51.94 27 52 27.31C50.65 27.81 49.32 28.39 48.03 29.06L38.45 21.27C33.2 17 25.48 17.8 21.21 23.05L18.89 25.9C17.72 27.34 16.9 29.01 16.48 30.78C16.16 32.11 16.06 33.5 16.21 34.89C16.54 38.12 18.15 41.09 20.67 43.14L30.21 50.9C30.08 51.37 29.94 51.83 29.83 52.3C29.66 53.03 29.52 53.76 29.4 54.5C29.06 54.52 28.72 54.54 28.39 54.59L15.53 56.34C10.37 57.04 6.40998 60.86 5.25998 65.63C4.91998 67.06 4.82998 68.59 5.03998 70.14L5.53998 73.78C5.97998 77 7.67998 79.92 10.27 81.88C12.86 83.85 16.12 84.71 19.34 84.27L29.98 82.82L25.76 88.02C24.59 89.46 23.78 91.13 23.35 92.9C23.03 94.23 22.93 95.62 23.08 97.01C23.41 100.24 25.02 103.21 27.54 105.26L30.39 107.58C35.64 111.85 43.36 111.05 47.63 105.8L55.13 96.57C55.58 96.01 55.96 95.42 56.31 94.8C56.33 94.8 56.36 94.81 56.38 94.81C61.04 95.63 64.88 96.14 67.78 96.35C70.64 96.55 73.23 97.58 75.54 99.46L76.96 100.6C77.94 101.38 79 101.99 80.1 102.43L81.81 103.82C82.05 104.02 82.31 104.19 82.56 104.37C82.8 104.6 83.03 104.82 83.29 105.03L86.14 107.35C91.39 111.62 99.11 110.82 103.38 105.57L116.44 89.51C117.61 88.07 118.43 86.4 118.85 84.63C119.17 83.3 119.27 81.91 119.12 80.52C118.79 77.29 117.18 74.32 114.66 72.27L111.81 69.95C111.51 69.71 111.21 69.49 110.9 69.28C110.71 69.1 110.54 68.91 110.33 68.75L108.57 67.32C107.9 66.3 107.07 65.36 106.08 64.55L104.65 63.39C102.47 61.62 100.91 59.24 100.14 56.51C99.37 53.78 98.13 50.25 96.47 46.01C96.42 45.87 96.35 45.75 96.29 45.61C96.82 45.15 97.32 44.65 97.78 44.09L105.28 34.86C106.45 33.42 107.26 31.75 107.69 29.98C108.01 28.65 108.11 27.26 107.96 25.87C107.63 22.64 106.02 19.67 103.5 17.62L100.65 15.3C95.4 11.03 87.68 11.83 83.41 17.08L79.68 21.67L78.45 10.87C78.08 7.63999 76.45 4.68999 73.91 2.65999C71.37 0.639993 68.13 -0.290007 64.9 0.0799934Z" fill="#CFD8DC"/>
<path d="M59.97 3.09999L56.32 3.50999C51.05 4.10999 46.95 7.95999 45.78 12.83C45.46 14.18 45.36 15.61 45.53 17.07L46.93 29.41C46.97 29.72 47.02 30.02 47.08 30.33C45.73 30.83 44.4 31.41 43.11 32.08L33.53 24.29C28.28 20.02 20.56 20.82 16.29 26.07L13.97 28.92C12.8 30.36 11.98 32.03 11.56 33.8C11.24 35.13 11.14 36.52 11.29 37.91C11.62 41.14 13.23 44.11 15.75 46.16L25.29 53.92C25.16 54.39 25.02 54.85 24.91 55.32C24.74 56.05 24.6 56.78 24.48 57.52C24.14 57.54 23.8 57.56 23.47 57.61L10.6 59.36C5.43999 60.06 1.47999 63.88 0.329991 68.65C-0.010009 70.08 -0.100009 71.61 0.109991 73.16L0.609991 76.8C1.04999 80.02 2.74999 82.94 5.33999 84.9C7.92999 86.87 11.19 87.73 14.41 87.29L25.05 85.84L20.83 91.04C19.66 92.48 18.85 94.15 18.42 95.92C18.1 97.25 18 98.64 18.15 100.03C18.48 103.26 20.09 106.23 22.61 108.28L25.46 110.6C30.71 114.87 38.43 114.07 42.7 108.82L50.2 99.59C50.65 99.03 51.03 98.44 51.38 97.82C51.4 97.82 51.43 97.83 51.45 97.83C56.11 98.65 59.95 99.16 62.85 99.37C65.71 99.57 68.3 100.6 70.61 102.48L72.03 103.62C73.01 104.4 74.07 105.01 75.17 105.45L76.88 106.84C77.12 107.04 77.38 107.21 77.63 107.39C77.87 107.62 78.1 107.84 78.36 108.05L81.21 110.37C86.46 114.64 94.18 113.84 98.45 108.59L111.51 92.53C112.68 91.09 113.5 89.42 113.92 87.65C114.24 86.32 114.34 84.93 114.19 83.54C113.86 80.31 112.25 77.34 109.73 75.29L106.88 72.97C106.58 72.73 106.28 72.51 105.97 72.3C105.78 72.12 105.61 71.93 105.4 71.77L103.64 70.34C102.97 69.32 102.14 68.38 101.15 67.57L99.72 66.41C97.54 64.64 95.98 62.26 95.21 59.53C94.44 56.8 93.2 53.27 91.54 49.03C91.49 48.89 91.42 48.77 91.36 48.63C91.89 48.17 92.39 47.67 92.85 47.11L100.35 37.88C101.52 36.44 102.33 34.77 102.76 33C103.08 31.67 103.18 30.28 103.03 28.89C102.7 25.66 101.09 22.69 98.57 20.64L95.72 18.32C90.47 14.05 82.75 14.85 78.48 20.1L74.75 24.69L73.52 13.89C73.15 10.66 71.52 7.70999 68.98 5.67999C66.44 3.66999 63.2 2.72999 59.97 3.09999Z" fill="white"/>
<path d="M72.37 46.08C63.4 39.52 50.75 40.91 43.43 49.27C35.33 58.52 36.58 72.56 46.03 80.25C46.05 80.26 46.06 80.27 46.08 80.29C48.34 82.12 51.06 83.29 53.92 83.8C56.69 84.29 60.83 84.95 63.88 85.16C69.57 85.56 74.99 87.7 79.41 91.29L79.47 91.33L90.93 77.23L90.88 77.19C86.45 73.59 83.25 68.71 81.7 63.22C80.89 60.37 79.49 56.62 78.47 54.04C77.62 51.88 76.36 49.91 74.74 48.25C73.95 47.43 73.09 46.61 72.37 46.08Z" fill="#FFD95C" stroke="#2576B9" stroke-width="3.6769" stroke-miterlimit="10"/>
<path d="M73.98 86.88L85.44 72.78" stroke="#2576B9" stroke-width="3.6769" stroke-miterlimit="10"/>
<path d="M96.29 79.96L83.23 96.03" stroke="#2576B9" stroke-width="3.6769" stroke-miterlimit="10"/>
<path d="M100.62 83.49L87.56 99.55" stroke="#2576B9" stroke-width="3.6769" stroke-miterlimit="10"/>
<path d="M24.67 35.08L35.79 44.12" stroke="#2576B9" stroke-width="3.6769" stroke-miterlimit="10"/>
<path d="M31.8 99.78L39.3 90.55" stroke="#2576B9" stroke-width="3.6769" stroke-miterlimit="10"/>
<path d="M81.96 38.08L89.46 28.85" stroke="#2576B9" stroke-width="3.6769" stroke-miterlimit="10"/>
<path d="M25.4 71.42L12.54 73.18" stroke="#2576B9" stroke-width="3.6769" stroke-miterlimit="10"/>
<path d="M60.96 27.68L59.56 15.34" stroke="#2576B9" stroke-width="3.6769" stroke-miterlimit="10"/>
<path d="M54.99 53.21L56.12 67.75L65.81 63.92L67.12 79.36" stroke="#2576B9" stroke-width="3.6769" stroke-miterlimit="10"/>
</svg>
