<svg width="1348" height="320" viewBox="0 0 1348 320" fill="none" xmlns="http://www.w3.org/2000/svg">
<g clip-path="url(#clip0_1662_7017)">
<path d="M1377 319.997C1334.69 218.084 1245.27 129.291 1130.08 74.8395C1014.9 20.3877 874.927 0.71711 743.591 20.5377C661.97 32.8581 585.018 59.559 507.385 83.2797C429.753 107 349.132 128.131 266.082 128.441C183.053 128.741 96.2747 105.37 44 53.4888" stroke="#BCDAF2" stroke-width="7.9968" stroke-miterlimit="10" stroke-linecap="round" stroke-linejoin="round" stroke-dasharray="1 20"/>
</g>
<g clip-path="url(#clip1_1662_7017)">
<path opacity="0.75" d="M1191.28 20.3964C1184.55 16.7463 1176.95 14.8169 1169.31 14.8169C1152.28 14.8169 1136.67 24.0961 1128.58 39.0244C1127.47 41.0533 1125.65 44.4249 1120.82 75.9125L1120.74 76.0617C1119.56 78.2398 1119.28 80.6665 1119.76 82.9142C1119.33 85.8581 1118.9 88.792 1118.5 91.6265C1117.81 96.4998 1119.09 101.363 1121.86 105.222C1121.47 106.167 1121.17 107.142 1120.95 108.136C1120.78 108.176 1120.62 108.216 1120.45 108.265C1116.48 109.449 1113.2 112.104 1111.22 115.754L1108.31 121.115C1106.33 124.755 1105.9 128.952 1107.08 132.93C1108.26 136.909 1110.92 140.181 1114.56 142.16L1131.17 151.151C1133.43 152.374 1135.99 153.03 1138.55 153.03C1140.05 153.03 1141.54 152.812 1142.98 152.384C1146.95 151.2 1150.24 148.545 1152.21 144.905L1155.11 139.534C1157.23 135.616 1157.48 131.18 1156.17 127.252C1156.88 126.535 1157.54 125.75 1158.12 124.894C1158.4 124.904 1158.69 124.914 1158.98 124.914C1163.54 124.914 1167.93 123.263 1171.35 120.28C1173.51 118.39 1175.72 116.441 1177.95 114.462C1180.17 113.616 1182.02 112.005 1183.16 109.906L1183.24 109.757C1206.98 88.5136 1208.81 85.142 1209.92 83.1131C1222.06 60.6759 1213.71 32.5498 1191.28 20.3964Z" fill="#CFD8DC"/>
<path d="M1188.14 15.6025C1181.4 11.9525 1173.8 10.0231 1166.16 10.0231C1149.13 10.0231 1133.52 19.3023 1125.44 34.2306C1124.33 36.2595 1122.51 39.631 1117.68 71.1187L1117.6 71.2679C1116.41 73.446 1116.13 75.8727 1116.62 78.1204C1116.18 81.0643 1115.76 83.9982 1115.36 86.8327C1114.66 91.706 1115.94 96.5694 1118.72 100.428C1118.32 101.373 1118.02 102.348 1117.81 103.342C1117.64 103.382 1117.48 103.422 1117.31 103.472C1113.34 104.655 1110.06 107.311 1108.08 110.961L1105.17 116.321C1103.19 119.961 1102.75 124.158 1103.94 128.137C1105.12 132.115 1107.78 135.387 1111.42 137.366L1128.02 146.357C1130.29 147.58 1132.85 148.237 1135.4 148.237C1136.91 148.237 1138.4 148.018 1139.84 147.59C1143.81 146.407 1147.09 143.751 1149.06 140.111L1151.97 134.74C1154.09 130.822 1154.34 126.386 1153.02 122.458C1153.74 121.742 1154.4 120.956 1154.97 120.101C1155.26 120.111 1155.55 120.121 1155.84 120.121C1160.39 120.121 1164.79 118.47 1168.2 115.486C1170.36 113.596 1172.58 111.647 1174.81 109.668C1177.03 108.822 1178.88 107.211 1180.01 105.113L1180.09 104.963C1203.84 83.7197 1205.67 80.3482 1206.77 78.3193C1218.92 55.8721 1210.56 27.7461 1188.14 15.6025Z" fill="white"/>
<path d="M1194.9 72.4811C1203.87 55.9417 1197.72 35.2748 1181.19 26.3138C1164.65 17.3529 1143.96 23.4992 1135 40.0288C1132.76 44.1661 1127.98 76.4793 1126.26 88.5432C1125.87 91.2584 1127.22 93.9337 1129.63 95.2366L1151.57 107.122C1153.99 108.424 1156.95 108.096 1159.02 106.286C1168.19 98.2501 1192.66 76.6185 1194.9 72.4811Z" fill="#BCDAF2" stroke="#2576B9" stroke-width="4.5" stroke-miterlimit="10"/>
<path d="M1128.47 75.2361L1168.87 97.1156" stroke="#2576B9" stroke-width="4.5" stroke-miterlimit="10"/>
<path d="M1141.23 82.1483C1141.23 82.1483 1143.89 59.3729 1164.17 21.9478L1141.23 82.1483Z" fill="#BCDAF2"/>
<path d="M1141.23 82.1483C1141.23 82.1483 1143.89 59.3729 1164.17 21.9478" stroke="#2576B9" stroke-width="4.5" stroke-miterlimit="10"/>
<path d="M1156.21 90.2638C1156.21 90.2638 1173.83 75.6041 1194.13 38.1689L1156.21 90.2638Z" fill="#BCDAF2"/>
<path d="M1156.21 90.2638C1156.21 90.2638 1173.83 75.6041 1194.13 38.1689" stroke="#2576B9" stroke-width="4.5" stroke-miterlimit="10"/>
<path d="M1128.97 104.774L1133.12 97.1163L1148.09 105.232L1143.94 112.89C1142.88 114.859 1140.41 115.595 1138.43 114.53L1130.6 110.284C1128.63 109.22 1127.89 106.753 1128.97 104.774Z" fill="#BCDAF2" stroke="#2576B9" stroke-width="4.5" stroke-miterlimit="10"/>
<path d="M1132.67 135.615L1116.06 126.625C1114.44 125.749 1113.85 123.721 1114.72 122.099L1117.63 116.739C1118.5 115.118 1120.53 114.521 1122.15 115.396L1138.76 124.387C1140.38 125.262 1140.97 127.291 1140.1 128.912L1137.19 134.272C1136.32 135.893 1134.29 136.49 1132.67 135.615Z" fill="#BCDAF2" stroke="#2576B9" stroke-width="4.5" stroke-miterlimit="10"/>
<path d="M1076.2 5.00061L1082.81 15.4037L1094.74 12.3404L1086.89 21.8385L1093.49 32.2415L1082.03 27.7063L1074.18 37.2044L1074.95 24.9017L1063.49 20.3665L1075.43 17.3033L1076.2 5.00061Z" fill="#2576B9"/>
</g>
<path d="M249.133 77.2176C249.133 77.2176 241.005 86.1889 233.649 76.2769C233.649 76.2769 241.005 86.1889 232.878 95.1602C232.878 95.1602 241.005 86.1889 248.361 96.101C248.361 96.1146 241.005 86.2025 249.133 77.2176Z" stroke="#BCDAF2" stroke-width="3.3468" stroke-miterlimit="10" stroke-linecap="round" stroke-linejoin="round"/>
<g clip-path="url(#clip2_1662_7017)">
<path d="M133.905 78.3917L119.058 73.6998C117.818 73.3075 116.519 73.251 115.288 73.5056C115.324 73.375 115.377 73.2489 115.406 73.1197C116.13 69.982 114.796 66.7269 112.079 65.0073L102.113 58.6871C102.446 58.3366 102.749 57.9532 103.013 57.5235L104.188 55.6345C105.253 53.9292 105.6 51.8689 105.143 49.9109C104.692 47.9516 103.482 46.2481 101.779 45.1811L88.607 36.9272C85.8499 35.1999 82.4172 35.4731 79.9814 37.3444L73.7083 33.3189C72.0168 32.2342 69.9772 31.8581 68.0032 32.2958C67.7371 32.3552 67.4814 32.4281 67.2285 32.5159C66.7588 32.0433 66.2294 31.6209 65.6225 31.2754C65.615 31.2769 64.9806 30.79 64.6225 30.2571C64.4251 29.9556 64.2645 29.7242 64.8894 28.6141C66.9497 24.9697 65.6729 20.344 62.04 18.2771C58.4426 16.2342 53.884 17.4599 51.79 21.0105C50.6747 22.772 49.8945 22.3289 49.07 21.8557C45.4296 19.7903 40.8114 21.0662 38.7496 24.7032C36.7117 28.3046 37.9384 32.8706 41.485 34.9697C43.1484 36.029 42.8401 36.7841 42.413 37.5622C39.2857 37.0654 36.1053 36.772 32.9032 36.6837L24.2735 36.4452C21.5984 36.3703 19.0971 37.706 17.6704 39.9683C16.5253 41.7742 16.2305 43.9479 16.7709 45.9747C16.0864 46.2622 15.4445 46.6495 14.8659 47.125C11.8439 46.6541 8.71571 48.0575 7.11989 50.8779C6.19538 52.5097 5.94387 54.3505 6.27653 56.0623C6.51663 57.2979 7.0614 58.4742 7.88627 59.4647C7.74812 60.3412 7.77182 61.2171 7.93815 62.0731C8.34602 64.172 9.63532 66.0841 11.6383 67.2242C13.2757 68.1496 15.1066 68.404 16.8157 68.0718C18.0493 67.8321 19.2236 67.2872 20.2123 66.4617C22.5904 66.8338 25.0177 66.03 26.7341 64.3061C27.5874 65.5229 28.4737 66.71 29.3987 67.8588C29.5624 68.0664 29.7396 68.2637 29.9213 68.4447C30.103 68.9037 30.3368 69.3526 30.6211 69.784L30.0053 70.5833C27.5644 73.7379 28.0016 78.21 30.9129 80.8497C29.3748 84.0065 30.2039 87.9158 33.0832 90.1524L45.8011 100.039C47.3908 101.275 49.3954 101.828 51.3892 101.572C51.5542 101.547 51.7191 101.523 51.8826 101.491C53.6809 101.142 55.2926 100.149 56.4211 98.6938L57.0369 97.8944C57.6078 99.4827 58.6877 100.833 60.1128 101.738L80.6139 114.77C82.2848 115.828 84.2562 116.171 86.1141 115.81C87.095 115.619 88.0428 115.218 88.9011 114.635C89.1567 116.029 89.7927 117.358 90.7805 118.433L101.363 129.87C102.729 131.342 104.619 132.219 106.63 132.291C107.213 132.317 107.797 132.265 108.362 132.155C109.737 131.888 111.023 131.244 112.061 130.278L113.687 128.765C116.752 125.922 116.937 121.12 114.089 118.051L111.707 115.478C111.877 115.082 112.004 114.664 112.105 114.234C112.567 112.206 112.152 110.109 111.034 108.403L112.758 108.863C113.89 109.168 115.043 109.191 116.143 108.978C118.142 108.589 119.955 107.403 121.093 105.598C122.864 102.806 122.615 99.185 120.488 96.6554L120.269 96.3969C121.744 96.288 123.182 95.7535 124.381 94.8177C124.729 94.5491 125.049 94.2476 125.334 93.9296L128.678 94.9867C129.894 95.3684 131.172 95.4367 132.398 95.1985C133.104 95.0613 133.797 94.8184 134.449 94.4832C136.228 93.5582 137.567 91.9541 138.173 90.0365L138.841 87.9141C140.107 83.9141 137.891 79.6563 133.905 78.3917ZM56.5502 63.8801L56.5725 63.8758C56.788 63.8339 57.052 63.883 57.237 64.0015C57.4309 64.126 57.5886 64.3426 57.6335 64.5733C57.6843 64.7951 57.6354 65.0595 57.5112 65.2536C57.3869 65.4477 57.1694 65.5981 56.9479 65.6488L56.5502 63.8801ZM55.9809 64.2842C56.0917 64.1005 56.3019 63.9515 56.507 63.8962L56.881 65.6618C56.6789 65.6934 56.4297 65.6414 56.2625 65.5349C55.8318 65.2632 55.7085 64.7079 55.9809 64.2842Z" fill="#CFD8DC"/>
<path d="M133.037 73.926L118.19 69.2341C116.949 68.8418 115.651 68.7853 114.42 69.0399C114.456 68.9093 114.509 68.7832 114.538 68.654C115.262 65.5163 113.928 62.2612 111.211 60.5416L101.245 54.2214C101.578 53.8709 101.881 53.4875 102.145 53.0578L103.32 51.1688C104.384 49.4635 104.732 47.4032 104.274 45.4453C103.824 43.4859 102.614 41.7824 100.911 40.7154L87.7389 32.4615C84.9817 30.7342 81.549 31.0074 79.1133 32.8787L72.8401 28.8532C71.1487 27.7685 69.1091 27.3924 67.135 27.8301C66.869 27.8895 66.6132 27.9624 66.3603 28.0502C65.8906 27.5776 65.3613 27.1552 64.7543 26.8097C64.7469 26.8112 64.1124 26.3243 63.7544 25.7914C63.557 25.4899 63.3963 25.2585 64.0212 24.1484C66.0815 20.504 64.8047 15.8783 61.1718 13.8114C57.5744 11.7685 53.0158 12.9942 50.9218 16.5448C49.8066 18.3063 49.0264 17.8632 48.2018 17.39C44.5615 15.3246 39.9432 16.6005 37.8814 20.2375C35.8436 23.8389 37.0702 28.4049 40.6168 30.504C42.2802 31.5633 41.972 32.3184 41.5448 33.0965C38.4175 32.5997 35.2372 32.3063 32.035 32.218L23.4053 31.9795C20.7302 31.9046 18.2289 33.2403 16.8023 35.5026C15.6571 37.3085 15.3623 39.4822 15.9027 41.509C15.2182 41.7965 14.5763 42.1838 13.9978 42.6593C10.9757 42.1884 7.84754 43.5918 6.25173 46.4122C5.32721 48.044 5.0757 49.8848 5.40837 51.5967C5.64846 52.8322 6.19324 54.0085 7.01811 54.999C6.87996 55.8755 6.90365 56.7514 7.06998 57.6074C7.47786 59.7063 8.76716 61.6184 10.7702 62.7585C12.4075 63.6839 14.2384 63.9383 15.9476 63.6061C17.1812 63.3664 18.3555 62.8215 19.3441 61.996C21.7223 62.3681 24.1495 61.5643 25.8659 59.8404C26.7193 61.0572 27.6055 62.2443 28.5305 63.3931C28.6943 63.6007 28.8714 63.798 29.0531 63.979C29.2348 64.438 29.4686 64.8869 29.7529 65.3183L29.1371 66.1176C26.6962 69.2722 27.1334 73.7443 30.0448 76.384C28.5066 79.5408 29.3357 83.4501 32.215 85.6867L44.9329 95.5735C46.5227 96.8094 48.5272 97.3621 50.5211 97.106C50.686 97.0816 50.8509 97.0573 51.0144 97.0255C52.8128 96.6761 54.4244 95.6832 55.5529 94.2281L56.1688 93.4287C56.7396 95.017 57.8195 96.3674 59.2446 97.2722L79.7458 110.304C81.4166 111.362 83.3881 111.705 85.2459 111.344C86.2268 111.153 87.1747 110.753 88.0329 110.169C88.2885 111.564 88.9246 112.892 89.9123 113.967L100.495 125.404C101.86 126.877 103.75 127.753 105.762 127.825C106.345 127.851 106.929 127.799 107.494 127.69C108.869 127.422 110.155 126.779 111.193 125.812L112.819 124.299C115.884 121.456 116.069 116.654 113.221 113.585L110.839 111.012C111.009 110.616 111.136 110.198 111.237 109.769C111.699 107.74 111.284 105.643 110.166 103.937L111.89 104.397C113.021 104.703 114.175 104.726 115.275 104.512C117.274 104.124 119.087 102.937 120.225 101.133C121.995 98.3399 121.747 94.7193 119.62 92.1897L119.4 91.9312C120.875 91.8223 122.314 91.2878 123.512 90.352C123.861 90.0834 124.181 89.7819 124.466 89.4639L127.81 90.521C129.025 90.9027 130.303 90.9711 131.53 90.7328C132.236 90.5956 132.929 90.3527 133.581 90.0175C135.36 89.0925 136.698 87.4884 137.305 85.5708L137.972 83.4484C139.239 79.4484 137.023 75.1906 133.037 73.926ZM55.682 59.4144L55.7043 59.4101C55.9198 59.3682 56.1838 59.4173 56.3688 59.5358C56.5627 59.6603 56.7204 59.8769 56.7653 60.1076C56.8161 60.3294 56.7672 60.5938 56.643 60.7879C56.5188 60.982 56.3012 61.1324 56.0797 61.1831L55.682 59.4144ZM55.1128 59.8185C55.2236 59.6348 55.4337 59.4858 55.6389 59.4305L56.0128 61.1961C55.8107 61.2277 55.5616 61.1757 55.3943 61.0692C54.9637 60.7975 54.8403 60.2422 55.1128 59.8185Z" fill="white"/>
<path d="M36.7669 57.2431C34.0893 53.9015 31.7327 50.2272 29.7469 46.3185L27.8347 42.5501L32.0523 42.6651C36.5193 42.7934 40.9275 43.3734 45.1626 44.4119L45.8786 41.469C41.4343 40.3862 36.811 39.7708 32.1362 39.6442L22.8311 39.3824L27.045 47.6932C29.1218 51.7927 31.5978 55.6447 34.3993 59.1476L36.7669 57.2431Z" fill="#2576B9"/>
<path d="M80.6434 63.2144C80.1788 65.5061 79.4306 67.7678 78.4113 69.9432L81.1515 71.2258C82.1213 69.1527 82.8614 67.0084 83.3789 64.8301L90.6453 69.4427L108.66 67.4559L87.0456 53.7366L73.69 55.212L64.3754 49.3059C61.0071 47.1721 57.3982 45.3477 53.6551 43.9047L52.5626 46.7354C56.1233 48.1135 59.5516 49.8417 62.7542 51.8764L80.6434 63.2144ZM86.3272 56.8654L99.75 65.3794L91.3697 66.305L77.9469 57.791L86.3272 56.8654Z" fill="#2576B9"/>
<path d="M36.1355 61.0965L37.0215 62.3223L37.909 63.5556C38.3486 63.2385 48.7144 55.6243 51.1048 42.6856L48.1292 42.1362C45.9634 53.8494 36.2294 61.0242 36.1355 61.0965Z" fill="#2576B9"/>
<path d="M50.2214 56.7527C49.2125 58.3468 48.8805 60.2496 49.3001 62.0913C49.7122 63.9345 50.8206 65.511 52.413 66.5224C53.9965 67.5277 55.8346 67.8193 57.5438 67.4872C59.3867 67.129 61.0879 66.0415 62.1673 64.3333C63.1762 62.7392 63.5008 60.8378 63.0886 58.9947C62.6765 57.1515 61.5681 55.575 59.9757 54.5636C58.3833 53.5523 56.4979 53.2158 54.6442 53.6378C52.8025 54.042 51.2289 55.1511 50.2214 56.7527ZM58.359 57.1177C60.2414 58.3121 60.8046 60.8134 59.613 62.6979C58.4214 64.5824 55.9241 65.1449 54.0417 63.9505C53.1271 63.3713 52.4977 62.474 52.2612 61.4155C52.0261 60.3643 52.2084 59.2785 52.7862 58.3629C53.364 57.4473 54.2596 56.8176 55.3165 56.5813C56.3525 56.3568 57.4444 56.5385 58.359 57.1177Z" fill="#2576B9"/>
<path d="M67.6479 66.0001L66.0283 68.5619L89.1746 83.2455L90.7941 80.6837L67.6479 66.0001Z" fill="#2576B9"/>
<path d="M115.776 76.1373L116.192 80.8145L108.541 78.1922L107.562 81.0548L119.627 85.1984L119.196 80.4006L130.288 83.9067L131.198 81.011L115.776 76.1373Z" fill="#2576B9"/>
<path d="M104.896 108.491L96.0004 99.344L93.8352 101.456L99.474 107.258L95.0782 108.885L106.069 120.76L108.285 118.707L100.384 110.155L104.896 108.491Z" fill="#2576B9"/>
<path d="M94.3854 74.4008L94.3233 74.3588C90.9727 72.237 86.8442 71.5486 82.9998 72.481L83.7121 75.4322C86.7597 74.6854 90.0441 75.2367 92.7094 76.9278L92.7716 76.9698C93.9599 77.7275 95.0271 78.6555 95.9391 79.7373L106.781 92.6302L90.4253 88.2701C89.0671 87.9084 87.7768 87.3404 86.5899 86.5901C83.9335 84.905 82.0367 82.1686 81.3978 79.0796L78.4326 79.6944C79.241 83.577 81.6226 87.0224 84.9658 89.1457C86.4087 90.0625 87.9849 90.7526 89.644 91.1948L115.288 98.0291L98.2506 77.7819C97.1468 76.4671 95.8461 75.3296 94.3854 74.4008Z" fill="#2576B9"/>
<path d="M71.6948 83.3209C73.4436 81.9229 75.0539 80.3278 76.5091 78.5697L74.1747 76.6367C72.6447 78.4865 70.9273 80.1256 69.0567 81.5318L51.1734 70.1849C47.9709 68.1502 44.9438 65.7879 42.1794 63.1506L40.0924 65.3481C42.9986 68.1201 46.181 70.6066 49.5507 72.7479L58.8653 78.654L63.251 91.3804L84.8711 105.091L78.9672 87.9246L71.6948 83.3209ZM65.7631 89.386L63.0159 81.4004L76.4402 89.9218L79.1874 97.9075L65.7631 89.386Z" fill="#2576B9"/>
<path d="M69.2996 35.1404L67.667 37.6936L86.6104 49.8486L88.2431 47.2954L69.2996 35.1404Z" fill="#2576B9"/>
<path d="M84.2575 38.7774L82.6523 41.3481L95.8258 49.6023L97.431 47.0315L84.2575 38.7774Z" fill="#2576B9"/>
<path d="M37.0153 68.9311L35.1592 71.3263L47.8769 81.2134L49.733 78.8182L37.0153 68.9311Z" fill="#2576B9"/>
<path d="M38.7507 77.8628L36.8945 80.2579L49.6123 90.145L51.4684 87.7498L38.7507 77.8628Z" fill="#2576B9"/>
<path d="M57.7498 20.6479C57.7498 20.6479 53.0523 28.9371 44.7724 24.2279C44.7724 24.2279 53.0523 28.9371 48.3549 37.2263C48.3549 37.2263 53.0523 28.9371 61.3323 33.6462C61.3323 33.6462 53.0523 28.9371 57.7498 20.6479Z" fill="#2576B9"/>
<path d="M19.1424 48.7347C19.1424 48.7347 16.9727 52.5703 13.1399 50.3877C13.1399 50.3877 16.9713 52.5628 14.7941 56.3999C14.7941 56.3999 16.9639 52.5643 20.7966 54.7468C20.7952 54.7394 16.9713 52.5628 19.1424 48.7347Z" fill="#2576B9"/>
</g>
<defs>
<clipPath id="clip0_1662_7017">
<rect width="1341" height="315" fill="white" transform="translate(7 5.00061)"/>
</clipPath>
<clipPath id="clip1_1662_7017">
<rect width="152" height="148" fill="white" transform="translate(1063.49 5.00061)"/>
</clipPath>
<clipPath id="clip2_1662_7017">
<rect width="125" height="127" fill="white" transform="translate(0 23.8451) rotate(-10.9972)"/>
</clipPath>
</defs>
</svg>
