<svg width="140" height="116" viewBox="0 0 140 116" fill="none" xmlns="http://www.w3.org/2000/svg">
                            <path
                                d="M63.8086 26.0217L69.488 10.3348L73.13 21.9575C70.037 23.2612 66.87 24.6547 63.8086 26.0217ZM41.4817 0V49.4782L65.0912 0H41.4817ZM75.2519 28.7242C69.6305 33.3162 63.2333 38.9534 56.9891 44.8914L54.4714 51.8534H82.5041L75.2519 28.7242ZM92.5117 17.8985C91.8308 17.0909 88.7694 18.648 84.3357 21.7622L87.0751 27.5682C90.3054 23.277 93.3298 18.8644 92.5117 17.8985ZM94.2377 16.6845C95.7631 18.7008 91.588 23.9051 87.471 28.4128L98.5183 51.8534V0H74.0801L82.6678 18.2258C88.5794 16.1567 93.1134 15.2013 94.2377 16.6845ZM0.226964 88.078C0.153069 88.078 0.105565 88.0357 0.0950083 87.946C0.0844518 87.8616 0.116121 87.8035 0.190017 87.7771C1.16649 87.6241 1.9899 87.3126 2.65495 86.8376C3.32001 86.3573 3.82672 85.7503 4.18037 84.8688C5.13045 82.483 6.03831 80.1026 6.89338 77.7168C7.74318 75.3258 8.66159 72.8978 9.51666 70.4645C10.1448 68.6804 12.7206 61.8979 13.3751 60.1403C13.4014 60.0664 13.449 60.0294 13.5228 60.0294C13.5967 60.0294 13.6495 60.0664 13.6759 60.1403C13.7973 60.4939 15.8981 65.8038 16.6476 67.8095C17.4024 69.8153 18.1888 71.821 19.0017 73.832C19.8198 75.8377 20.659 77.8171 21.5299 79.7647C22.3956 81.7071 23.3087 83.5862 24.2588 85.3914C24.6863 86.1725 25.2089 86.7268 25.8423 87.0698C26.4017 87.3707 27.0668 87.5502 27.811 87.6452C27.6316 87.6874 27.4574 87.7349 27.241 87.7666C27.1671 87.793 27.1354 87.851 27.1513 87.9355C27.1618 87.9935 27.1988 88.0041 27.2357 88.0252L27.1565 88.0305C26.8293 88.0569 26.4968 88.0674 26.159 88.0516C25.8211 88.0358 25.4992 88.0041 25.1983 87.9513C24.945 87.9302 24.6863 87.9038 24.4119 87.8774C24.1374 87.851 23.8735 87.8405 23.6201 87.8405C22.9867 87.8405 22.3586 87.8669 21.7358 87.8932C20.8913 87.9355 19.0703 88.0358 18.9489 88.0569C18.8697 88.0833 18.8169 88.0516 18.8011 87.9619C18.7747 87.8774 18.8011 87.8035 18.875 87.756L20.9124 86.8534C20.3107 85.2488 19.6931 83.6548 19.0703 82.0555C18.4422 80.4615 17.8246 78.8569 17.2229 77.2523H9.23164C9.05218 77.6798 8.8041 78.3291 8.47685 79.2105C8.15488 80.092 7.83818 80.9946 7.52149 81.9394C7.2048 82.8789 6.93033 83.7815 6.69281 84.6313C6.45529 85.4811 6.33389 86.0247 6.33389 86.4048C6.33389 86.6581 6.4025 86.864 6.54502 87.0276C6.67697 87.1912 6.85115 87.3179 7.05701 87.4235C7.2523 87.5238 7.47399 87.5924 7.71151 87.6346C7.94903 87.6663 8.16544 87.7032 8.36601 87.7296V88.0516C8.16544 88.0305 6.22832 87.8668 5.80606 87.8457C5.3838 87.8141 4.95627 87.8035 4.52345 87.8035C4.0748 87.8035 3.62615 87.8141 3.16694 87.8457C2.71301 87.8668 2.27492 87.9038 1.85266 87.9513C1.57292 87.983 1.29845 87.9988 1.03981 88.0094C0.775901 88.0305 0.501433 88.0516 0.226964 88.078ZM9.72779 75.6424H16.5789L13.2589 65.334C13.1375 65.6824 11.6121 69.8364 11.174 71.2721C10.7307 72.7077 10.2503 74.1645 9.72779 75.6424ZM28.1805 87.851C28.1805 87.9566 28.1436 87.9988 28.0644 87.9988L27.241 88.0357C27.2568 88.0463 27.2621 88.0833 27.2832 88.0833C27.8585 88.0991 28.4391 88.1149 29.0198 88.1149H30.751H36.5149C36.5888 88.1149 36.6257 88.0674 36.6257 87.9619C36.6257 87.8616 36.5888 87.8141 36.5149 87.8141C35.3061 87.756 34.4511 87.4763 33.9549 86.9643C33.4535 86.447 33.2001 85.6025 33.2001 84.4202V61.9296C34.1502 61.5284 35.0633 61.3279 35.9131 61.3279C36.8474 61.3279 37.6813 61.539 38.4256 61.9665C39.1645 62.3993 39.7926 62.9483 40.3046 63.6397C40.8219 64.3312 41.2072 65.1071 41.4711 65.9622C41.735 66.812 41.8723 67.667 41.8723 68.5221C41.8723 69.4775 41.7245 70.3537 41.4342 71.1612C41.1491 71.9688 40.7322 72.655 40.1885 73.2303C39.6501 73.8109 38.9903 74.2595 38.2144 74.571C37.4333 74.8824 36.5571 75.046 35.5806 75.046H35.1267C35.0053 75.046 34.868 75.0302 34.715 75.0091C34.6411 74.9879 34.5989 75.0196 34.583 75.1252C34.5725 75.2255 34.6041 75.2888 34.678 75.3152C35.4328 75.5158 36.1612 75.6108 36.8632 75.6108C38.0192 75.6108 39.0854 75.3574 40.046 74.8402C41.0119 74.3229 41.8512 73.6526 42.5532 72.8239C43.2552 71.9952 43.8094 71.0557 44.2105 69.9947C44.6117 68.9444 44.8122 67.8623 44.8122 66.7592C44.8122 65.4766 44.6381 64.4209 44.2897 63.5869C43.9361 62.7635 43.4399 62.0932 42.8012 61.5918C42.1626 61.0903 41.2758 60.6206 40.368 60.3672C39.4707 60.1191 38.5259 60.04 37.391 60.04L32.7198 60.2405C31.7644 60.2405 30.7985 60.2247 29.822 60.2036C28.8456 60.1772 27.8638 60.0822 26.8873 60.0347C26.8082 60.0347 26.7659 60.1139 26.7501 60.1878C26.7396 60.2617 26.7712 60.3303 26.8451 60.3567C27.1724 60.4306 27.8533 60.5678 28.7189 61.2487C29.6268 61.9665 29.7851 62.8058 29.7851 63.1805V84.0929C29.7851 84.6894 29.7693 85.2013 29.7429 85.6183C29.7165 86.03 29.632 86.3837 29.479 86.6687C29.3312 86.9537 29.0778 87.186 28.7242 87.3654C28.4919 87.4815 28.1752 87.5765 27.8216 87.661C27.906 87.6716 27.9852 87.6979 28.0697 87.7032C28.1436 87.6979 28.1805 87.7507 28.1805 87.851ZM27.1565 87.946C27.1671 88.0041 27.204 88.0146 27.241 88.0357L28.0644 87.9988C28.1383 87.9988 28.1805 87.9566 28.1805 87.851C28.1805 87.7507 28.1436 87.6979 28.0644 87.6979C27.9747 87.6874 27.9008 87.6663 27.8163 87.6557C27.6369 87.6979 27.4627 87.7455 27.2463 87.7771C27.1724 87.7982 27.1407 87.8563 27.1565 87.946ZM94.681 60.3303C95.4886 60.3567 96.2487 60.7948 96.7343 61.3067C97.2515 61.8557 97.5841 62.4732 97.5841 63.3283V84.0824C97.5841 84.436 97.526 84.816 97.4099 85.2277C97.3043 85.6394 97.1354 86.0247 96.9296 86.3784C96.7132 86.7267 96.4915 87.0382 96.1853 87.2862C95.8739 87.5396 95.4781 87.7349 95.1033 87.7613C95.0241 87.7613 94.9925 87.8141 94.9925 87.9144C94.9925 88.0146 95.0241 88.0621 95.1033 88.0621C95.3989 88.041 96.8821 87.9513 97.2093 87.9249C99.2678 87.8457 101.342 87.8088 103.427 87.8088C105.966 87.8088 108.505 87.8405 111.075 88.0569C111.123 88.0569 111.281 88.0199 111.334 87.793C111.403 87.5396 111.624 86.8798 111.856 85.5497C112.083 84.2249 112.173 83.032 112.2 82.9053L111.893 82.7892C111.318 83.9715 110.484 84.9216 109.391 85.6553C108.299 86.3837 107.101 86.7426 105.792 86.7426C105.116 86.7426 104.488 86.6423 103.907 86.4417C103.327 86.2412 102.825 85.9561 102.403 85.5761C101.97 85.2013 101.632 84.7369 101.379 84.1826C101.131 83.6284 101.004 83.0003 101.004 82.293V63.2755C101.004 62.468 101.3 61.8187 101.886 61.3331C102.472 60.8475 103.142 60.4464 103.865 60.3197C103.939 60.2933 103.965 60.2405 103.96 60.1508C103.944 60.0664 103.902 60.0189 103.823 60.0189C103.1 60.0664 102.361 60.1191 101.622 60.1719C100.883 60.2194 100.139 60.2405 99.384 60.2405C97.7794 60.2405 96.2065 60.0928 94.6758 60.0189V60.3303H94.681ZM79.3214 85.233C79.2158 85.6447 79.0469 86.03 78.8358 86.3837C78.6246 86.732 78.403 87.0434 78.0915 87.2915C77.7748 87.5449 77.379 87.7402 77.0095 87.7666C76.9356 87.7666 76.8987 87.8193 76.8987 87.9196C76.8987 88.0199 76.9356 88.0674 77.0095 88.0674C77.3104 88.0463 78.7883 87.9566 79.1155 87.9302C81.174 87.851 83.2484 87.8141 85.3333 87.8141C87.8721 87.8141 90.4109 87.8457 92.9867 88.0621C93.029 88.0621 93.1873 88.0252 93.2506 87.7982C93.3193 87.5449 93.5409 86.8851 93.7679 85.555C93.9949 84.2301 94.0899 83.0373 94.111 82.9106L93.8101 82.7945C93.2348 83.9768 92.4008 84.9269 91.3083 85.6605C90.2157 86.3889 89.0175 86.7479 87.7085 86.7479C87.0276 86.7479 86.4048 86.6476 85.8242 86.447C85.2436 86.2464 84.7421 85.9614 84.3199 85.5814C83.887 85.2066 83.5492 84.7421 83.2959 84.1879C83.0478 83.6337 82.9264 83.0056 82.9264 82.2983V63.2808C82.9264 62.4732 83.222 61.824 83.8079 61.3384C84.399 60.8528 85.0641 60.4517 85.7925 60.325C85.8664 60.2986 85.8928 60.2458 85.8769 60.1561C85.8664 60.0716 85.8189 60.0241 85.7397 60.0241C85.0166 60.0716 84.2829 60.1244 83.5387 60.1772C82.7997 60.2247 82.0555 60.2458 81.3007 60.2458C79.6961 60.2458 78.1232 60.098 76.5925 60.0241V60.325C77.4001 60.3514 78.1654 60.7895 78.6458 61.3015C79.1683 61.8504 79.4956 62.468 79.4956 63.323V84.0771C79.4956 84.436 79.4428 84.8213 79.3214 85.233ZM32.6829 114.137C32.2131 114.474 31.6483 114.654 30.9991 114.654C30.751 114.654 30.4977 114.628 30.2338 114.569C29.9698 114.511 29.7218 114.432 29.479 114.321C29.2362 114.211 29.0145 114.073 28.8033 113.91C28.5975 113.746 28.4233 113.545 28.2861 113.308V107.539H29.1359H29.7534C30.0437 107.539 30.3393 107.555 30.6349 107.576C30.9358 107.586 31.2049 107.634 31.4583 107.687C31.7169 107.745 31.8858 107.824 31.965 107.914C32.0759 108.024 32.155 108.135 32.192 108.246C32.2342 108.357 32.2659 108.468 32.2923 108.573C32.3187 108.69 32.3556 108.795 32.3978 108.906C32.4348 109.006 32.4928 109.091 32.5615 109.159C32.5878 109.186 32.6248 109.196 32.6565 109.18C32.6881 109.165 32.7092 109.138 32.7092 109.101C32.7356 108.837 32.7673 108.579 32.799 108.325C32.8412 108.072 32.8729 107.808 32.9151 107.534C32.9415 107.322 32.9679 107.106 32.9943 106.89C33.0259 106.673 33.0523 106.457 33.0787 106.23C33.0787 106.145 33.0418 106.124 32.9784 106.145C32.8676 106.177 32.762 106.209 32.6459 106.251C32.5351 106.293 32.4295 106.341 32.3134 106.399C32.1656 106.467 32.0125 106.536 31.87 106.599C31.7222 106.663 31.6061 106.689 31.5058 106.689H28.2597V100.841H30.466C31.0888 100.841 31.6008 100.946 31.9967 101.163C32.3978 101.379 32.6301 101.823 32.6776 102.503C32.6776 102.54 32.704 102.561 32.7515 102.572C32.7937 102.577 32.8306 102.561 32.8412 102.525C32.857 102.456 32.8676 102.393 32.8834 102.345C32.894 102.298 32.9151 102.239 32.9257 102.166C33.0048 101.812 33.084 101.437 33.1579 101.052C33.2371 100.667 33.3004 100.281 33.3374 99.9012C33.3374 99.8009 33.2951 99.7798 33.216 99.8326C33.1315 99.8748 32.9679 99.9065 32.7251 99.9329C32.4876 99.9593 32.192 99.9804 31.8594 100.002C31.5216 100.012 31.1416 100.023 30.7246 100.028C30.3024 100.033 29.8696 100.033 29.4315 100.033C28.8509 100.033 28.2439 100.033 27.6105 100.028C26.9771 100.023 26.4281 100.012 25.9795 100.002H24.718C24.6916 100.002 24.6705 100.012 24.6599 100.038C24.6441 100.075 24.6494 100.097 24.6758 100.128C24.8236 100.239 24.9713 100.318 25.1033 100.36C25.23 100.408 25.3725 100.445 25.5044 100.471C25.6311 100.503 25.742 100.535 25.8475 100.566C25.9478 100.598 26.0428 100.651 26.1273 100.719C26.2117 100.788 26.2751 100.883 26.3226 101.004C26.3701 101.121 26.3965 101.284 26.3965 101.49V113.187C26.3965 113.435 26.3806 113.677 26.3437 113.915C26.312 114.158 26.2434 114.374 26.1484 114.554C26.0481 114.744 25.9109 114.897 25.7314 115.013C25.5572 115.129 25.3092 115.203 25.0136 115.208V115.377C25.4569 115.351 25.895 115.335 26.3331 115.335H27.658C28.0961 115.335 28.5342 115.34 28.9564 115.345C29.384 115.351 29.8168 115.356 30.2549 115.356C30.6982 115.372 31.1416 115.377 31.5797 115.377H33.2054C33.2899 115.377 33.3426 115.308 33.3585 115.192C33.3585 115.192 33.6804 113.044 33.7491 112.706L33.6065 112.69C33.4746 113.308 33.1579 113.794 32.6829 114.137ZM66.8014 107.776C66.0097 107.755 65.2074 107.755 64.3892 107.755C64.347 107.755 64.3206 107.771 64.3048 107.803C64.2942 107.84 64.3048 107.871 64.347 107.892C64.4579 107.961 64.5634 108.014 64.6743 108.051C64.7851 108.093 64.8959 108.125 65.0015 108.151C65.2654 108.23 65.4924 108.331 65.6982 108.447C65.8988 108.558 66.0044 108.779 66.0044 109.096V113.625C65.6718 113.957 65.2865 114.174 64.822 114.274C64.3576 114.374 63.9036 114.427 63.4603 114.427C62.4099 114.427 61.444 114.232 60.5414 113.836C59.6388 113.44 58.8576 112.907 58.2084 112.226C57.5486 111.556 57.0314 110.759 56.6461 109.851C56.2607 108.953 56.0707 107.993 56.0707 106.969C56.0707 106.029 56.2502 105.174 56.5933 104.388C56.9364 103.601 57.4061 102.931 58.0026 102.377C58.599 101.817 59.3063 101.384 60.1086 101.078C60.9162 100.772 61.7871 100.619 62.7213 100.619C63.2808 100.619 63.8139 100.677 64.3365 100.809C64.8484 100.936 65.3076 101.136 65.7246 101.416C66.1363 101.691 66.49 102.034 66.775 102.445C67.06 102.862 67.25 103.364 67.3609 103.934C67.3767 103.971 67.4084 103.992 67.4559 103.981C67.5034 103.976 67.5245 103.955 67.5245 103.913C67.5456 103.834 67.5509 103.749 67.572 103.659C67.5826 103.575 67.5931 103.485 67.609 103.39C67.6829 102.926 67.7462 102.456 67.8148 101.991C67.8887 101.527 67.9362 101.057 67.9573 100.572C67.9573 100.519 67.9309 100.492 67.8782 100.492C67.6037 100.466 67.3398 100.434 67.0706 100.397C66.8067 100.355 66.5375 100.313 66.2736 100.276C65.6771 100.197 65.0648 100.123 64.4473 100.054C63.835 99.9857 63.2175 99.9593 62.6105 99.9593C61.4704 99.9593 60.3989 100.112 59.396 100.429C58.3932 100.74 57.5117 101.21 56.7622 101.828C56.0074 102.456 55.411 103.227 54.9781 104.145C54.54 105.063 54.3289 106.114 54.3289 107.307C54.3289 108.336 54.4925 109.323 54.8145 110.247C55.1418 111.176 55.6062 112.004 56.208 112.738C56.815 113.466 57.5486 114.057 58.4037 114.511C59.2641 114.965 60.23 115.235 61.3015 115.319C61.9137 115.361 62.5102 115.382 63.1066 115.382C63.5078 115.382 63.9036 115.372 64.3206 115.351C64.7323 115.335 65.144 115.287 65.5557 115.213C65.9727 115.145 66.3739 115.029 66.7592 114.886C67.1445 114.738 67.4981 114.543 67.8254 114.3C67.8518 114.274 67.8676 114.253 67.8676 114.237V109.154C67.8676 108.763 68.0101 108.494 68.2793 108.341C68.5538 108.188 68.8705 108.072 69.2294 108.009L69.203 107.845C68.4007 107.813 67.5984 107.787 66.8014 107.776ZM96.1273 108.69C95.8317 108.331 95.4992 107.993 95.1191 107.666C94.7444 107.344 94.3696 107.027 93.9949 106.71C93.6465 106.436 93.3034 106.156 92.9815 105.871C92.6489 105.586 92.3639 105.301 92.1158 104.995C91.8625 104.699 91.6619 104.398 91.5088 104.092C91.3558 103.781 91.2766 103.448 91.2766 103.089C91.2766 102.751 91.3399 102.435 91.4666 102.144C91.5986 101.854 91.7675 101.606 91.9944 101.406C92.2161 101.2 92.4747 101.036 92.7809 100.915C93.0817 100.799 93.409 100.74 93.7574 100.74C94.0952 100.74 94.4013 100.799 94.6758 100.93C94.9502 101.057 95.1878 101.216 95.3989 101.421C95.61 101.627 95.7842 101.87 95.9214 102.144C96.0639 102.424 96.1642 102.72 96.2329 103.037C96.2434 103.073 96.2751 103.089 96.3226 103.084C96.3701 103.073 96.3965 103.052 96.3965 103.015C96.3965 102.989 96.3965 102.963 96.407 102.941C96.4123 102.926 96.4229 102.899 96.4229 102.873C96.4862 102.451 96.5443 102.028 96.5918 101.606C96.6393 101.184 96.6815 100.762 96.7237 100.339C96.7237 100.287 96.7026 100.265 96.6604 100.265C96.0428 100.091 95.3883 100.007 94.6863 100.007C94.1796 100.007 93.6254 100.065 93.029 100.186C92.4325 100.318 91.8836 100.519 91.3716 100.793C90.8649 101.073 90.4321 101.427 90.089 101.865C89.7353 102.298 89.5664 102.82 89.5664 103.427C89.5664 103.823 89.6562 104.224 89.8462 104.609C90.0362 105.011 90.2737 105.396 90.5746 105.781C90.8702 106.161 91.2027 106.536 91.5774 106.895C91.9522 107.259 92.3322 107.618 92.707 107.977C93.0659 108.304 93.4195 108.637 93.7679 108.985C94.1163 109.328 94.433 109.671 94.7022 110.014C94.9819 110.357 95.2036 110.706 95.3725 111.049C95.5361 111.403 95.6206 111.74 95.6206 112.068C95.6206 112.426 95.5308 112.748 95.3514 113.049C95.1719 113.345 94.9344 113.593 94.6599 113.799C94.3749 113.999 94.0582 114.158 93.7098 114.269C93.3615 114.385 93.0184 114.438 92.6859 114.438C92.2847 114.438 91.9152 114.379 91.5774 114.269C91.2396 114.158 90.9493 113.994 90.6907 113.783C90.4373 113.567 90.242 113.308 90.0995 112.991C89.9623 112.675 89.8884 112.31 89.8884 111.899V111.688C89.8884 111.645 89.862 111.619 89.8145 111.619C89.7723 111.614 89.7406 111.629 89.7301 111.666C89.6984 111.777 89.6773 111.883 89.6614 111.999C89.6403 112.11 89.6139 112.221 89.5928 112.321C89.54 112.516 89.4873 112.727 89.4398 112.933C89.3922 113.144 89.3711 113.371 89.3711 113.609C89.3711 113.941 89.4503 114.216 89.5981 114.432C89.7512 114.649 89.9465 114.828 90.1945 114.965C90.4321 115.103 90.7012 115.203 90.9968 115.266C91.2924 115.324 91.5774 115.351 91.8625 115.351C92.4272 115.351 93.0184 115.256 93.6412 115.055C94.2693 114.86 94.8341 114.575 95.3514 114.211C95.8634 113.836 96.2909 113.398 96.6287 112.891C96.9665 112.384 97.1301 111.814 97.1301 111.181C97.1301 110.695 97.0351 110.241 96.8557 109.835C96.6604 109.428 96.4229 109.043 96.1273 108.69ZM0 94.6283H140V93.3298H0V94.6283ZM111.967 74.0959C111.603 66.3475 117.594 60.04 125.348 60.04C133.101 60.04 139.641 66.3475 139.947 74.0959C140.259 81.8233 134.268 88.0621 126.567 88.0621C118.866 88.0621 112.331 81.8233 111.967 74.0959ZM116.026 77.9279C116.528 79.5378 117.24 80.9787 118.196 82.2561C119.146 83.5334 120.307 84.5732 121.695 85.3861C123.083 86.1884 124.661 86.5895 126.44 86.5895C128.098 86.5895 129.575 86.2728 130.858 85.6342C132.146 84.9955 133.233 84.1457 134.104 83.0742C134.986 82.008 135.645 80.7623 136.099 79.353C136.537 77.949 136.764 76.4659 136.764 74.8929C136.764 73.2831 136.527 71.6838 136.041 70.095C135.556 68.5063 134.859 67.0759 133.925 65.8038C132.996 64.5265 131.85 63.4919 130.483 62.6949C129.111 61.9032 127.533 61.502 125.754 61.502C124.07 61.502 122.577 61.8082 121.278 62.4205C119.98 63.0327 118.882 63.8614 117.995 64.9118C117.103 65.9569 116.427 67.1867 115.973 68.5907C115.514 70 115.282 71.499 115.282 73.0878C115.287 74.6976 115.535 76.3128 116.026 77.9279ZM60.4517 60.04C68.2054 60.04 74.7451 66.3475 75.0566 74.0959C75.368 81.8233 69.3719 88.0621 61.6709 88.0621C53.97 88.0621 47.4303 81.818 47.0713 74.0959C46.7071 66.3422 52.6979 60.04 60.4517 60.04ZM60.8581 61.502C59.1743 61.502 57.6806 61.8082 56.3821 62.4205C55.089 63.0327 53.9911 63.8614 53.1044 64.9118C52.2071 65.9569 51.5367 67.1867 51.0828 68.5907C50.6236 70 50.3966 71.499 50.3966 73.0878C50.3966 74.6976 50.6447 76.3128 51.1356 77.9279C51.637 79.5378 52.3548 80.9787 53.3102 82.2561C54.255 83.5334 55.4215 84.5732 56.8044 85.3861C58.1926 86.1884 59.7708 86.5895 61.5548 86.5895C63.2122 86.5895 64.6901 86.2728 65.9727 85.6342C67.2606 84.9955 68.3479 84.1457 69.2241 83.0742C70.1056 82.008 70.7601 80.7623 71.214 79.353C71.6521 77.949 71.8791 76.4659 71.8791 74.8929C71.8791 73.2831 71.6415 71.6838 71.1612 70.095C70.6756 68.5063 69.9789 67.0759 69.0446 65.8038C68.1157 64.5265 66.9703 63.4919 65.5979 62.6949C64.2203 61.8979 62.6421 61.502 60.8581 61.502ZM86.5948 114.533C86.2834 114.211 86.1303 113.699 86.1303 113.065L86.1461 101.311C86.1461 100.925 86.2834 100.624 86.5578 100.408C86.8323 100.197 87.1543 100.054 87.529 100.044C87.5713 100.044 87.5871 100.017 87.5871 99.9593C87.5871 99.9012 87.566 99.8801 87.529 99.8801C87.4551 99.8801 87.3812 99.8854 87.2968 99.8854C87.2176 99.896 86.7531 99.9593 86.125 99.9593C85.803 99.9593 85.4864 99.9646 85.1749 99.9646C84.7632 99.9646 83.3487 99.9487 82.6731 99.8801V100.044C83.0584 100.06 83.4173 100.155 83.7551 100.371C84.0929 100.587 84.2618 100.904 84.2618 101.326V113.329C84.2618 113.646 84.246 113.947 84.2196 114.137C84.1932 114.332 84.1298 114.49 84.0296 114.601C83.9398 114.717 83.7973 114.812 83.6126 114.891C83.4226 114.965 83.1745 115.034 82.8525 115.087C82.8103 115.103 82.7944 115.134 82.7997 115.182C82.805 115.235 82.8261 115.256 82.8736 115.256C82.9106 115.256 84.1668 115.203 85.4177 115.203C86.6212 115.203 87.8246 115.256 87.9566 115.256C87.9988 115.256 88.0199 115.229 88.0199 115.176C88.0199 115.118 88.0041 115.092 87.9566 115.092C87.3601 115.039 86.9062 114.849 86.5948 114.533ZM49.721 100.033C48.829 100.033 47.4408 99.9804 47.3405 99.9804C47.3089 99.9804 47.293 100.007 47.293 100.065C47.293 100.123 47.3194 100.128 47.3405 100.149C47.483 100.323 48.5756 100.287 48.8923 100.704C49.1668 101.068 49.1985 101.501 49.1985 102.134L49.1826 111.703L37.7816 100.133C37.6919 100.065 37.5758 99.9751 37.4174 99.9751C37.296 99.9751 37.2802 100.144 37.2802 100.218V113.398C37.2802 113.714 37.2696 113.852 37.2485 114.047C37.2274 114.242 37.1799 114.474 37.106 114.591C37.0374 114.707 36.9318 114.802 36.7946 114.881C36.6521 114.955 36.2826 115.045 36.0556 115.103C35.9554 115.129 35.9395 115.171 35.9448 115.219C35.9448 115.271 35.9659 115.356 35.9976 115.356C36.024 115.356 37.2116 115.308 38.1458 115.308C39.0379 115.308 40.426 115.356 40.5263 115.356C40.5633 115.356 40.5738 115.33 40.5738 115.277C40.5738 115.219 40.5474 115.213 40.5263 115.187C40.3838 115.013 39.2912 115.05 38.9692 114.633C38.6948 114.269 38.6684 113.762 38.6684 113.129L38.6842 103.559C38.6842 103.559 50.0008 115.066 50.233 115.261C50.4705 115.451 50.5919 115.33 50.5919 115.203V101.859C50.5919 101.543 50.6025 101.406 50.6236 101.21C50.6447 101.015 50.6922 100.862 50.7661 100.746C50.8347 100.63 50.9403 100.535 51.0775 100.455C51.2147 100.382 51.5948 100.292 51.8217 100.234C51.9168 100.207 51.9379 100.16 51.9326 100.118C51.9273 100.065 51.9115 99.9751 51.8798 99.9751C51.8376 99.9804 50.65 100.033 49.721 100.033ZM79.0205 114.042C78.4188 114.443 77.759 114.638 77.0465 114.638C76.6717 114.638 76.3339 114.58 76.0119 114.474C75.6952 114.364 75.4208 114.205 75.1885 113.999C74.951 113.794 74.7663 113.54 74.629 113.234C74.4918 112.933 74.4232 112.585 74.4232 112.2V101.77C74.4232 101.332 74.5868 100.973 74.9088 100.704C75.2307 100.44 75.5949 100.218 75.9961 100.149C76.0383 100.133 76.0489 100.107 76.0436 100.06C76.033 100.012 76.0119 99.9857 75.9697 99.9857C75.5738 100.012 75.1674 100.038 74.761 100.07C74.3545 100.097 73.9481 100.107 73.5311 100.107C72.6497 100.107 71.7893 100.023 70.9448 99.9857V100.149C71.3935 100.16 71.8104 100.403 72.0744 100.682C72.3594 100.983 72.5388 101.321 72.5388 101.791V113.176C72.5388 113.366 72.5072 113.577 72.4438 113.804C72.3858 114.031 72.296 114.237 72.1799 114.438C72.0638 114.628 71.9424 114.802 71.7682 114.939C71.5993 115.076 71.3776 115.187 71.1771 115.198C71.1348 115.198 71.119 115.224 71.119 115.282C71.119 115.34 71.1348 115.361 71.1771 115.361C71.3407 115.351 72.1535 115.298 72.333 115.287C73.4625 115.245 74.6026 115.219 75.7427 115.219C77.1362 115.219 78.5296 115.24 79.9389 115.356C79.9653 115.356 80.055 115.34 80.0867 115.213C80.1237 115.076 80.2451 114.712 80.3717 113.984C80.4984 113.255 80.5459 112.601 80.5565 112.537L80.3929 112.474C80.0762 113.123 79.617 113.64 79.0205 114.042ZM113.899 114.638C113.588 114.316 113.435 113.804 113.435 113.171L113.456 101.416C113.456 101.036 113.588 100.73 113.867 100.519C114.142 100.302 114.464 100.165 114.839 100.155C114.881 100.155 114.902 100.123 114.902 100.07C114.902 100.012 114.881 99.9857 114.839 99.9857C114.765 99.9857 114.691 99.991 114.612 99.9962C114.533 100.007 114.063 100.065 113.435 100.065C113.118 100.065 112.796 100.075 112.485 100.075C112.073 100.075 110.664 100.06 109.983 99.9857V100.155C110.368 100.165 110.727 100.26 111.07 100.477C111.408 100.693 111.577 101.01 111.577 101.432V106.409H102.947L102.952 101.411C102.952 101.031 103.089 100.725 103.364 100.514C103.643 100.297 103.96 100.16 104.34 100.149C104.382 100.149 104.398 100.118 104.398 100.065C104.398 100.007 104.377 99.9804 104.34 99.9804C104.266 99.9804 104.192 99.9857 104.108 99.991C104.029 100.002 103.559 100.06 102.931 100.06C102.614 100.06 102.298 100.07 101.981 100.07C101.569 100.07 100.155 100.054 99.479 99.9804V100.149C99.8643 100.16 100.223 100.255 100.561 100.471C100.899 100.688 101.068 101.004 101.068 101.427V113.429C101.068 113.751 101.052 114.042 101.025 114.237C100.999 114.432 100.936 114.591 100.835 114.707C100.746 114.823 100.603 114.918 100.418 114.997C100.228 115.071 99.9804 115.14 99.6584 115.192C99.6162 115.203 99.6004 115.24 99.6056 115.282C99.6109 115.335 99.632 115.356 99.6795 115.356C99.7112 115.356 100.967 115.303 102.224 115.303C103.427 115.303 104.625 115.356 104.762 115.356C104.81 115.356 104.826 115.33 104.826 115.277C104.826 115.219 104.81 115.192 104.762 115.192C104.161 115.14 103.702 114.949 103.395 114.633C103.084 114.311 102.931 113.799 102.931 113.165L102.941 107.254H111.571V113.435C111.571 113.757 111.561 114.047 111.534 114.242C111.508 114.438 111.445 114.596 111.344 114.712C111.249 114.828 111.112 114.923 110.927 115.002C110.737 115.076 110.489 115.145 110.167 115.198C110.125 115.208 110.109 115.245 110.12 115.287C110.125 115.34 110.146 115.361 110.189 115.361C110.225 115.361 111.482 115.308 112.733 115.308C113.936 115.308 115.139 115.361 115.271 115.361C115.319 115.361 115.335 115.335 115.335 115.282C115.335 115.224 115.319 115.198 115.271 115.198C114.664 115.14 114.211 114.949 113.899 114.638Z"
                                fill="white" />
                        </svg>