<svg width="32" height="23" viewBox="0 0 32 23" fill="none" xmlns="http://www.w3.org/2000/svg">
<path fill-rule="evenodd" clip-rule="evenodd" d="M0 1.33333C0 0.596954 0.596954 0 1.33333 0H30.6667C31.403 0 32 0.596954 32 1.33333C32 2.06971 31.403 2.66667 30.6667 2.66667H1.33333C0.596954 2.66667 0 2.06971 0 1.33333Z" fill="white"/>
<path fill-rule="evenodd" clip-rule="evenodd" d="M0 11.0304C0 10.294 0.596954 9.69702 1.33333 9.69702H30.6667C31.403 9.69702 32 10.294 32 11.0304C32 11.7667 31.403 12.3637 30.6667 12.3637H1.33333C0.596954 12.3637 0 11.7667 0 11.0304Z" fill="white"/>
<path fill-rule="evenodd" clip-rule="evenodd" d="M0 21.3333C0 20.597 0.596954 20 1.33333 20H30.6667C31.403 20 32 20.597 32 21.3333C32 22.0697 31.403 22.6667 30.6667 22.6667H1.33333C0.596954 22.6667 0 22.0697 0 21.3333Z" fill="white"/>
</svg>
