<svg width="104" height="139" viewBox="0 0 104 139" fill="none" xmlns="http://www.w3.org/2000/svg">
<g clip-path="url(#clip0_1815_905)">
<path d="M95.36 101.5L87.32 86.11C86.84 85.2 85.72 84.85 84.81 85.32L73.83 91.05C65.41 74.27 69.07 50.93 69.11 50.7C69.24 49.93 68.87 49.16 68.19 48.78L9.63002 15.71H9.62002C9.61001 15.71 9.61002 15.7 9.60002 15.7C9.57002 15.69 9.55002 15.68 9.52002 15.67C9.47002 15.65 9.42002 15.63 9.37002 15.61C9.34002 15.6 9.31001 15.58 9.28001 15.57C9.24002 15.56 9.20002 15.55 9.16002 15.54C9.16002 15.54 9.16002 15.54 9.15001 15.54C9.07001 15.51 9.00002 15.49 8.92002 15.48H8.91002C8.87002 15.48 8.83002 15.48 8.78001 15.48C8.71002 15.48 8.64001 15.47 8.57001 15.48C8.56001 15.48 8.55002 15.48 8.55002 15.48C8.49002 15.49 8.43002 15.5 8.37002 15.51C8.35001 15.51 8.33002 15.52 8.31002 15.52C8.28002 15.53 8.25002 15.53 8.22002 15.54C8.21002 15.54 8.20002 15.55 8.19001 15.55C8.13001 15.57 8.07002 15.6 8.01002 15.62C7.97002 15.64 7.92002 15.65 7.88002 15.67C7.87002 15.67 7.87002 15.67 7.86002 15.68C7.86002 15.68 7.86002 15.68 7.85002 15.69C7.80002 15.72 7.75002 15.76 7.70002 15.79C7.66002 15.82 7.61002 15.84 7.57002 15.88C7.52002 15.92 7.47002 15.97 7.42002 16.02L7.41002 16.03C7.37002 16.07 7.34002 16.1 7.30002 16.14C7.29002 16.15 7.29002 16.15 7.28002 16.16C7.24002 16.21 7.21002 16.26 7.17002 16.32C7.16002 16.33 7.16002 16.34 7.15002 16.35C7.13002 16.38 7.11002 16.4 7.09002 16.44V16.45C7.09002 16.46 7.08002 16.46 7.08002 16.47C7.04002 16.54 7.02002 16.61 6.99002 16.68C6.98002 16.72 6.95002 16.75 6.94002 16.79C6.94002 16.8 6.94002 16.81 6.93002 16.82C6.91002 16.87 6.91002 16.93 6.90002 16.98C6.89002 17.03 6.87002 17.09 6.87002 17.14V17.15V17.16L0.0100155 84.38C-0.0699845 85.16 0.350015 85.91 1.06002 86.25C1.28002 86.35 22.5 96.65 31.48 113.18L18.85 119.78C17.94 120.26 17.59 121.38 18.06 122.29L26.1 137.68C26.58 138.59 27.7 138.94 28.61 138.47L94.57 104.02C95.48 103.54 95.83 102.42 95.36 101.5ZM3.84002 83.48L9.94001 23.68L27.74 57.76C27.77 57.81 27.8 57.85 27.83 57.89C23.26 61.28 21.69 67.59 24.4 72.79C27.41 78.55 34.54 80.79 40.3 77.78C46.06 74.77 48.3 67.64 45.29 61.88C42.57 56.68 36.5 54.36 31.1 56.18C31.08 56.13 31.07 56.08 31.04 56.03L13.28 22.03L65.25 51.4C64.55 56.73 62.6 77.05 70.53 92.78L34.78 111.45C26.4 95.97 8.63002 85.97 3.84002 83.48ZM31.11 60.2C35.05 58.14 39.93 59.67 41.99 63.61C44.05 67.55 42.52 72.43 38.58 74.49C34.64 76.55 29.76 75.02 27.7 71.08C25.64 67.14 27.17 62.26 31.11 60.2ZM28.53 134.3L22.21 122.21L84.87 89.48L91.19 101.57L28.53 134.3Z" fill="white"/>
<path d="M88.45 46.99C88.45 46.99 90.14 33.73 76.87 32.04C76.87 32.04 90.13 33.73 91.82 20.46C91.82 20.46 90.13 33.72 103.4 35.41C103.4 35.42 90.14 33.73 88.45 46.99Z" stroke="white" stroke-width="2" stroke-miterlimit="10"/>
<path d="M57.83 15.46C57.83 15.46 55.39 7.88005 47.81 10.32C47.81 10.32 55.39 7.88005 52.95 0.300049C52.95 0.300049 55.39 7.88005 62.97 5.44005C62.96 5.44005 55.38 7.89005 57.83 15.46Z" stroke="white" stroke-width="2" stroke-miterlimit="10"/>
</g>
<defs>
<clipPath id="clip0_1815_905">
<rect width="103.53" height="138.68" fill="white"/>
</clipPath>
</defs>
</svg>
