<svg width="52" height="70" viewBox="0 0 52 70" fill="none" xmlns="http://www.w3.org/2000/svg">
<path d="M51.46 0.98C51.44 0.9 51.44 0.82 51.41 0.75C51.41 0.74 51.41 0.73 51.4 0.72C51.35 0.61 51.28 0.52 51.21 0.44C51.19 0.42 51.19 0.4 51.17 0.38C51.07 0.27 50.95 0.19 50.82 0.13C50.78 0.11 50.74 0.11 50.71 0.09C50.61 0.05 50.5 0.02 50.39 0.02C50.37 0.01 50.35 0 50.33 0C50.24 0 50.15 0 50.06 0.02C49.97 0.04 49.89 0.06 49.8 0.1L33.31 7.47C33.28 7.48 33.26 7.51 33.23 7.52C33.16 7.56 33.1 7.61 33.03 7.66C32.97 7.71 32.91 7.77 32.86 7.83C32.84 7.86 32.81 7.87 32.79 7.9L0.209993 56.45C-0.160007 57.01 -0.0100065 57.76 0.539993 58.13L16.47 68.82C17.03 69.19 17.78 69.05 18.15 68.49L25.28 57.87L50.74 19.94C50.76 19.91 50.76 19.88 50.78 19.85C50.82 19.78 50.85 19.71 50.87 19.63C50.9 19.55 50.92 19.47 50.93 19.39C50.93 19.36 50.95 19.33 50.95 19.3L51.5 1.25C51.5 1.24 51.49 1.23 51.5 1.22C51.5 1.14 51.47 1.06 51.46 0.98ZM10.02 46.17L34.13 10.25L40.08 14.25L15.98 50.17L10.02 46.17ZM36.29 8.79L49.02 3.1L48.59 17.03L36.29 8.79ZM16.81 66.14L2.88999 56.79L8.66999 48.18L15.63 52.85L22.59 57.52L16.81 66.14ZM23.94 55.52L17.99 51.52L42.1 15.6L48.05 19.6L23.94 55.52Z" fill="white"/>
</svg>
