<svg width="112" height="112" viewBox="0 0 112 112" fill="none" xmlns="http://www.w3.org/2000/svg">
<path opacity="0.75" d="M71.3383 23.7368C67.6842 22.4477 63.7303 22.0814 59.906 22.6775C51.381 24.0064 44.2872 29.8375 41.3957 37.8903C41.0002 38.9851 40.3502 40.8034 40.3703 56.8351L40.342 56.9154C39.9183 58.0907 39.9669 59.3189 40.3851 60.3983C40.3941 61.896 40.4074 63.3881 40.4278 64.8283C40.4569 67.3055 41.4762 69.6232 43.1645 71.3252C43.0386 71.8259 42.9647 72.3338 42.9322 72.8453C42.8507 72.8783 42.7741 72.9105 42.6933 72.9484C40.7981 73.8465 39.3607 75.4229 38.6526 77.392L37.614 80.2837C36.9052 82.2479 37.0113 84.3687 37.9122 86.2541C38.813 88.1396 40.3961 89.5591 42.372 90.259L51.3797 93.4334C52.6098 93.8646 53.9404 93.9914 55.2202 93.792C55.9721 93.6748 56.702 93.4496 57.3909 93.1244C59.2861 92.2263 60.7235 90.65 61.4274 88.6866L62.4652 85.7899C63.2222 83.6764 63.0029 81.4517 62.0412 79.6011C62.3442 79.1892 62.612 78.7473 62.8345 78.2771C62.9797 78.2595 63.1249 78.2419 63.2693 78.2194C65.5499 77.8639 67.6229 76.7001 69.0997 74.9505C70.0338 73.8426 70.9932 72.7003 71.9553 71.5425C73.0002 70.9491 73.8015 70.0037 74.2066 68.872L74.2348 68.7916C84.4748 56.3772 85.1297 54.5582 85.5252 53.4634C89.8665 41.3607 83.504 28.0295 71.3383 23.7368Z" fill="#CFD8DC"/>
<path d="M69.3932 21.5988C65.7392 20.3096 61.7853 19.9434 57.961 20.5395C49.436 21.8683 42.3422 27.6994 39.4507 35.7522C39.0552 36.8471 38.4052 38.6653 38.4253 54.697L38.397 54.7774C37.9733 55.9526 38.0219 57.1808 38.4401 58.2603C38.4491 59.758 38.4623 61.25 38.4828 62.6903C38.5119 65.1674 39.5312 67.4852 41.2195 69.1871C41.0935 69.6879 41.0197 70.1957 40.9872 70.7073C40.9056 70.7403 40.8291 70.7725 40.7483 70.8104C38.8531 71.7085 37.4157 73.2848 36.7076 75.2539L35.669 78.1457C34.9601 80.1098 35.0663 82.2306 35.9672 84.1161C36.868 86.0015 38.4511 87.421 40.427 88.1209L49.4346 91.2953C50.6648 91.7265 51.9954 91.8534 53.2751 91.6539C54.027 91.5367 54.757 91.3115 55.4459 90.9863C57.341 90.0882 58.7785 88.5119 59.4824 86.5485L60.5202 83.6518C61.2772 81.5383 61.0579 79.3136 60.0962 77.463C60.3992 77.0511 60.667 76.6093 60.8895 76.139C61.0347 76.1214 61.1799 76.1039 61.3243 76.0814C63.6049 75.7259 65.6779 74.562 67.1547 72.8124C68.0888 71.7045 69.0482 70.5623 70.0102 69.4044C71.0552 68.8111 71.8565 67.8657 72.2615 66.7339L72.2898 66.6535C82.5297 54.2392 83.1847 52.4202 83.5802 51.3253C87.9207 39.2177 81.5582 25.8865 69.3932 21.5988Z" fill="white"/>
<path d="M77.1873 49.3489C80.3921 40.4268 75.7132 30.6317 66.7427 27.4667C57.7723 24.3016 47.8911 28.9718 44.6855 37.889C43.8857 40.1206 43.9997 56.558 44.0731 62.6901C44.0893 64.0702 44.9689 65.2955 46.2799 65.7546L58.1808 69.9519C59.4918 70.411 60.9503 70.0165 61.8458 68.9551C65.8142 64.2443 76.3825 51.5812 77.1873 49.3489Z" fill="#BCDAF2" stroke="#2576B9" stroke-width="2" stroke-miterlimit="10"/>
<path d="M44.1475 55.9021L66.065 63.6276" stroke="#2576B9" stroke-width="2" stroke-miterlimit="10"/>
<path d="M51.0716 58.3426C51.0716 58.3426 50.6361 46.8123 57.8892 26.6233L51.0716 58.3426Z" fill="#BCDAF2"/>
<path d="M51.0716 58.3426C51.0716 58.3426 50.6361 46.8123 57.8892 26.6233" stroke="#2576B9" stroke-width="2" stroke-miterlimit="10"/>
<path d="M59.1952 61.2092C59.1952 61.2092 66.8829 52.5456 74.1401 32.3508L59.1952 61.2092Z" fill="#BCDAF2"/>
<path d="M59.1952 61.2092C59.1952 61.2092 66.8829 52.5456 74.1401 32.3508" stroke="#2576B9" stroke-width="2" stroke-miterlimit="10"/>
<path d="M46.6853 70.5483L48.1683 66.4174L56.2914 69.2839L54.8084 73.4148C54.4282 74.4768 53.2503 75.0352 52.1769 74.6606L47.9289 73.1602C46.8605 72.7848 46.3009 71.6161 46.6853 70.5483Z" fill="#BCDAF2" stroke="#2576B9" stroke-width="2" stroke-miterlimit="10"/>
<path d="M50.9278 85.5924L41.9202 82.4181C41.0407 82.1095 40.5847 81.1475 40.8973 80.2732L41.9359 77.3815C42.2485 76.5073 43.2181 76.0523 44.0976 76.3609L53.1052 79.5352C53.9847 79.8437 54.4407 80.8058 54.1281 81.6801L53.0895 84.5717C52.7769 85.446 51.8073 85.901 50.9278 85.5924Z" fill="#BCDAF2" stroke="#2576B9" stroke-width="2" stroke-miterlimit="10"/>
</svg>
