<svg width="131" height="131" viewBox="0 0 131 131" fill="none" xmlns="http://www.w3.org/2000/svg">
<g clip-path="url(#clip0_4804_4513)">
<path opacity="0.75" d="M103.376 80.7378L82.0238 59.8753C84.5697 58.8581 86.6194 56.9572 87.8117 54.4522C89.0707 51.8142 89.2289 48.8451 88.2696 46.0854C86.7943 41.8419 82.926 38.9793 78.5113 38.7728C79.0508 37.9311 79.4144 36.9849 79.5431 35.9783C81.2323 34.2163 81.8962 31.5755 81.0313 29.0976C80.1664 26.6272 78.0126 24.98 75.6041 24.6648C74.3524 23.4441 72.6505 22.7546 70.8872 22.7757C70.1892 22.7871 69.476 22.9096 68.7772 23.1506C67.9679 23.4356 67.2536 23.8765 66.6418 24.4068C64.746 22.5535 62.164 21.4672 59.394 21.5057C58.2919 21.5226 57.2038 21.7173 56.1592 22.0826L43.2259 26.6714C37.9142 28.5492 35.1148 34.4311 36.9753 39.7799C37.1061 40.1583 37.2664 40.5145 37.434 40.8708C36.9709 40.9279 36.5003 41.0293 36.0368 41.1974C32.7925 42.3445 30.9868 45.7723 31.7678 49.0718C28.7206 50.5162 27.1936 54.0786 28.3347 57.3503C29.3086 60.1397 31.9248 61.878 34.7021 61.8395C35.1797 61.8344 35.6648 61.7701 36.1502 61.6539C37.2798 64.0664 39.6987 65.5371 42.2556 65.4975C42.9536 65.4861 43.6667 65.3636 44.3656 65.1226C45.7854 64.6184 46.9278 63.6833 47.6963 62.5168L42.7188 102.153C42.2264 106.069 43.7548 109.883 46.7943 112.364C48.8305 114.025 51.3838 114.919 53.9848 114.88C55.1971 114.863 56.3954 114.647 57.5431 114.245L99.2708 99.5077C102.964 98.2071 105.665 95.1243 106.502 91.2771C107.362 87.4226 106.186 83.4843 103.376 80.7378Z" fill="#CFD8DC"/>
<path d="M100.609 78.0285L79.2647 57.166C81.8106 56.1488 83.8602 54.2479 85.0526 51.7429C86.3116 49.105 86.4698 46.1359 85.5105 43.3761C84.0352 39.1326 80.1669 36.27 75.7522 36.0636C76.2917 35.2219 76.6553 34.2756 76.784 33.269C78.4731 31.5071 79.137 28.8662 78.2722 26.3884C77.4073 23.9179 75.2535 22.2708 72.8449 21.9555C71.5932 20.7349 69.8914 20.0453 68.128 20.0664C67.43 20.0779 66.7169 20.2003 66.018 20.4414C65.2088 20.7263 64.4945 21.1673 63.8827 21.6976C61.9868 19.8591 59.4048 18.7727 56.6348 18.8112C55.5327 18.8281 54.4447 19.0229 53.4 19.3881L40.4594 23.9621C35.1478 25.8399 32.3483 31.7218 34.2088 37.0706C34.3396 37.449 34.4999 37.8052 34.6675 38.1615C34.2044 38.2186 33.7338 38.32 33.2704 38.4881C30.026 39.6352 28.2203 43.063 29.0013 46.3626C25.9542 47.8069 24.4272 51.3693 25.5682 54.641C26.5421 57.4304 29.1584 59.1687 31.9356 59.1302C32.4132 59.1251 32.8984 59.0608 33.3837 58.9446C34.5133 61.3571 36.9322 62.8278 39.4891 62.7883C40.1871 62.7768 40.9002 62.6543 41.5991 62.4133C43.019 61.9091 44.1613 60.974 44.9298 59.8075L39.9523 99.4439C39.4599 103.359 40.9883 107.174 44.0278 109.655C46.064 111.316 48.6173 112.21 51.2183 112.17C52.4306 112.154 53.629 111.937 54.7766 111.536L96.5044 96.7984C100.197 95.4979 102.898 92.4151 103.736 88.5679C104.595 84.7134 103.42 80.775 100.609 78.0285Z" fill="white"/>
<path d="M76.6577 51.0064C78.85 50.2319 80.0054 47.8082 79.235 45.5974C78.4646 43.3867 76.0593 42.2197 73.8669 42.9942C71.6746 43.7687 70.5193 46.1924 71.2896 48.4031C72.0601 50.6065 74.4654 51.7734 76.6577 51.0064ZM74.71 45.4127C75.5781 45.1058 76.5314 45.5696 76.8367 46.445C77.1419 47.3204 76.6828 48.281 75.8147 48.5879C74.9466 48.8947 73.9932 48.431 73.688 47.5556C73.3827 46.6802 73.8419 45.7196 74.71 45.4127Z" fill="#2576B9"/>
<path d="M45.0236 37.0561L57.9642 32.4896C59.8108 31.8394 60.7884 29.7851 60.1416 27.9231C59.4948 26.061 57.4561 25.0735 55.6095 25.7238L42.6689 30.2903C40.8224 30.9406 39.8448 32.9948 40.4916 34.8569C41.1384 36.719 43.1771 37.7064 45.0236 37.0561ZM43.512 32.7014L56.4526 28.1349C56.9823 27.9449 57.5616 28.2291 57.7506 28.7633C57.9396 29.2974 57.6582 29.8811 57.1285 30.0712L44.1879 34.6377C43.6582 34.8277 43.0789 34.5435 42.8899 34.0093C42.7009 33.4752 42.9823 32.8914 43.512 32.7014Z" fill="#2576B9"/>
<path d="M95.984 82.8426L62.5181 50.1384L52.4098 53.7039L46.5611 100.283C46.3641 101.875 46.9827 103.425 48.2205 104.431C49.4583 105.437 51.0882 105.726 52.589 105.193L94.3241 90.4556C95.8249 89.9296 96.9243 88.6759 97.2609 87.1074C97.6048 85.5537 97.1259 83.9591 95.984 82.8426ZM54.739 55.6037L61.8824 53.083L72.6937 63.6446L52.8451 70.6515L54.739 55.6037ZM94.7797 86.5696C94.6301 87.2724 94.1505 87.8108 93.481 88.052L51.7532 102.789C51.0764 103.03 50.3789 102.901 49.8223 102.454C49.2656 102 49.0037 101.332 49.0872 100.621L52.4963 73.5012L74.7359 65.6467L94.2138 84.6782C94.7262 85.1769 94.9366 85.8667 94.7797 86.5696Z" fill="#2576B9"/>
<path d="M62.3057 48.0489L57.6761 34.762L46.6556 38.6564L51.2852 51.9433L62.3057 48.0489ZM49.8897 40.2199L56.1209 38.0207L59.0643 46.4779L52.8331 48.6772L49.8897 40.2199Z" fill="#2576B9"/>
<path d="M70.1824 32.4225C69.6373 30.8645 70.4519 29.165 71.9968 28.617C70.4519 29.165 68.7652 28.3422 68.2201 26.7843C68.7652 28.3422 67.9506 30.0417 66.4057 30.5897C67.9506 30.0417 69.6446 30.8646 70.1824 32.4225Z" fill="#2576B9"/>
<path d="M37.4194 56.4163C40.6898 56.4321 43.3511 53.7723 43.3636 50.4755C43.3761 47.1788 40.7351 44.4934 37.4647 44.4777C34.1944 44.4619 31.5331 47.1217 31.5205 50.4185C31.508 53.7152 34.149 56.4005 37.4194 56.4163Z" fill="#2576B9"/>
<path d="M54.7391 55.6037L61.8826 53.0756L72.6938 63.6445L52.8452 70.6515L54.7391 55.6037Z" fill="#D22329"/>
<path d="M94.7797 86.5694C94.6301 87.2722 94.1505 87.8106 93.4811 88.0518L51.7533 102.789C51.0765 103.03 50.379 102.901 49.8223 102.454C49.2657 101.999 49.0037 101.332 49.0873 100.621L52.4964 73.501L74.736 65.6465L94.2139 84.6781C94.7262 85.1767 94.9367 85.8665 94.7797 86.5694Z" fill="#D22329"/>
<path d="M56.1228 38.015L49.8913 40.2154L52.8372 48.6732L59.0687 46.4727L56.1228 38.015Z" fill="#D22329"/>
</g>
<defs>
<clipPath id="clip0_4804_4513">
<rect width="108" height="108" fill="white" transform="translate(0 25.3359) rotate(-13.5676)"/>
</clipPath>
</defs>
</svg>
