<svg width="120" height="120" viewBox="0 0 120 120" fill="none" xmlns="http://www.w3.org/2000/svg">
<g clip-path="url(#clip0_4804_4526)">
<path opacity="0.75" d="M103.394 52.8954L102.699 50.3146C101.689 46.5893 98.4838 44.0768 94.8715 43.7899C93.8707 43.7134 92.8368 43.8045 91.8112 44.0933L83.1388 46.5082C82.9193 46.5579 82.7113 46.6353 82.4962 46.7138C81.9899 45.799 81.4286 44.9077 80.8073 44.0555L85.3244 36.2709C87.8005 32.0047 86.3782 26.5385 82.1528 24.0632L79.8588 22.7181C78.6999 22.04 77.4151 21.6402 76.1028 21.5396C75.1163 21.4609 74.111 21.5474 73.1333 21.8139C70.8593 22.4197 68.9122 23.9174 67.7233 25.9652L63.2233 33.7176C62.8728 33.6776 62.5284 33.6292 62.1801 33.6036C61.6392 33.5645 61.1016 33.5469 60.5591 33.5449C60.5073 33.3025 60.4556 33.06 60.3835 32.8281L57.7157 23.7701C56.6468 20.1354 53.4783 17.7202 49.9398 17.4362C48.8795 17.3545 47.7752 17.4642 46.6897 17.7921L44.1411 18.5671C41.8864 19.251 39.9849 20.8077 38.8682 22.8956C37.7443 24.9847 37.4881 27.4296 38.1574 29.6974L40.3662 37.1915L36.1821 34.7465C35.0232 34.0685 33.7395 33.6758 32.4261 33.5681C31.4396 33.4894 30.4343 33.5759 29.4566 33.8423C27.1826 34.4482 25.2355 35.9458 24.0467 37.9936L22.7011 40.3098C20.2249 44.576 21.6472 50.0422 25.8727 52.5174L33.3006 56.8641C33.7507 57.1242 34.2145 57.3304 34.6966 57.5117C34.6988 57.5261 34.6949 57.5488 34.6971 57.5632C34.6237 61.0113 34.6818 63.8338 34.8509 65.9454C35.0228 68.027 34.5713 70.0089 33.4809 71.8862L32.8219 73.0384C32.3718 73.8328 32.0523 74.6654 31.8587 75.5074L31.0527 76.8969C30.9361 77.0925 30.8431 77.299 30.7419 77.4995C30.6038 77.6985 30.4718 77.8892 30.3502 78.1003L29.0046 80.4165C26.5285 84.6826 27.9508 90.1488 32.1762 92.6241L45.1017 100.194C46.2606 100.873 47.5454 101.272 48.8577 101.373C49.8442 101.452 50.8495 101.365 51.8272 101.099C54.1012 100.493 56.0483 98.9952 57.2371 96.9474L58.5828 94.6312C58.7214 94.3879 58.8457 94.1469 58.9618 93.8998C59.0696 93.7425 59.1868 93.5984 59.2781 93.429L60.1072 91.999C60.763 91.4004 61.3439 90.6957 61.8143 89.8907L62.4866 88.729C63.5125 86.9578 65.0431 85.5635 66.9111 84.6979C68.779 83.8323 71.1674 82.5372 74.0174 80.8588C74.112 80.8068 74.1901 80.7427 74.2837 80.6836C74.671 81.0126 75.0837 81.3156 75.5349 81.5829L82.9629 85.9295C84.1217 86.6076 85.4054 87.0003 86.7188 87.108C87.7054 87.1867 88.7106 87.1002 89.6883 86.8337C91.9623 86.2279 93.9094 84.7302 95.0983 82.6824L96.4439 80.3663C98.92 76.1001 97.4977 70.6339 93.2723 68.1586L89.5784 65.9968L97.168 63.88C99.4376 63.2453 101.368 61.7356 102.541 59.6757C103.706 57.6169 104.014 55.1784 103.394 52.8954Z" fill="#CFD8DC"/>
<path d="M104.032 50.6325L103.337 48.0517C102.327 44.3264 99.1218 41.8139 95.5096 41.5269C94.5087 41.4504 93.4748 41.5415 92.4492 41.8304L83.7769 44.2452C83.5595 44.3093 83.3504 44.3795 83.1353 44.4581C82.629 43.5433 82.0677 42.652 81.4464 41.7997L85.9635 34.0151C88.4397 29.7489 87.0173 24.2827 82.7919 21.8075L80.4979 20.4623C79.3391 19.7843 78.0542 19.3844 76.7419 19.2838C75.7554 19.2051 74.7501 19.2916 73.7724 19.5581C71.4984 20.1639 69.5513 21.6616 68.3625 23.7094L63.8624 31.4618C63.5119 31.4218 63.1675 31.3734 62.8192 31.3479C62.2783 31.3087 61.7407 31.2912 61.1982 31.2892C61.1465 31.0467 61.0947 30.8042 61.0226 30.5723L58.3537 21.5071C57.2848 17.8724 54.1163 15.4573 50.5778 15.1733C49.5175 15.0916 48.4132 15.2012 47.3277 15.5291L44.7791 16.3041C42.5244 16.988 40.623 18.5447 39.5062 20.6327C38.3823 22.7218 38.1262 25.1666 38.7955 27.4344L41.0043 34.9285L36.8201 32.4836C35.6613 31.8055 34.3776 31.4128 33.0642 31.3051C32.0776 31.2264 31.0724 31.3129 30.0946 31.5794C27.8206 32.1852 25.8735 33.6828 24.6847 35.7306L23.3391 38.0468C20.863 42.313 22.2853 47.7792 26.5107 50.2545L33.9386 54.6011C34.3887 54.8612 34.8526 55.0675 35.3346 55.2487C35.3368 55.2631 35.3329 55.2859 35.3351 55.3003C35.2618 58.7484 35.3198 61.5708 35.4889 63.6824C35.6608 65.764 35.2093 67.746 34.1189 69.6232L33.4599 70.7754C33.0099 71.5698 32.6903 72.4024 32.4967 73.2445L31.6907 74.6339C31.5741 74.8295 31.4812 75.0361 31.3799 75.2365C31.2418 75.4355 31.1098 75.6262 30.9882 75.8373L29.6426 78.1535C27.1665 82.4197 28.5888 87.8859 32.8142 90.3611L45.7398 97.9315C46.8986 98.6096 48.1834 99.0094 49.4957 99.11C50.4823 99.1887 51.4875 99.1022 52.4652 98.8357C54.7392 98.2299 56.6863 96.7322 57.8752 94.6844L59.2208 92.3683C59.3594 92.1249 59.4837 91.8839 59.5998 91.6368C59.7076 91.4795 59.8248 91.3354 59.9161 91.166L60.7452 89.736C61.401 89.1374 61.982 88.4327 62.4523 87.6277L63.1246 86.466C64.1506 84.6949 65.6812 83.3005 67.5491 82.4349C69.417 81.5693 71.8054 80.2742 74.6554 78.5958C74.75 78.5438 74.8281 78.4797 74.9217 78.4206C75.3091 78.7497 75.7218 79.0526 76.173 79.3199L83.6009 83.6665C84.7597 84.3446 86.0434 84.7373 87.3568 84.845C88.3434 84.9237 89.3486 84.8372 90.3264 84.5707C92.6004 83.9649 94.5475 82.4673 95.7363 80.4195L97.0819 78.1033C99.558 73.8371 98.1357 68.3709 93.9103 65.8956L90.2164 63.7339L97.806 61.617C100.076 60.9824 102.006 59.4726 103.179 57.4127C104.337 55.355 104.652 52.9155 104.032 50.6325Z" fill="white"/>
<path d="M74.9074 64.5308C78.6119 57.3256 76.2247 48.3777 69.4389 44.0614C61.9306 39.2851 52.0257 41.7858 47.5658 49.4654C47.5609 49.4809 47.5548 49.4893 47.5427 49.506C46.4826 51.3415 45.9453 53.433 45.8954 55.55C45.8499 57.5999 45.8337 60.6554 46.0194 62.875C46.3598 67.0167 45.426 71.1624 43.3448 74.7535L43.3228 74.8013L54.6702 81.4433L54.6933 81.4028C56.7805 77.8033 59.9187 74.9433 63.6749 73.2015C65.6243 72.2934 68.1524 70.858 69.8855 69.8296C71.3369 68.9714 72.6073 67.8398 73.6162 66.4843C74.1158 65.8221 74.6076 65.1095 74.9074 64.5308Z" fill="#FFD95C" stroke="#2576B9" stroke-width="3" stroke-miterlimit="10"/>
<path d="M45.9014 70.3418L57.2488 76.9839" stroke="#2576B9" stroke-width="3" stroke-miterlimit="10"/>
<path d="M53.3078 85.613L40.3751 78.0437" stroke="#2576B9" stroke-width="3" stroke-miterlimit="10"/>
<path d="M51.2599 89.1325L38.3344 81.5621" stroke="#2576B9" stroke-width="3" stroke-miterlimit="10"/>
<path d="M76.8892 28.76L71.6475 37.7957" stroke="#2576B9" stroke-width="3" stroke-miterlimit="10"/>
<path d="M31.396 41.2699L38.8239 45.6166" stroke="#2576B9" stroke-width="3" stroke-miterlimit="10"/>
<path d="M81.0523 70.3437L88.4802 74.6903" stroke="#2576B9" stroke-width="3" stroke-miterlimit="10"/>
<path d="M50.9767 33.4289L48.3017 24.3721" stroke="#2576B9" stroke-width="3" stroke-miterlimit="10"/>
<path d="M86.1787 54.0406L94.8511 51.6257" stroke="#2576B9" stroke-width="3" stroke-miterlimit="10"/>
<path d="M67.2603 52.6538L56.9845 55.1251L60.7911 61.664L49.8914 64.3675" stroke="#2576B9" stroke-width="3" stroke-miterlimit="10"/>
</g>
<defs>
<clipPath id="clip0_4804_4526">
<rect width="97" height="97" fill="white" transform="translate(26.3154) rotate(15.7413)"/>
</clipPath>
</defs>
</svg>
