<svg width="1440" height="348" viewBox="0 0 1440 348" fill="none" xmlns="http://www.w3.org/2000/svg">
<path d="M332.258 79.6791L332.475 77.6909L332.258 79.6791ZM378.263 325.906L378.3 327.905L378.263 325.906ZM727.181 90.4744L727.954 92.3192L727.181 90.4744ZM820.857 240.285L822.557 241.34L820.857 240.285ZM1341.02 209.572L1339.93 207.893L1341.02 209.572ZM-7.47289 252.532C-6.70553 251.738 -6.72754 250.472 -7.52204 249.704C-8.31655 248.937 -9.58268 248.959 -10.35 249.753L-7.47289 252.532ZM-3.3717 242.674C-4.15462 243.453 -4.15768 244.719 -3.37851 245.502C-2.59935 246.285 -1.33302 246.288 -0.550094 245.509L-3.3717 242.674ZM0.141621 244.822C0.925946 244.044 0.93127 242.778 0.153512 241.993C-0.624245 241.209 -1.89056 241.204 -2.67489 241.981L0.141621 244.822ZM4.46155 235.026C3.6641 235.791 3.63723 237.057 4.40153 237.854C5.16583 238.652 6.43188 238.679 7.22932 237.914L4.46155 235.026ZM7.94225 237.232C8.74091 236.469 8.7698 235.203 8.00678 234.404C7.24375 233.606 5.97775 233.577 5.17909 234.34L7.94225 237.232ZM12.4392 227.511C11.6289 228.261 11.5807 229.527 12.3314 230.337C13.0821 231.147 14.3475 231.195 15.1578 230.445L12.4392 227.511ZM15.8862 229.771C16.6975 229.021 16.7476 227.756 15.9981 226.945C15.2486 226.133 13.9832 226.083 13.1719 226.833L15.8862 229.771ZM20.5386 220.124C19.7167 220.862 19.6486 222.127 20.3866 222.949C21.1245 223.77 22.389 223.838 23.2109 223.101L20.5386 220.124ZM23.9512 222.437C24.7741 221.7 24.8439 220.436 24.1071 219.613C23.3702 218.79 22.1058 218.72 21.2829 219.457L23.9512 222.437ZM28.7479 212.863C27.9152 213.589 27.8284 214.852 28.554 215.685C29.2797 216.518 30.543 216.605 31.3758 215.879L28.7479 212.863ZM32.1256 215.227C32.9593 214.502 33.0478 213.239 32.3233 212.405C31.5987 211.571 30.3355 211.483 29.5018 212.207L32.1256 215.227ZM37.0612 205.724C36.2181 206.438 36.1131 207.7 36.8268 208.543C37.5404 209.386 38.8024 209.491 39.6455 208.777L37.0612 205.724ZM40.4035 208.136C41.2475 207.424 41.354 206.162 40.6415 205.318C39.9289 204.474 38.6671 204.367 37.8231 205.08L40.4035 208.136ZM45.4749 198.703C44.6219 199.405 44.4992 200.665 45.201 201.518C45.9027 202.371 47.1631 202.494 48.0161 201.792L45.4749 198.703ZM48.7814 201.163C49.6354 200.463 49.7596 199.203 49.059 198.349C48.3583 197.495 47.0981 197.37 46.2442 198.071L48.7814 201.163ZM53.9874 191.799C53.1247 192.489 52.9845 193.748 53.6743 194.61C54.364 195.473 55.6226 195.613 56.4853 194.924L53.9874 191.799ZM57.2576 194.307C58.1212 193.618 58.263 192.36 57.5743 191.496C56.8856 190.633 55.6272 190.491 54.7636 191.18L57.2576 194.307ZM62.5974 185.013C61.7251 185.691 61.5674 186.947 62.2451 187.82C62.9228 188.692 64.1792 188.849 65.0515 188.172L62.5974 185.013ZM65.8307 187.567C66.7038 186.891 66.8631 185.634 66.1865 184.761C65.5099 183.888 64.2536 183.729 63.3805 184.405L65.8307 187.567ZM71.3037 178.346C70.4221 179.011 70.2467 180.266 70.9121 181.147C71.5775 182.029 72.8316 182.204 73.7133 181.539L71.3037 178.346ZM74.4995 180.946C75.382 180.282 75.5589 179.028 74.8947 178.146C74.2304 177.263 72.9765 177.086 72.094 177.75L74.4995 180.946ZM80.1029 171.803C79.2118 172.456 79.0186 173.707 79.6714 174.598C80.3241 175.489 81.5757 175.683 82.4667 175.03L80.1029 171.803ZM83.2628 174.447C84.1547 173.796 84.3495 172.545 83.6979 171.653C83.0463 170.761 81.7951 170.566 80.9032 171.218L83.2628 174.447ZM88.9764 165.401C88.0759 166.04 87.8646 167.289 88.5044 168.189C89.1442 169.09 90.3927 169.301 91.2932 168.661L88.9764 165.401ZM92.1056 168.085C93.0068 167.446 93.2198 166.198 92.5813 165.297C91.9427 164.396 90.6944 164.183 89.7931 164.821L92.1056 168.085ZM97.9498 159.124C97.04 159.751 96.8101 160.996 97.4364 161.906C98.0627 162.816 99.308 163.046 100.218 162.419L97.9498 159.124ZM101.036 161.857C101.947 161.232 102.179 159.987 101.553 159.076C100.928 158.165 99.6835 157.934 98.7728 158.559L101.036 161.857ZM107.023 152.98C106.104 153.593 105.855 154.834 106.467 155.754C107.079 156.673 108.321 156.922 109.24 156.31L107.023 152.98ZM110.065 155.761C110.985 155.15 111.236 153.909 110.625 152.989C110.014 152.068 108.773 151.818 107.853 152.429L110.065 155.761ZM116.195 146.976C115.266 147.573 114.997 148.811 115.595 149.74C116.192 150.669 117.43 150.937 118.359 150.34L116.195 146.976ZM119.191 149.805C120.121 149.209 120.392 147.972 119.795 147.042C119.199 146.112 117.962 145.842 117.032 146.438L119.191 149.805ZM125.465 141.119C124.526 141.701 124.237 142.934 124.819 143.873C125.402 144.811 126.634 145.1 127.573 144.518L125.465 141.119ZM128.414 143.998C129.353 143.417 129.644 142.184 129.063 141.245C128.482 140.305 127.25 140.015 126.31 140.595L128.414 143.998ZM134.829 135.42C133.88 135.986 133.57 137.214 134.136 138.163C134.702 139.111 135.93 139.421 136.879 138.855L134.829 135.42ZM137.731 138.348C138.68 137.783 138.992 136.556 138.428 135.607C137.863 134.657 136.636 134.345 135.686 134.91L137.731 138.348ZM144.29 129.888C143.331 130.437 142.999 131.659 143.548 132.618C144.097 133.576 145.319 133.908 146.278 133.359L144.29 129.888ZM147.138 132.868C148.097 132.321 148.431 131.099 147.884 130.14C147.337 129.18 146.115 128.846 145.156 129.393L147.138 132.868ZM153.856 124.528C152.887 125.059 152.532 126.275 153.063 127.243C153.594 128.212 154.809 128.567 155.778 128.036L153.856 124.528ZM156.646 127.561C157.616 127.032 157.973 125.817 157.444 124.848C156.915 123.878 155.7 123.521 154.731 124.05L156.646 127.561ZM163.526 119.353C162.547 119.864 162.168 121.073 162.679 122.052C163.191 123.031 164.399 123.41 165.378 122.898L163.526 119.353ZM166.256 122.441C167.236 121.931 167.617 120.724 167.108 119.744C166.598 118.764 165.39 118.382 164.41 118.892L166.256 122.441ZM173.3 114.376C172.31 114.866 171.906 116.066 172.397 117.056C172.888 118.045 174.088 118.45 175.077 117.959L173.3 114.376ZM175.965 117.52C176.955 117.031 177.362 115.832 176.873 114.841C176.384 113.851 175.185 113.444 174.194 113.933L175.965 117.52ZM183.177 109.61C182.177 110.079 181.747 111.27 182.215 112.27C182.684 113.27 183.875 113.701 184.875 113.232L183.177 109.61ZM185.772 112.813C186.773 112.346 187.207 111.156 186.74 110.155C186.273 109.154 185.083 108.721 184.082 109.187L185.772 112.813ZM193.171 105.068C192.16 105.513 191.702 106.693 192.147 107.704C192.592 108.715 193.772 109.173 194.783 108.728L193.171 105.068ZM195.687 108.332C196.699 107.889 197.16 106.71 196.717 105.698C196.275 104.686 195.095 104.224 194.083 104.667L195.687 108.332ZM203.275 100.768C202.253 101.188 201.765 102.356 202.185 103.378C202.604 104.4 203.773 104.888 204.795 104.468L203.275 100.768ZM205.709 104.094C206.731 103.677 207.222 102.51 206.805 101.487C206.388 100.464 205.221 99.9732 204.198 100.39L205.709 104.094ZM213.488 96.7315C212.455 97.1236 211.936 98.2785 212.328 99.3112C212.72 100.344 213.875 100.863 214.908 100.471L213.488 96.7315ZM215.832 100.121C216.866 99.732 217.388 98.5783 216.999 97.5447C216.609 96.511 215.456 95.9888 214.422 96.3783L215.832 100.121ZM223.808 92.9798C222.765 93.3421 222.213 94.4817 222.575 95.5251C222.937 96.5686 224.077 97.1208 225.12 96.7585L223.808 92.9798ZM226.056 96.4351C227.1 96.0757 227.656 94.9376 227.296 93.8931C226.937 92.8487 225.799 92.2934 224.754 92.6529L226.056 96.4351ZM234.235 89.5364C233.181 89.8664 232.594 90.9885 232.924 92.0426C233.254 93.0967 234.376 93.6837 235.43 93.3537L234.235 89.5364ZM236.377 93.0588C237.432 92.7319 238.022 91.6115 237.695 90.5565C237.368 89.5014 236.248 88.9111 235.193 89.2381L236.377 93.0588ZM244.776 86.4244C243.711 86.7194 243.088 87.8214 243.383 88.8859C243.678 89.9504 244.78 90.5741 245.844 90.2792L244.776 86.4244ZM246.791 90.0182C247.857 89.7266 248.484 88.6265 248.192 87.5611C247.901 86.4958 246.801 85.8685 245.735 86.1602L246.791 90.0182ZM255.431 83.673C254.357 83.9298 253.694 85.0088 253.951 86.0831C254.208 87.1575 255.287 87.8202 256.361 87.5634L255.431 83.673ZM257.318 87.3365C258.393 87.0833 259.059 86.0065 258.806 84.9313C258.553 83.8561 257.476 83.1898 256.401 83.443L257.318 87.3365ZM266.184 81.3178C265.1 81.533 264.397 82.5858 264.612 83.6692C264.827 84.7526 265.88 85.4563 266.963 85.2411L266.184 81.3178ZM267.929 85.0511C269.013 84.8397 269.72 83.7895 269.509 82.7054C269.298 81.6212 268.248 80.9136 267.163 81.125L267.929 85.0511ZM277.024 79.3939C275.933 79.564 275.186 80.5866 275.356 81.678C275.526 82.7694 276.549 83.5163 277.64 83.3462L277.024 79.3939ZM278.614 83.1964C279.706 83.0306 280.457 82.0109 280.291 80.9189C280.125 79.8268 279.105 79.076 278.013 79.2418L278.614 83.1964ZM287.941 77.9392C286.843 78.0602 286.051 79.0483 286.172 80.1463C286.293 81.2442 287.281 82.0361 288.379 81.9151L287.941 77.9392ZM289.359 81.8092C290.458 81.6928 291.254 80.7081 291.137 79.6096C291.021 78.5112 290.036 77.7151 288.938 77.8314L289.359 81.8092ZM298.918 76.9938C297.816 77.0617 296.977 78.0104 297.045 79.1129C297.112 80.2153 298.061 81.0541 299.164 80.9863L298.918 76.9938ZM300.148 80.928C301.251 80.8652 302.094 79.9204 302.031 78.8176C301.969 77.7148 301.024 76.8717 299.921 76.9345L300.148 80.928ZM309.935 76.6C308.831 76.6104 307.944 77.5142 307.954 78.6187C307.964 79.7232 308.868 80.6102 309.973 80.5998L309.935 76.6ZM310.959 80.5929C312.064 80.588 312.955 79.6886 312.95 78.584C312.945 77.4794 312.046 76.588 310.941 76.593L310.959 80.5929ZM320.965 76.8004C319.862 76.7492 318.926 77.6022 318.875 78.7055C318.823 79.8089 319.676 80.7449 320.78 80.7961L320.965 76.8004ZM321.764 80.8444C322.867 80.9014 323.808 80.0534 323.865 78.9503C323.922 77.8472 323.074 76.9068 321.971 76.8497L321.764 80.8444ZM331.977 77.6372C330.879 77.5205 329.894 78.3162 329.777 79.4146C329.66 80.513 330.456 81.498 331.555 81.6148L331.977 77.6372ZM332.567 81.7256C333.665 81.8494 334.655 81.06 334.779 79.9624C334.903 78.8648 334.113 77.8746 333.016 77.7508L332.567 81.7256ZM343.2 79.2907C342.116 79.0805 341.066 79.7893 340.856 80.8737C340.646 81.9581 341.355 83.0075 342.439 83.2176L343.2 79.2907ZM343.36 83.4C344.442 83.6195 345.498 82.9199 345.717 81.8374C345.937 80.7548 345.237 79.6993 344.154 79.4798L343.36 83.4ZM354.089 82.0299C353.036 81.6952 351.912 82.2772 351.577 83.3299C351.242 84.3825 351.824 85.5072 352.877 85.8419L354.089 82.0299ZM353.779 86.1348C354.828 86.4824 355.959 85.9143 356.307 84.8658C356.655 83.8174 356.086 82.6857 355.038 82.3381L353.779 86.1348ZM364.527 86.2573C363.543 85.7562 362.339 86.148 361.838 87.1324C361.337 88.1167 361.728 89.3209 362.713 89.822L364.527 86.2573ZM363.547 90.2559C364.523 90.7741 365.734 90.4034 366.252 89.4278C366.77 88.4524 366.399 87.2415 365.424 86.7234L363.547 90.2559ZM374.03 92.4578C373.182 91.7495 371.921 91.8625 371.212 92.7101C370.504 93.5577 370.617 94.819 371.465 95.5273L374.03 92.4578ZM372.165 96.1264C372.996 96.854 374.26 96.7701 374.988 95.939C375.715 95.108 375.631 93.8444 374.8 93.1168L372.165 96.1264ZM381.729 100.929C381.11 100.014 379.866 99.7749 378.952 100.394C378.037 101.014 377.798 102.257 378.417 103.172L381.729 100.929ZM378.94 103.967C379.535 104.897 380.772 105.17 381.703 104.575C382.633 103.98 382.906 102.743 382.311 101.812L378.94 103.967ZM386.758 111.259C386.414 110.209 385.285 109.637 384.235 109.981C383.185 110.325 382.613 111.455 382.957 112.505L386.758 111.259ZM383.243 113.411C383.563 114.468 384.679 115.066 385.736 114.746C386.793 114.426 387.391 113.31 387.071 112.253L383.243 113.411ZM389.026 122.42C388.921 121.321 387.944 120.514 386.845 120.619C385.745 120.724 384.939 121.7 385.044 122.8L389.026 122.42ZM385.128 123.772C385.214 124.873 386.177 125.696 387.278 125.61C388.379 125.524 389.202 124.561 389.116 123.46L385.128 123.772ZM389.157 133.729C389.226 132.627 388.388 131.677 387.286 131.608C386.184 131.539 385.234 132.377 385.165 133.479L389.157 133.729ZM385.097 134.477C385.015 135.578 385.841 136.538 386.943 136.62C388.044 136.702 389.004 135.875 389.086 134.774L385.097 134.477ZM387.809 144.874C387.998 143.786 387.269 142.75 386.181 142.562C385.092 142.373 384.057 143.102 383.868 144.19L387.809 144.874ZM383.696 145.157C383.499 146.243 384.22 147.285 385.306 147.482C386.393 147.68 387.434 146.959 387.632 145.872L383.696 145.157ZM385.46 155.772C385.732 154.701 385.084 153.613 384.014 153.341C382.943 153.069 381.855 153.717 381.583 154.788L385.46 155.772ZM381.343 155.724C381.065 156.793 381.706 157.884 382.775 158.162C383.845 158.44 384.936 157.798 385.214 156.729L381.343 155.724ZM382.422 166.438C382.752 165.384 382.165 164.262 381.111 163.932C380.057 163.602 378.935 164.189 378.605 165.243L382.422 166.438ZM378.312 166.173C377.977 167.226 378.56 168.351 379.612 168.685C380.665 169.019 381.79 168.437 382.124 167.384L378.312 166.173ZM378.9 176.915C379.272 175.875 378.73 174.73 377.689 174.359C376.649 173.987 375.505 174.53 375.133 175.57L378.9 176.915ZM374.797 176.507C374.422 177.546 374.961 178.692 376 179.067C377.039 179.442 378.185 178.903 378.56 177.864L374.797 176.507ZM375.035 187.249C375.436 186.219 374.926 185.06 373.897 184.659C372.867 184.259 371.708 184.768 371.307 185.797L375.035 187.249ZM370.942 186.733C370.539 187.761 371.046 188.921 372.075 189.324C373.103 189.727 374.264 189.22 374.666 188.192L370.942 186.733ZM370.93 197.478C371.35 196.457 370.863 195.288 369.842 194.867C368.82 194.446 367.652 194.933 367.231 195.955L370.93 197.478ZM366.849 196.879C366.427 197.9 366.913 199.07 367.934 199.492C368.954 199.914 370.124 199.428 370.546 198.408L366.849 196.879ZM366.669 207.636C367.102 206.619 366.628 205.445 365.612 205.012C364.596 204.579 363.421 205.053 362.989 206.069L366.669 207.636ZM362.597 206.987C362.164 208.003 362.636 209.178 363.652 209.611C364.668 210.045 365.843 209.572 366.277 208.556L362.597 206.987ZM362.327 217.75C362.765 216.735 362.297 215.559 361.283 215.121C360.269 214.683 359.092 215.151 358.654 216.165L362.327 217.75ZM358.259 217.08C357.821 218.095 358.289 219.272 359.303 219.709C360.317 220.147 361.494 219.68 361.932 218.666L358.259 217.08ZM357.975 227.846C358.41 226.831 357.941 225.655 356.926 225.219C355.911 224.784 354.735 225.253 354.299 226.268L357.975 227.846ZM353.905 227.186C353.47 228.202 353.94 229.377 354.956 229.812C355.971 230.248 357.147 229.777 357.582 228.762L353.905 227.186ZM353.686 237.952C354.112 236.933 353.631 235.761 352.612 235.335C351.593 234.909 350.421 235.39 349.995 236.409L353.686 237.952ZM349.61 237.334C349.185 238.353 349.667 239.524 350.687 239.949C351.707 240.374 352.878 239.891 353.302 238.872L349.61 237.334ZM349.545 248.097C349.952 247.071 349.45 245.908 348.423 245.501C347.396 245.094 346.234 245.597 345.827 246.623L349.545 248.097ZM345.457 247.559C345.052 248.587 345.557 249.748 346.585 250.153C347.613 250.557 348.774 250.052 349.179 249.025L345.457 247.559ZM345.659 258.318C346.035 257.279 345.497 256.133 344.458 255.757C343.42 255.381 342.273 255.919 341.897 256.958L345.659 258.318ZM341.556 257.908C341.184 258.948 341.725 260.092 342.765 260.464C343.805 260.836 344.95 260.295 345.322 259.255L341.556 257.908ZM342.179 268.649C342.504 267.594 341.913 266.474 340.857 266.148C339.802 265.823 338.682 266.414 338.357 267.47L342.179 268.649ZM338.061 268.436C337.741 269.494 338.339 270.61 339.396 270.93C340.453 271.25 341.57 270.652 341.89 269.595L338.061 268.436ZM339.343 279.112C339.588 278.035 338.914 276.963 337.837 276.717C336.76 276.472 335.688 277.146 335.443 278.223L339.343 279.112ZM335.224 279.205C334.988 280.284 335.671 281.35 336.75 281.586C337.829 281.822 338.895 281.139 339.131 280.059L335.224 279.205ZM337.558 289.658C337.668 288.559 336.867 287.579 335.768 287.468C334.669 287.358 333.688 288.159 333.578 289.258L337.558 289.658ZM333.486 290.246C333.391 291.347 334.207 292.315 335.307 292.41C336.408 292.504 337.376 291.689 337.471 290.588L333.486 290.246ZM337.539 300.188C337.408 299.091 336.412 298.308 335.316 298.44C334.219 298.571 333.436 299.567 333.568 300.663L337.539 300.188ZM333.71 301.725C333.871 302.817 334.888 303.572 335.981 303.41C337.073 303.249 337.828 302.232 337.666 301.139L333.71 301.725ZM340.473 309.896C339.943 308.926 338.729 308.569 337.759 309.098C336.789 309.627 336.432 310.842 336.961 311.811L340.473 309.896ZM337.494 312.741C338.063 313.688 339.292 313.994 340.239 313.424C341.185 312.855 341.491 311.626 340.922 310.68L337.494 312.741ZM347.098 317.24C346.194 316.606 344.947 316.825 344.313 317.73C343.678 318.634 343.897 319.881 344.802 320.516L347.098 317.24ZM345.697 321.118C346.624 321.719 347.863 321.453 348.463 320.526C349.063 319.599 348.797 318.36 347.87 317.76L345.697 321.118ZM356.489 321.576C355.428 321.265 354.318 321.873 354.007 322.933C353.697 323.993 354.305 325.104 355.365 325.415L356.489 321.576ZM356.426 325.712C357.493 325.998 358.59 325.365 358.876 324.298C359.162 323.231 358.529 322.135 357.462 321.848L356.426 325.712ZM366.958 323.51C365.859 323.401 364.88 324.205 364.772 325.304C364.664 326.403 365.467 327.382 366.566 327.49L366.958 323.51ZM367.507 327.577C368.608 327.673 369.577 326.858 369.673 325.758C369.768 324.657 368.953 323.688 367.853 323.592L367.507 327.577ZM377.691 323.915C376.587 323.93 375.704 324.838 375.719 325.943C375.735 327.047 376.643 327.93 377.747 327.914L377.691 323.915ZM378.81 327.895C379.914 327.871 380.79 326.956 380.766 325.852C380.742 324.748 379.828 323.872 378.724 323.896L378.81 327.895ZM388.586 323.367C387.486 323.461 386.67 324.43 386.764 325.53C386.858 326.631 387.827 327.447 388.928 327.352L388.586 323.367ZM389.93 327.263C391.03 327.162 391.84 326.188 391.739 325.088C391.638 323.988 390.664 323.179 389.564 323.28L389.93 327.263ZM399.361 322.066C398.269 322.236 397.522 323.259 397.692 324.35C397.862 325.442 398.885 326.189 399.976 326.019L399.361 322.066ZM400.974 325.86C402.064 325.684 402.805 324.656 402.628 323.566C402.451 322.476 401.424 321.735 400.334 321.912L400.974 325.86ZM410.021 320.037C408.944 320.279 408.267 321.349 408.509 322.427C408.752 323.504 409.822 324.181 410.9 323.939L410.021 320.037ZM411.885 323.714C412.961 323.465 413.632 322.391 413.383 321.315C413.134 320.239 412.06 319.568 410.984 319.817L411.885 323.714ZM420.533 317.314C419.473 317.624 418.865 318.735 419.176 319.795C419.486 320.855 420.597 321.463 421.657 321.153L420.533 317.314ZM422.626 320.866C423.685 320.549 424.286 319.435 423.97 318.377C423.653 317.318 422.539 316.717 421.48 317.033L422.626 320.866ZM430.867 313.945C429.827 314.318 429.287 315.463 429.66 316.503C430.033 317.543 431.179 318.083 432.218 317.71L430.867 313.945ZM433.167 317.366C434.204 316.988 434.739 315.84 434.36 314.802C433.982 313.764 432.833 313.23 431.796 313.609L433.167 317.366ZM441.002 309.982C439.985 310.412 439.509 311.586 439.939 312.603C440.369 313.621 441.542 314.097 442.56 313.667L441.002 309.982ZM443.486 313.273C444.501 312.838 444.972 311.662 444.537 310.647C444.102 309.631 442.926 309.161 441.911 309.596L443.486 313.273ZM450.928 305.482C449.933 305.963 449.517 307.159 449.998 308.154C450.479 309.148 451.675 309.564 452.67 309.083L450.928 305.482ZM453.572 308.644C454.564 308.159 454.975 306.961 454.49 305.969C454.004 304.976 452.806 304.566 451.814 305.051L453.572 308.644ZM460.623 300.509C459.652 301.035 459.291 302.249 459.818 303.22C460.344 304.191 461.558 304.552 462.529 304.026L460.623 300.509ZM463.418 303.541C464.387 303.011 464.743 301.796 464.213 300.827C463.683 299.858 462.468 299.502 461.499 300.032L463.418 303.541ZM470.096 295.115C469.148 295.681 468.838 296.908 469.404 297.857C469.97 298.805 471.197 299.116 472.146 298.55L470.096 295.115ZM473.012 298.031C473.959 297.461 474.265 296.232 473.696 295.286C473.126 294.339 471.897 294.033 470.951 294.603L473.012 298.031ZM479.361 289.347C478.434 289.948 478.17 291.186 478.771 292.113C479.371 293.04 480.61 293.304 481.537 292.704L479.361 289.347ZM482.381 292.155C483.306 291.551 483.567 290.312 482.963 289.387C482.359 288.462 481.12 288.201 480.195 288.805L482.381 292.155ZM488.43 283.251C487.524 283.882 487.3 285.128 487.931 286.035C488.562 286.941 489.808 287.165 490.715 286.534L488.43 283.251ZM491.539 285.959C492.443 285.326 492.663 284.079 492.03 283.174C491.396 282.269 490.149 282.049 489.244 282.682L491.539 285.959ZM497.316 276.868C496.429 277.525 496.242 278.777 496.899 279.665C497.556 280.553 498.808 280.74 499.696 280.083L497.316 276.868ZM500.5 279.486C501.386 278.826 501.57 277.574 500.911 276.687C500.252 275.801 498.999 275.617 498.112 276.277L500.5 279.486ZM506.034 270.235C505.164 270.915 505.009 272.172 505.689 273.042C506.369 273.913 507.625 274.068 508.496 273.388L506.034 270.235ZM509.282 272.772C510.152 272.091 510.303 270.834 509.622 269.964C508.94 269.095 507.683 268.943 506.814 269.625L509.282 272.772ZM514.578 263.404C513.723 264.103 513.597 265.363 514.296 266.218C514.995 267.073 516.255 267.2 517.11 266.501L514.578 263.404ZM517.89 265.862C518.743 265.162 518.868 263.901 518.167 263.048C517.466 262.194 516.206 262.07 515.352 262.77L517.89 265.862ZM522.985 256.39C522.144 257.106 522.042 258.368 522.757 259.209C523.473 260.051 524.735 260.152 525.577 259.437L522.985 256.39ZM526.341 258.785C527.181 258.068 527.281 256.806 526.564 255.966C525.847 255.126 524.585 255.026 523.745 255.743L526.341 258.785ZM531.273 249.217C530.444 249.946 530.363 251.21 531.093 252.039C531.822 252.869 533.086 252.95 533.916 252.22L531.273 249.217ZM534.667 251.558C535.496 250.827 535.575 249.563 534.844 248.735C534.113 247.907 532.849 247.828 532.021 248.558L534.667 251.558ZM539.459 241.91C538.64 242.652 538.576 243.916 539.318 244.735C540.059 245.554 541.324 245.617 542.143 244.876L539.459 241.91ZM542.883 244.205C543.702 243.463 543.763 242.198 543.021 241.38C542.279 240.562 541.014 240.5 540.196 241.242L542.883 244.205ZM547.552 234.496C546.742 235.247 546.694 236.513 547.444 237.323C548.195 238.133 549.46 238.182 550.271 237.431L547.552 234.496ZM551.005 236.75C551.814 235.999 551.861 234.733 551.11 233.924C550.359 233.114 549.093 233.067 548.284 233.818L551.005 236.75ZM555.563 227.003C554.76 227.761 554.723 229.027 555.481 229.831C556.239 230.634 557.505 230.67 558.308 229.912L555.563 227.003ZM559.037 229.224C559.84 228.465 559.875 227.2 559.117 226.397C558.358 225.594 557.092 225.558 556.289 226.317L559.037 229.224ZM563.52 219.437C562.722 220.201 562.694 221.467 563.458 222.265C564.222 223.063 565.488 223.091 566.286 222.327L563.52 219.437ZM567.009 221.635C567.806 220.87 567.833 219.604 567.069 218.807C566.305 218.009 565.039 217.982 564.241 218.747L567.009 221.635ZM571.436 211.819C570.642 212.587 570.621 213.853 571.389 214.647C572.156 215.441 573.422 215.463 574.217 214.695L571.436 211.819ZM574.935 214C575.729 213.232 575.75 211.966 574.982 211.172C574.214 210.378 572.948 210.357 572.154 211.125L574.935 214ZM579.325 204.168C578.533 204.938 578.515 206.205 579.285 206.997C580.055 207.789 581.321 207.806 582.113 207.036L579.325 204.168ZM582.83 206.339C583.622 205.569 583.64 204.303 582.869 203.511C582.099 202.719 580.833 202.702 580.041 203.472L582.83 206.339ZM587.202 196.501C586.411 197.272 586.394 198.538 587.164 199.33C587.935 200.121 589.201 200.138 589.992 199.367L587.202 196.501ZM590.708 198.671C591.499 197.9 591.516 196.634 590.746 195.842C589.975 195.051 588.709 195.034 587.918 195.805L590.708 198.671ZM595.087 188.832C594.294 189.601 594.276 190.867 595.045 191.66C595.815 192.452 597.081 192.471 597.873 191.701L595.087 188.832ZM598.59 191.006C599.382 190.236 599.401 188.97 598.632 188.177C597.863 187.385 596.596 187.366 595.804 188.135L598.59 191.006ZM602.992 181.179C602.197 181.945 602.174 183.212 602.941 184.007C603.708 184.802 604.974 184.825 605.769 184.058L602.992 181.179ZM606.488 183.365C607.283 182.598 607.307 181.332 606.541 180.537C605.774 179.741 604.508 179.718 603.713 180.484L606.488 183.365ZM610.931 173.563C610.132 174.325 610.102 175.591 610.864 176.39C611.626 177.19 612.892 177.22 613.692 176.458L610.931 173.563ZM614.416 175.767C615.216 175.006 615.247 173.74 614.485 172.94C613.723 172.14 612.457 172.109 611.657 172.871L614.416 175.767ZM618.926 165.998C618.12 166.753 618.08 168.019 618.836 168.825C619.592 169.63 620.857 169.67 621.663 168.914L618.926 165.998ZM622.388 168.234C623.194 167.479 623.235 166.213 622.48 165.407C621.725 164.601 620.459 164.56 619.653 165.315L622.388 168.234ZM627.001 158.494C626.188 159.241 626.135 160.507 626.882 161.32C627.63 162.133 628.895 162.186 629.708 161.439L627.001 158.494ZM630.441 160.766C631.255 160.019 631.31 158.754 630.563 157.94C629.816 157.126 628.551 157.071 627.737 157.818L630.441 160.766ZM635.164 151.084C634.341 151.821 634.271 153.085 635.008 153.908C635.745 154.731 637.01 154.8 637.833 154.063L635.164 151.084ZM638.575 153.399C639.399 152.663 639.47 151.399 638.734 150.575C637.998 149.751 636.734 149.68 635.91 150.416L638.575 153.399ZM643.43 143.792C642.596 144.516 642.507 145.779 643.231 146.613C643.955 147.447 645.218 147.537 646.052 146.813L643.43 143.792ZM646.807 146.159C647.642 145.436 647.733 144.173 647.011 143.338C646.288 142.502 645.025 142.411 644.19 143.134L646.807 146.159ZM651.818 136.644C650.97 137.352 650.858 138.613 651.566 139.461C652.274 140.308 653.536 140.421 654.383 139.713L651.818 136.644ZM655.152 139.072C656.001 138.365 656.116 137.104 655.409 136.255C654.702 135.406 653.441 135.291 652.592 135.998L655.152 139.072ZM660.36 129.657C659.497 130.347 659.357 131.606 660.047 132.468C660.736 133.331 661.995 133.472 662.858 132.782L660.36 129.657ZM663.63 132.166C664.494 131.478 664.637 130.22 663.95 129.355C663.262 128.491 662.004 128.348 661.139 129.036L663.63 132.166ZM669.082 122.862C668.202 123.529 668.029 124.784 668.697 125.664C669.364 126.544 670.619 126.716 671.499 126.049L669.082 122.862ZM672.288 125.452C673.17 124.786 673.346 123.532 672.68 122.651C672.015 121.769 670.761 121.593 669.879 122.259L672.288 125.452ZM677.988 116.307C677.089 116.948 676.879 118.197 677.521 119.096C678.162 119.996 679.411 120.205 680.31 119.564L677.988 116.307ZM681.118 118.989C682.02 118.35 682.232 117.102 681.594 116.201C680.955 115.3 679.707 115.087 678.806 115.725L681.118 118.989ZM687.099 110.034C686.178 110.645 685.927 111.886 686.537 112.807C687.148 113.727 688.389 113.978 689.31 113.368L687.099 110.034ZM690.138 112.82C691.061 112.212 691.316 110.972 690.709 110.05C690.101 109.127 688.861 108.872 687.938 109.479L690.138 112.82ZM696.433 104.093C695.49 104.667 695.191 105.898 695.766 106.841C696.34 107.784 697.571 108.083 698.514 107.509L696.433 104.093ZM699.365 106.993C700.31 106.421 700.614 105.192 700.042 104.247C699.471 103.301 698.242 102.998 697.296 103.569L699.365 106.993ZM706.009 98.5354C705.042 99.0684 704.69 100.285 705.223 101.252C705.756 102.22 706.972 102.572 707.94 102.039L706.009 98.5354ZM708.813 101.56C709.782 101.032 710.14 99.8167 709.611 98.847C709.082 97.8772 707.867 97.5198 706.898 98.0487L708.813 101.56ZM715.842 93.424C714.85 93.9087 714.438 95.1063 714.923 96.0988C715.408 97.0913 716.605 97.503 717.598 97.0183L715.842 93.424ZM718.493 96.5835C719.488 96.1035 719.906 94.908 719.426 93.9131C718.946 92.9183 717.75 92.5009 716.755 92.9808L718.493 96.5835ZM725.946 88.824C724.929 89.2533 724.452 90.4263 724.881 91.4441C725.31 92.4618 726.483 92.9388 727.501 92.5095L725.946 88.824ZM728.435 92.1184C729.454 91.694 729.937 90.5233 729.513 89.5035C729.088 88.4837 727.917 88.0011 726.898 88.4255L728.435 92.1184ZM736.494 84.6782C735.456 85.0561 734.921 86.2039 735.299 87.2418C735.677 88.2797 736.825 88.8146 737.863 88.4367L736.494 84.6782ZM738.785 88.1031C739.825 87.7301 740.365 86.5848 739.992 85.5452C739.619 84.5055 738.474 83.9651 737.434 84.3382L738.785 88.1031ZM747.24 81.1005C746.182 81.4186 745.583 82.5339 745.901 83.5917C746.219 84.6495 747.334 85.2491 748.392 84.9311L747.24 81.1005ZM749.34 84.6487C750.4 84.3365 751.006 83.2245 750.694 82.165C750.381 81.1055 749.269 80.4996 748.21 80.8118L749.34 84.6487ZM758.188 78.1937C757.111 78.4403 756.438 79.513 756.685 80.5897C756.931 81.6664 758.004 82.3393 759.081 82.0928L758.188 78.1937ZM760.091 81.8651C761.169 81.6259 761.85 80.5578 761.61 79.4795C761.371 78.4011 760.303 77.7208 759.225 77.96L760.091 81.8651ZM769.407 76.0794C768.314 76.2391 767.557 77.2545 767.717 78.3475C767.876 79.4405 768.892 80.1971 769.985 80.0374L769.407 76.0794ZM770.996 79.8939C772.09 79.7432 772.855 78.7339 772.704 77.6397C772.553 76.5455 771.544 75.7806 770.45 75.9313L770.996 79.8939ZM780.782 74.9563C779.679 75.0102 778.828 75.9482 778.882 77.0514C778.936 78.1547 779.874 79.0054 780.977 78.9516L780.782 74.9563ZM781.977 78.9076C783.081 78.8645 783.941 77.9347 783.897 76.831C783.854 75.7273 782.925 74.8675 781.821 74.9107L781.977 78.9076ZM792.202 75.0423C791.1 74.9678 790.146 75.8007 790.072 76.9028C789.997 78.0048 790.83 78.9587 791.932 79.0332L792.202 75.0423ZM792.905 79.1046C794.007 79.1919 794.97 78.3699 795.057 77.2688C795.144 76.1677 794.322 75.2044 793.221 75.1171L792.905 79.1046ZM803.587 76.6005C802.506 76.3715 801.444 77.0618 801.215 78.1424C800.986 79.2229 801.677 80.2846 802.757 80.5136L803.587 76.6005ZM803.733 80.7276C804.81 80.9721 805.882 80.297 806.126 79.2198C806.371 78.1426 805.696 77.0712 804.618 76.8268L803.733 80.7276ZM814.629 79.905C813.602 79.4984 812.44 80.0012 812.033 81.0282C811.627 82.0552 812.13 83.2174 813.157 83.624L814.629 79.905ZM814.058 83.9893C815.078 84.4128 816.248 83.929 816.671 82.9088C817.095 81.8886 816.611 80.7183 815.591 80.2949L814.058 83.9893ZM824.954 85.1716C824.024 84.5761 822.787 84.8473 822.192 85.7776C821.596 86.7078 821.867 87.9447 822.797 88.5403L824.954 85.1716ZM823.618 89.0766C824.537 89.6891 825.779 89.4405 826.392 88.5213C827.004 87.6021 826.756 86.3604 825.836 85.7479L823.618 89.0766ZM834.033 92.3853C833.243 91.6132 831.977 91.6276 831.205 92.4175C830.433 93.2074 830.447 94.4737 831.237 95.2458L834.033 92.3853ZM831.933 95.9392C832.709 96.7259 833.975 96.735 834.762 95.9597C835.548 95.1843 835.557 93.918 834.782 93.1313L831.933 95.9392ZM841.468 101.29C840.847 100.376 839.603 100.138 838.69 100.759C837.776 101.38 837.538 102.623 838.159 103.537L841.468 101.29ZM838.702 104.352C839.307 105.276 840.547 105.535 841.471 104.93C842.395 104.326 842.654 103.086 842.049 102.162L838.702 104.352ZM847.051 111.409C846.605 110.398 845.425 109.94 844.414 110.386C843.404 110.832 842.946 112.012 843.392 113.023L847.051 111.409ZM843.787 113.94C844.218 114.957 845.391 115.433 846.408 115.003C847.426 114.573 847.902 113.399 847.472 112.382L843.787 113.94ZM850.836 122.276C850.554 121.208 849.459 120.572 848.391 120.855C847.323 121.138 846.687 122.233 846.97 123.3L850.836 122.276ZM847.218 124.262C847.487 125.334 848.573 125.984 849.645 125.715C850.716 125.446 851.367 124.36 851.098 123.289L847.218 124.262ZM853.016 133.572C852.878 132.476 851.877 131.7 850.781 131.839C849.685 131.978 848.909 132.979 849.048 134.075L853.016 133.572ZM849.167 135.054C849.294 136.151 850.286 136.938 851.383 136.811C852.481 136.684 853.267 135.691 853.14 134.594L849.167 135.054ZM853.798 144.947C853.783 143.843 852.874 142.96 851.77 142.976C850.666 142.991 849.783 143.899 849.799 145.004L853.798 144.947ZM849.808 146.005C849.814 147.11 850.713 148.001 851.818 147.996C852.922 147.99 853.813 147.091 853.808 145.986L849.808 146.005ZM853.399 156.363C853.489 155.262 852.67 154.297 851.569 154.206C850.468 154.116 849.502 154.936 849.412 156.036L853.399 156.363ZM849.325 157.053C849.226 158.153 850.037 159.125 851.137 159.224C852.237 159.323 853.209 158.512 853.309 157.412L849.325 157.053ZM851.99 167.655C852.171 166.566 851.434 165.536 850.345 165.355C849.255 165.173 848.225 165.91 848.044 167L851.99 167.655ZM847.877 167.981C847.689 169.069 848.418 170.104 849.506 170.293C850.595 170.481 851.63 169.752 851.819 168.664L847.877 167.981ZM849.716 178.768C849.976 177.694 849.316 176.613 848.243 176.353C847.169 176.094 846.088 176.753 845.828 177.827L849.716 178.768ZM845.588 178.804C845.322 179.876 845.975 180.961 847.047 181.228C848.119 181.494 849.204 180.841 849.47 179.769L845.588 178.804ZM846.683 189.702C847.012 188.647 846.424 187.526 845.37 187.197C844.315 186.868 843.194 187.456 842.865 188.51L846.683 189.702ZM842.56 189.478C842.225 190.531 842.806 191.655 843.859 191.99C844.911 192.325 846.036 191.744 846.371 190.691L842.56 189.478ZM842.982 200.425C843.372 199.391 842.851 198.237 841.818 197.847C840.785 197.457 839.631 197.978 839.24 199.011L842.982 200.425ZM838.877 199.965C838.481 200.996 838.996 202.153 840.028 202.549C841.059 202.945 842.216 202.429 842.611 201.398L838.877 199.965ZM838.689 210.916C839.134 209.905 838.675 208.724 837.665 208.279C836.654 207.834 835.473 208.292 835.028 209.303L838.689 210.916ZM834.612 210.241C834.162 211.249 834.615 212.432 835.624 212.882C836.633 213.332 837.815 212.879 838.265 211.87L834.612 210.241ZM833.866 221.162C834.36 220.175 833.961 218.973 832.973 218.478C831.985 217.984 830.784 218.383 830.289 219.371L833.866 221.162ZM829.832 220.279C829.333 221.265 829.727 222.468 830.713 222.967C831.698 223.466 832.901 223.071 833.4 222.086L829.832 220.279ZM828.565 231.157C829.105 230.193 828.761 228.974 827.797 228.435C826.833 227.895 825.614 228.239 825.075 229.203L828.565 231.157ZM824.58 230.083C824.037 231.044 824.376 232.264 825.337 232.808C826.299 233.351 827.519 233.012 828.062 232.051L824.58 230.083ZM822.832 240.896C823.412 239.957 823.121 238.724 822.181 238.144C821.241 237.563 820.009 237.854 819.429 238.794L822.832 240.896ZM818.878 239.685C818.302 240.627 818.598 241.858 819.54 242.435C820.482 243.011 821.713 242.715 822.29 241.773L818.878 239.685ZM817.751 250.354C818.201 249.345 817.747 248.163 816.738 247.714C815.729 247.264 814.547 247.718 814.097 248.727L817.751 250.354ZM813.684 249.674C813.249 250.69 813.72 251.865 814.736 252.3C815.751 252.735 816.927 252.264 817.361 251.248L813.684 249.674ZM814.278 260.382C814.542 259.309 813.887 258.226 812.814 257.962C811.741 257.698 810.658 258.354 810.394 259.427L814.278 260.382ZM810.151 260.456C809.907 261.534 810.583 262.605 811.66 262.849C812.737 263.093 813.808 262.417 814.052 261.34L810.151 260.456ZM812.841 270.829C812.87 269.724 811.999 268.805 810.895 268.776C809.791 268.747 808.872 269.618 808.843 270.722L812.841 270.829ZM808.826 271.768C808.82 272.872 809.71 273.773 810.815 273.779C811.919 273.785 812.82 272.895 812.826 271.79L808.826 271.768ZM813.788 281.247C813.558 280.167 812.496 279.477 811.416 279.707C810.335 279.937 809.646 280.999 809.876 282.08L813.788 281.247ZM810.103 283.095C810.356 284.171 811.433 284.837 812.508 284.584C813.584 284.33 814.25 283.254 813.997 282.178L810.103 283.095ZM817.15 291.166C816.679 290.167 815.487 289.739 814.488 290.21C813.489 290.681 813.061 291.873 813.532 292.872L817.15 291.166ZM813.988 293.814C814.479 294.803 815.679 295.207 816.669 294.716C817.658 294.225 818.062 293.025 817.571 292.036L813.988 293.814ZM822.629 300.2C821.966 299.316 820.713 299.137 819.829 299.8C818.946 300.463 818.767 301.717 819.429 302.6L822.629 300.2ZM820.065 303.433C820.743 304.305 821.999 304.463 822.871 303.785C823.744 303.108 823.901 301.851 823.224 300.979L820.065 303.433ZM829.727 308.134C828.927 307.372 827.661 307.404 826.9 308.204C826.138 309.004 826.169 310.269 826.969 311.031L829.727 308.134ZM827.693 311.711C828.503 312.462 829.768 312.415 830.519 311.605C831.27 310.795 831.223 309.53 830.413 308.778L827.693 311.711ZM837.96 314.951C837.065 314.303 835.815 314.502 835.166 315.396C834.518 316.29 834.717 317.541 835.611 318.189L837.96 314.951ZM836.414 318.765C837.315 319.405 838.564 319.192 839.203 318.291C839.842 317.391 839.63 316.142 838.729 315.503L836.414 318.765ZM847.017 320.778C846.059 320.229 844.837 320.562 844.288 321.521C843.74 322.48 844.073 323.701 845.032 324.25L847.017 320.778ZM845.885 324.733C846.849 325.273 848.068 324.93 848.608 323.967C849.148 323.003 848.805 321.784 847.841 321.244L845.885 324.733ZM856.591 325.689C855.588 325.227 854.4 325.666 853.938 326.669C853.476 327.673 853.916 328.861 854.919 329.322L856.591 325.689ZM855.872 329.756C856.879 330.211 858.063 329.762 858.517 328.756C858.971 327.749 858.523 326.564 857.516 326.11L855.872 329.756ZM866.536 329.814C865.501 329.428 864.349 329.954 863.962 330.988C863.576 332.023 864.102 333.175 865.136 333.562L866.536 329.814ZM866.103 333.919C867.14 334.299 868.289 333.766 868.669 332.729C869.049 331.692 868.516 330.543 867.479 330.163L866.103 333.919ZM876.782 333.266C875.725 332.946 874.608 333.544 874.288 334.601C873.968 335.658 874.565 336.774 875.622 337.095L876.782 333.266ZM876.592 337.385C877.651 337.7 878.764 337.097 879.079 336.038C879.393 334.979 878.79 333.866 877.731 333.551L876.592 337.385ZM887.285 336.127C886.212 335.866 885.13 336.524 884.869 337.597C884.608 338.67 885.266 339.752 886.339 340.013L887.285 336.127ZM887.304 340.246C888.378 340.503 889.457 339.839 889.714 338.765C889.97 337.691 889.307 336.612 888.233 336.355L887.304 340.246ZM898 338.455C896.916 338.246 895.867 338.957 895.659 340.041C895.45 341.126 896.161 342.174 897.245 342.383L898 338.455ZM898.223 342.569C899.309 342.773 900.354 342.058 900.558 340.973C900.763 339.887 900.048 338.842 898.962 338.638L898.223 342.569ZM908.621 340.257C907.528 340.095 906.511 340.85 906.349 341.942C906.188 343.035 906.942 344.052 908.035 344.213L908.621 340.257ZM909.041 344.36C910.134 344.518 911.148 343.76 911.306 342.666C911.463 341.573 910.705 340.559 909.612 340.401L909.041 344.36ZM919.435 341.637C918.336 341.519 917.35 342.313 917.231 343.411C917.113 344.509 917.907 345.496 919.005 345.614L919.435 341.637ZM919.992 345.719C921.091 345.834 922.075 345.037 922.19 343.938C922.305 342.84 921.507 341.856 920.409 341.741L919.992 345.719ZM930.362 342.617C929.26 342.538 928.303 343.367 928.224 344.469C928.145 345.57 928.974 346.528 930.076 346.607L930.362 342.617ZM931.105 346.679C932.207 346.754 933.161 345.922 933.237 344.82C933.312 343.718 932.48 342.764 931.378 342.688L931.105 346.679ZM941.153 343.212C940.049 343.169 939.12 344.029 939.077 345.132C939.034 346.236 939.893 347.166 940.997 347.209L941.153 343.212ZM942.002 347.247C943.106 347.286 944.033 346.424 944.073 345.32C944.113 344.216 943.25 343.289 942.146 343.249L942.002 347.247ZM952.149 343.469C951.044 343.46 950.142 344.348 950.133 345.453C950.124 346.557 951.012 347.46 952.116 347.469L952.149 343.469ZM953.097 347.476C954.202 347.482 955.102 346.591 955.108 345.487C955.115 344.382 954.224 343.482 953.12 343.476L953.097 347.476ZM962.983 343.403C961.879 343.425 961.002 344.338 961.024 345.442C961.046 346.547 961.959 347.424 963.064 347.402L962.983 343.403ZM964.076 347.38C965.18 347.355 966.055 346.44 966.03 345.335C966.005 344.231 965.09 343.356 963.985 343.381L964.076 347.38ZM973.933 343.034C972.829 343.086 971.977 344.022 972.029 345.126C972.08 346.229 973.017 347.081 974.12 347.03L973.933 343.034ZM975.106 346.982C976.209 346.928 977.059 345.989 977.005 344.886C976.951 343.783 976.012 342.933 974.909 342.987L975.106 346.982ZM984.808 342.385C983.706 342.464 982.877 343.422 982.957 344.524C983.036 345.625 983.994 346.454 985.096 346.374L984.808 342.385ZM986.108 346.3C987.21 346.218 988.036 345.259 987.954 344.157C987.872 343.056 986.913 342.229 985.811 342.311L986.108 346.3ZM995.704 341.466C994.604 341.572 993.799 342.549 993.904 343.649C994.01 344.748 994.987 345.554 996.087 345.448L995.704 341.466ZM997.071 345.352C998.17 345.244 998.974 344.265 998.866 343.166C998.758 342.067 997.779 341.263 996.68 341.371L997.071 345.352ZM1006.56 340.297C1005.46 340.428 1004.68 341.423 1004.81 342.52C1004.94 343.616 1005.93 344.4 1007.03 344.269L1006.56 340.297ZM1008.04 344.148C1009.13 344.015 1009.91 343.019 1009.78 341.922C1009.65 340.825 1008.65 340.044 1007.55 340.177L1008.04 344.148ZM1017.4 338.885C1016.31 339.039 1015.55 340.051 1015.7 341.145C1015.86 342.238 1016.87 343 1017.96 342.846L1017.4 338.885ZM1018.94 342.707C1020.04 342.55 1020.8 341.537 1020.64 340.444C1020.48 339.35 1019.47 338.591 1018.38 338.747L1018.94 342.707ZM1028.19 337.25C1027.1 337.426 1026.36 338.454 1026.53 339.544C1026.71 340.634 1027.74 341.375 1028.83 341.198L1028.19 337.25ZM1029.82 341.035C1030.91 340.856 1031.65 339.828 1031.47 338.738C1031.3 337.648 1030.27 336.909 1029.18 337.088L1029.82 341.035ZM1039 335.385C1037.91 335.583 1037.19 336.625 1037.39 337.712C1037.59 338.798 1038.63 339.518 1039.72 339.32L1039 335.385ZM1040.69 339.142C1041.78 338.942 1042.49 337.899 1042.29 336.812C1042.09 335.726 1041.05 335.008 1039.96 335.208L1040.69 339.142ZM1049.68 333.33C1048.6 333.549 1047.9 334.604 1048.11 335.687C1048.33 336.77 1049.39 337.47 1050.47 337.251L1049.68 333.33ZM1051.46 337.05C1052.54 336.83 1053.24 335.773 1053.02 334.691C1052.8 333.609 1051.74 332.91 1050.66 333.131L1051.46 337.05ZM1060.48 331.042C1059.4 331.281 1058.72 332.349 1058.96 333.427C1059.19 334.506 1060.26 335.186 1061.34 334.948L1060.48 331.042ZM1062.3 334.735C1063.38 334.494 1064.06 333.425 1063.81 332.347C1063.57 331.269 1062.51 330.59 1061.43 330.831L1062.3 334.735ZM1071.02 328.609C1069.95 328.867 1069.28 329.946 1069.54 331.021C1069.8 332.095 1070.88 332.757 1071.95 332.499L1071.02 328.609ZM1072.93 332.265C1074 332.005 1074.66 330.925 1074.4 329.851C1074.14 328.777 1073.06 328.117 1071.99 328.376L1072.93 332.265ZM1081.73 325.941C1080.66 326.217 1080.02 327.308 1080.3 328.378C1080.57 329.447 1081.66 330.09 1082.73 329.814L1081.73 325.941ZM1083.72 329.558C1084.79 329.281 1085.43 328.189 1085.15 327.12C1084.88 326.051 1083.78 325.409 1082.71 325.687L1083.72 329.558ZM1092.21 323.143C1091.15 323.437 1090.52 324.538 1090.82 325.603C1091.11 326.668 1092.21 327.293 1093.28 326.999L1092.21 323.143ZM1094.23 326.734C1095.3 326.439 1095.92 325.337 1095.63 324.273C1095.33 323.208 1094.23 322.585 1093.17 322.88L1094.23 326.734ZM1102.75 320.145C1101.69 320.456 1101.09 321.567 1101.4 322.627C1101.71 323.687 1102.82 324.294 1103.88 323.984L1102.75 320.145ZM1104.85 323.698C1105.91 323.386 1106.52 322.274 1106.2 321.215C1105.89 320.155 1104.78 319.549 1103.72 319.861L1104.85 323.698ZM1113.26 316.977C1112.2 317.304 1111.61 318.425 1111.94 319.48C1112.27 320.535 1113.39 321.125 1114.44 320.798L1113.26 316.977ZM1115.38 320.505C1116.44 320.177 1117.03 319.055 1116.7 318.001C1116.37 316.946 1115.25 316.358 1114.19 316.686L1115.38 320.505ZM1123.62 313.68C1122.57 314.023 1121.99 315.152 1122.34 316.202C1122.68 317.252 1123.81 317.825 1124.86 317.482L1123.62 313.68ZM1125.81 317.17C1126.86 316.826 1127.43 315.696 1127.09 314.647C1126.74 313.597 1125.61 313.025 1124.56 313.37L1125.81 317.17ZM1134.1 310.169C1133.06 310.528 1132.5 311.665 1132.86 312.71C1133.22 313.755 1134.35 314.311 1135.4 313.953L1134.1 310.169ZM1136.36 313.621C1137.41 313.262 1137.96 312.123 1137.6 311.079C1137.24 310.035 1136.1 309.48 1135.06 309.84L1136.36 313.621ZM1144.33 306.579C1143.29 306.952 1142.75 308.097 1143.12 309.137C1143.5 310.176 1144.64 310.717 1145.68 310.343L1144.33 306.579ZM1146.62 310.007C1147.65 309.633 1148.19 308.487 1147.82 307.448C1147.44 306.408 1146.3 305.87 1145.26 306.244L1146.62 310.007ZM1154.61 302.807C1153.57 303.195 1153.05 304.348 1153.44 305.382C1153.82 306.416 1154.98 306.941 1156.01 306.553L1154.61 302.807ZM1156.96 306.198C1157.99 305.809 1158.51 304.656 1158.12 303.622C1157.73 302.588 1156.58 302.066 1155.55 302.455L1156.96 306.198ZM1164.9 298.867C1163.88 299.269 1163.37 300.429 1163.77 301.458C1164.17 302.487 1165.33 302.995 1166.36 302.593L1164.9 298.867ZM1167.27 302.235C1168.3 301.832 1168.81 300.671 1168.41 299.643C1168 298.615 1166.84 298.108 1165.82 298.511L1167.27 302.235ZM1174.97 294.859C1173.95 295.274 1173.46 296.44 1173.87 297.464C1174.29 298.487 1175.45 298.981 1176.48 298.565L1174.97 294.859ZM1177.4 298.19C1178.42 297.773 1178.91 296.606 1178.5 295.583C1178.08 294.56 1176.92 294.068 1175.89 294.485L1177.4 298.19ZM1185.14 290.657C1184.12 291.086 1183.64 292.258 1184.07 293.276C1184.5 294.294 1185.67 294.772 1186.69 294.344L1185.14 290.657ZM1187.62 293.95C1188.64 293.52 1189.11 292.347 1188.69 291.33C1188.26 290.312 1187.08 289.836 1186.06 290.265L1187.62 293.95ZM1195.21 286.341C1194.2 286.783 1193.73 287.961 1194.17 288.974C1194.62 289.986 1195.79 290.449 1196.81 290.008L1195.21 286.341ZM1197.71 289.613C1198.72 289.17 1199.18 287.991 1198.74 286.979C1198.3 285.967 1197.12 285.505 1196.11 285.948L1197.71 289.613ZM1205.15 281.934C1204.14 282.388 1203.69 283.572 1204.15 284.579C1204.6 285.586 1205.78 286.034 1206.79 285.58L1205.15 281.934ZM1207.7 285.169C1208.71 284.714 1209.16 283.529 1208.7 282.522C1208.25 281.516 1207.06 281.069 1206.06 281.524L1207.7 285.169ZM1215.17 277.341C1214.17 277.807 1213.74 278.997 1214.2 279.998C1214.67 281 1215.86 281.434 1216.86 280.967L1215.17 277.341ZM1217.78 280.539C1218.78 280.072 1219.21 278.881 1218.74 277.88C1218.28 276.88 1217.09 276.447 1216.09 276.914L1217.78 280.539ZM1225.04 272.673C1224.05 273.151 1223.63 274.345 1224.11 275.341C1224.58 276.337 1225.78 276.757 1226.78 276.279L1225.04 272.673ZM1227.67 275.85C1228.66 275.371 1229.08 274.176 1228.6 273.181C1228.12 272.186 1226.93 271.767 1225.93 272.246L1227.67 275.85ZM1234.83 267.903C1233.84 268.392 1233.44 269.592 1233.93 270.582C1234.42 271.572 1235.62 271.978 1236.61 271.488L1234.83 267.903ZM1237.5 271.044C1238.49 270.553 1238.9 269.353 1238.41 268.364C1237.92 267.374 1236.72 266.97 1235.73 267.46L1237.5 271.044ZM1244.69 262.956C1243.71 263.457 1243.32 264.661 1243.82 265.645C1244.32 266.63 1245.52 267.022 1246.51 266.521L1244.69 262.956ZM1247.41 266.06C1248.4 265.558 1248.79 264.354 1248.28 263.37C1247.78 262.386 1246.58 261.995 1245.59 262.497L1247.41 266.06ZM1254.4 257.95C1253.42 258.462 1253.04 259.67 1253.55 260.649C1254.06 261.628 1255.27 262.006 1256.25 261.495L1254.4 257.95ZM1257.13 261.036C1258.1 260.523 1258.48 259.314 1257.97 258.336C1257.46 257.358 1256.25 256.981 1255.27 257.493L1257.13 261.036ZM1264.02 252.851C1263.04 253.374 1262.68 254.586 1263.2 255.559C1263.72 256.532 1264.94 256.898 1265.91 256.375L1264.02 252.851ZM1266.79 255.901C1267.76 255.378 1268.13 254.165 1267.6 253.192C1267.08 252.22 1265.87 251.856 1264.9 252.379L1266.79 255.901ZM1273.7 247.583C1272.73 248.116 1272.38 249.332 1272.91 250.3C1273.45 251.267 1274.66 251.619 1275.63 251.086L1273.7 247.583ZM1276.52 250.597C1277.49 250.063 1277.84 248.846 1277.3 247.879C1276.77 246.912 1275.55 246.561 1274.58 247.096L1276.52 250.597ZM1283.26 242.249C1282.3 242.792 1281.96 244.012 1282.5 244.974C1283.05 245.936 1284.27 246.275 1285.23 245.731L1283.26 242.249ZM1286.09 245.245C1287.05 244.701 1287.39 243.481 1286.84 242.52C1286.3 241.558 1285.08 241.22 1284.12 241.765L1286.09 245.245ZM1292.7 236.851C1291.74 237.405 1291.42 238.628 1291.97 239.584C1292.52 240.54 1293.75 240.867 1294.7 240.314L1292.7 236.851ZM1295.57 239.813C1296.52 239.259 1296.85 238.035 1296.29 237.08C1295.74 236.124 1294.51 235.799 1293.56 236.353L1295.57 239.813ZM1302.19 231.293C1301.24 231.856 1300.93 233.083 1301.49 234.033C1302.05 234.983 1303.28 235.297 1304.23 234.734L1302.19 231.293ZM1305.1 234.219C1306.05 233.655 1306.36 232.428 1305.8 231.478C1305.23 230.528 1304.01 230.215 1303.06 230.779L1305.1 234.219ZM1311.63 225.633C1310.69 226.206 1310.39 227.436 1310.96 228.38C1311.53 229.325 1312.76 229.626 1313.71 229.054L1311.63 225.633ZM1314.55 228.543C1315.49 227.97 1315.79 226.739 1315.22 225.795C1314.65 224.851 1313.42 224.551 1312.47 225.124L1314.55 228.543ZM1320.88 219.966C1319.94 220.548 1319.65 221.781 1320.23 222.72C1320.81 223.659 1322.05 223.948 1322.99 223.366L1320.88 219.966ZM1323.83 222.842C1324.77 222.259 1325.06 221.026 1324.48 220.088C1323.89 219.149 1322.66 218.861 1321.72 219.443L1323.83 222.842ZM1330.17 214.145C1329.24 214.736 1328.96 215.972 1329.55 216.905C1330.14 217.838 1331.38 218.115 1332.31 217.524L1330.17 214.145ZM1333.16 216.986C1334.09 216.394 1334.37 215.158 1333.78 214.225C1333.19 213.293 1331.95 213.016 1331.02 213.608L1333.16 216.986ZM1339.51 208.168C1338.58 208.768 1338.32 210.007 1338.92 210.934C1339.52 211.861 1340.75 212.127 1341.68 211.527L1339.51 208.168ZM1342.53 210.977C1343.46 210.376 1343.72 209.138 1343.12 208.211C1342.52 207.284 1341.28 207.019 1340.36 207.62L1342.53 210.977ZM1348.74 202.16C1347.82 202.765 1347.56 204.005 1348.16 204.929C1348.77 205.853 1350.01 206.112 1350.93 205.507L1348.74 202.16ZM1351.77 204.961C1352.69 204.356 1352.95 203.117 1352.34 202.193C1351.74 201.269 1350.5 201.01 1349.57 201.615L1351.77 204.961ZM1357.83 196.177C1356.91 196.787 1356.66 198.028 1357.27 198.949C1357.88 199.87 1359.12 200.123 1360.04 199.513L1357.83 196.177ZM1360.86 198.97C1361.78 198.36 1362.04 197.119 1361.43 196.198C1360.82 195.277 1359.57 195.025 1358.65 195.635L1360.86 198.97ZM1366.86 190.168C1365.95 190.783 1365.7 192.025 1366.31 192.943C1366.93 193.861 1368.17 194.107 1369.09 193.493L1366.86 190.168ZM1369.92 192.934C1370.84 192.319 1371.09 191.077 1370.47 190.159C1369.86 189.241 1368.62 188.996 1367.7 189.611L1369.92 192.934ZM1375.97 184.043C1375.05 184.662 1374.81 185.906 1375.43 186.82C1376.05 187.735 1377.29 187.975 1378.21 187.355L1375.97 184.043ZM1379.03 186.799C1379.94 186.179 1380.18 184.936 1379.56 184.021C1378.94 183.107 1377.7 182.868 1376.79 183.488L1379.03 186.799ZM1384.92 177.945C1384.01 178.569 1383.78 179.813 1384.4 180.725C1385.03 181.636 1386.27 181.869 1387.18 181.245L1384.92 177.945ZM1387.99 180.691C1388.9 180.066 1389.13 178.821 1388.51 177.91C1387.89 176.999 1386.64 176.767 1385.73 177.392L1387.99 180.691ZM1393.92 171.744C1393.02 172.373 1392.79 173.619 1393.42 174.527C1394.05 175.435 1395.29 175.661 1396.2 175.032L1393.92 171.744ZM1397.02 174.462C1397.93 173.832 1398.16 172.586 1397.53 171.679C1396.9 170.771 1395.65 170.546 1394.74 171.175L1397.02 174.462ZM1402.88 165.503C1401.97 166.138 1401.75 167.385 1402.39 168.289C1403.02 169.193 1404.27 169.412 1405.17 168.778L1402.88 165.503ZM1405.98 168.211C1406.88 167.577 1407.1 166.329 1406.47 165.425C1405.83 164.521 1404.59 164.303 1403.68 164.938L1405.98 168.211ZM1411.71 159.268C1410.81 159.907 1410.6 161.156 1411.24 162.056C1411.88 162.957 1413.13 163.169 1414.03 162.53L1411.71 159.268ZM1414.85 161.947C1415.75 161.307 1415.96 160.058 1415.32 159.158C1414.68 158.257 1413.43 158.046 1412.53 158.686L1414.85 161.947ZM1420.65 152.883C1419.76 153.528 1419.55 154.778 1420.2 155.674C1420.84 156.571 1422.09 156.776 1422.99 156.131L1420.65 152.883ZM1423.79 155.551C1424.69 154.906 1424.89 153.656 1424.25 152.76C1423.6 151.863 1422.35 151.659 1421.46 152.304L1423.79 155.551ZM1429.43 146.533C1428.54 147.183 1428.34 148.434 1428.99 149.327C1429.64 150.22 1430.89 150.418 1431.79 149.768L1429.43 146.533ZM1432.58 149.191C1433.47 148.54 1433.67 147.289 1433.02 146.397C1432.37 145.504 1431.12 145.307 1430.22 145.958L1432.58 149.191ZM1438.26 140.072C1437.37 140.727 1437.18 141.979 1437.83 142.868C1438.49 143.758 1439.74 143.947 1440.63 143.292L1438.26 140.072ZM1441.43 142.699C1442.32 142.043 1442.51 140.791 1441.86 139.902C1441.2 139.013 1439.95 138.824 1439.06 139.48L1441.43 142.699ZM1447.01 133.58C1446.12 134.241 1445.94 135.494 1446.6 136.379C1447.26 137.264 1448.52 137.446 1449.4 136.785L1447.01 133.58ZM1450.19 136.196C1451.07 135.534 1451.25 134.281 1450.59 133.396C1449.93 132.512 1448.68 132.331 1447.79 132.992L1450.19 136.196ZM1455.69 127.057C1454.81 127.723 1454.63 128.978 1455.3 129.858C1455.96 130.739 1457.22 130.913 1458.1 130.247L1455.69 127.057ZM1458.9 129.64C1459.78 128.973 1459.95 127.719 1459.29 126.838C1458.62 125.958 1457.37 125.785 1456.49 126.452L1458.9 129.64ZM1464.4 120.422C1463.52 121.095 1463.35 122.35 1464.03 123.227C1464.7 124.103 1465.95 124.269 1466.83 123.597L1464.4 120.422ZM1467.62 122.994C1468.49 122.321 1468.66 121.066 1467.98 120.19C1467.31 119.314 1466.05 119.149 1465.18 119.822L1467.62 122.994ZM1472.94 113.825C1472.07 114.502 1471.91 115.759 1472.59 116.631C1473.27 117.503 1474.52 117.66 1475.4 116.983L1472.94 113.825ZM1476.19 116.363C1477.06 115.684 1477.22 114.428 1476.54 113.556C1475.86 112.684 1474.61 112.528 1473.74 113.206L1476.19 116.363ZM1481.6 107.047C1480.73 107.731 1480.58 108.989 1481.27 109.856C1481.95 110.723 1483.21 110.872 1484.07 110.188L1481.6 107.047ZM1484.85 109.573C1485.72 108.889 1485.87 107.631 1485.18 106.764C1484.5 105.897 1483.24 105.749 1482.38 106.434L1484.85 109.573ZM1490.07 100.32C1489.21 101.01 1489.07 102.269 1489.76 103.131C1490.45 103.994 1491.71 104.134 1492.57 103.444L1490.07 100.32ZM1493.33 102.834C1494.19 102.143 1494.33 100.884 1493.64 100.022C1492.95 99.1601 1491.69 99.0208 1490.83 99.7112L1493.33 102.834ZM1498.61 93.4418C1497.75 94.1378 1497.62 95.3974 1498.32 96.255C1499.01 97.1127 1500.27 97.2437 1501.13 96.5477L1498.61 93.4418ZM1501.9 95.9197C1502.76 95.2231 1502.89 93.9635 1502.19 93.1063C1501.5 92.2491 1500.24 92.1189 1499.38 92.8155L1501.9 95.9197ZM1507 86.5785C1506.15 87.2808 1506.03 88.5412 1506.73 89.3938C1507.43 90.2464 1508.69 90.3682 1509.55 89.666L1507 86.5785ZM1510.3 89.0432C1511.15 88.3404 1511.27 87.0798 1510.57 86.2277C1509.87 85.3756 1508.61 85.2546 1507.76 85.9574L1510.3 89.0432ZM1515.42 79.5933C1514.57 80.302 1514.46 81.5633 1515.17 82.4105C1515.88 83.2578 1517.14 83.3702 1517.98 82.6615L1515.42 79.5933ZM1518.75 82.0209C1519.6 81.3117 1519.71 80.0503 1519 79.2035C1518.29 78.3567 1517.03 78.2452 1516.18 78.9545L1518.75 82.0209ZM1523.72 72.5961C1522.88 73.3113 1522.77 74.5734 1523.49 75.4152C1524.2 76.257 1525.47 76.3597 1526.31 75.6445L1523.72 72.5961ZM1527.06 75.0098C1527.9 74.294 1528 73.0318 1527.28 72.1905C1526.57 71.3492 1525.3 71.2475 1524.46 71.9632L1527.06 75.0098ZM1532.02 65.4893C1531.18 66.2111 1531.09 67.474 1531.81 68.3101C1532.53 69.1462 1533.8 69.2388 1534.63 68.517L1532.02 65.4893ZM1535.39 67.8641C1536.22 67.1417 1536.31 65.8787 1535.59 65.0431C1534.87 64.2076 1533.61 64.1159 1532.77 64.8383L1535.39 67.8641ZM1540.21 58.362C1539.38 59.0906 1539.29 60.3542 1540.02 61.1844C1540.75 62.0146 1542.01 62.097 1542.84 61.3684L1540.21 58.362ZM1543.58 60.722C1544.41 59.9928 1544.49 58.7291 1543.76 57.8995C1543.03 57.0698 1541.77 56.9884 1540.94 57.7177L1543.58 60.722ZM1548.39 51.118C1547.57 51.8535 1547.49 53.1179 1548.23 53.9419C1548.97 54.7659 1550.23 54.8376 1551.05 54.102L1548.39 51.118ZM1551.8 53.4373C1552.62 52.7011 1552.69 51.4367 1551.96 50.6133C1551.22 49.7898 1549.96 49.7191 1549.13 50.4554L1551.8 53.4373ZM1556.44 43.8662C1555.63 44.6089 1555.57 45.8737 1556.31 46.6914C1557.05 47.509 1558.32 47.5698 1559.13 46.8271L1556.44 43.8662ZM1559.86 46.1698C1560.67 45.4265 1560.73 44.1616 1559.99 43.3445C1559.25 42.5275 1557.98 42.4677 1557.16 43.211L1559.86 46.1698ZM1564.51 36.469C1563.7 37.219 1563.65 38.4844 1564.4 39.2953C1565.15 40.1062 1566.42 40.1556 1567.23 39.4057L1564.51 36.469ZM1567.96 38.7297C1568.77 37.9791 1568.82 36.7137 1568.07 35.9034C1567.32 35.0931 1566.05 35.0447 1565.24 35.7954L1567.96 38.7297ZM1572.41 29.1006C1571.61 29.858 1571.57 31.1238 1572.33 31.9278C1573.08 32.7318 1574.35 32.7696 1575.15 32.0123L1572.41 29.1006ZM1575.88 31.3282C1576.68 30.5701 1576.72 29.3043 1575.96 28.5009C1575.2 27.6976 1573.94 27.6608 1573.13 28.4189L1575.88 31.3282ZM1580.37 21.5342C1579.57 22.2993 1579.54 23.5654 1580.31 24.3621C1581.07 25.1588 1582.34 25.1844 1583.14 24.4193L1580.37 21.5342ZM1583.85 23.733C1584.65 22.9672 1584.67 21.7011 1583.9 20.9051C1583.14 20.1091 1581.87 20.0846 1581.08 20.8505L1583.85 23.733ZM1588.14 13.992C1587.35 14.7649 1587.34 16.0311 1588.11 16.8202C1588.89 17.6093 1590.15 17.6224 1590.94 16.8495L1588.14 13.992ZM1591.66 16.1436C1592.45 15.3699 1592.46 14.1037 1591.69 13.3153C1590.91 12.5269 1589.65 12.515 1588.86 13.2887L1591.66 16.1436ZM1595.91 6.30888C1595.12 7.08992 1595.12 8.35625 1595.91 9.1373C1596.69 9.91836 1597.95 9.91837 1598.73 9.13734L1595.91 6.30888ZM1599.43 8.44199C1600.21 7.66022 1600.21 6.39389 1599.43 5.61357C1598.64 4.83325 1597.38 4.83443 1596.6 5.61622L1599.43 8.44199ZM1603.57 -1.43544C1602.8 -0.646054 1602.81 0.62019 1603.6 1.39283C1604.39 2.16546 1605.65 2.15189 1606.43 1.3625L1603.57 -1.43544ZM1607.13 0.647693C1607.9 -0.142449 1607.88 -1.40869 1607.09 -2.18054C1606.3 -2.95237 1605.04 -2.93753 1604.26 -2.14738L1607.13 0.647693ZM1611.09 -9.2066C1610.33 -8.40869 1610.35 -7.14266 1611.15 -6.37884C1611.95 -5.61502 1613.22 -5.64267 1613.98 -6.44056L1611.09 -9.2066ZM1614.66 -7.15033C1615.42 -7.94903 1615.39 -9.21503 1614.59 -9.97803C1613.8 -10.741 1612.53 -10.7121 1611.77 -9.91339L1614.66 -7.15033ZM1618.62 -17.1679C1617.87 -16.361 1617.91 -15.0954 1618.72 -14.341C1619.53 -13.5866 1620.79 -13.6292 1621.55 -14.436L1618.62 -17.1679ZM1622.22 -15.1578C1622.97 -15.9655 1622.93 -17.231 1622.12 -17.9845C1621.31 -18.7381 1620.05 -18.6941 1619.29 -17.8865L1622.22 -15.1578ZM1626 -25.1503C1625.25 -24.3342 1625.31 -23.0692 1626.13 -22.3248C1626.94 -21.5803 1628.21 -21.6383 1628.95 -22.4543L1626 -25.1503ZM1629.63 -23.196C1630.37 -24.0128 1630.31 -25.2778 1629.49 -26.0213C1628.68 -26.7648 1627.41 -26.7053 1626.67 -25.8885L1629.63 -23.196ZM1633.24 -33.1936C1632.51 -32.3681 1632.58 -31.1039 1633.41 -30.37C1634.23 -29.636 1635.5 -29.7102 1636.23 -30.5357L1633.24 -33.1936ZM1636.88 -31.2696C1637.62 -32.0959 1637.54 -33.36 1636.71 -34.0929C1635.89 -34.8259 1634.62 -34.7502 1633.89 -33.9239L1636.88 -31.2696ZM1640.46 -41.4235C1639.74 -40.588 1639.83 -39.325 1640.66 -38.6024C1641.5 -37.8798 1642.76 -37.9713 1643.49 -38.8067L1640.46 -41.4235ZM1644.13 -39.5517C1644.85 -40.388 1644.76 -41.6509 1643.92 -42.3724C1643.08 -43.094 1641.82 -43.0009 1641.1 -42.1646L1644.13 -39.5517ZM1647.52 -49.7067C1646.81 -48.861 1646.92 -47.5994 1647.77 -46.8889C1648.61 -46.1784 1649.87 -46.288 1650.58 -47.1338L1647.52 -49.7067ZM1651.23 -47.898C1651.94 -48.7447 1651.82 -50.0062 1650.98 -50.7155C1650.13 -51.4249 1648.87 -51.3135 1648.16 -50.4668L1651.23 -47.898ZM1654.43 -58.0577C1653.73 -57.2013 1653.86 -55.9415 1654.72 -55.244C1655.58 -54.5465 1656.84 -54.6753 1657.53 -55.5318L1654.43 -58.0577ZM1658.17 -56.3159C1658.87 -57.1734 1658.74 -58.433 1657.88 -59.1292C1657.02 -59.8255 1655.76 -59.6948 1655.07 -58.8373L1658.17 -56.3159ZM1661.21 -66.5176C1660.52 -65.6498 1660.67 -64.3923 1661.54 -63.7089C1662.41 -63.0255 1663.67 -63.1749 1664.35 -64.0426L1661.21 -66.5176ZM1664.96 -64.8219C1665.65 -65.6907 1665.49 -66.948 1664.63 -67.6301C1663.76 -68.3122 1662.5 -68.1608 1661.82 -67.292L1664.96 -64.8219ZM1667.89 -75.1531C1667.22 -74.2734 1667.39 -73.0187 1668.27 -72.3508C1669.15 -71.6829 1670.41 -71.8546 1671.07 -72.7343L1667.89 -75.1531ZM1671.66 -73.5124C1672.33 -74.3932 1672.16 -75.6476 1671.27 -76.314C1670.39 -76.9805 1669.14 -76.8068 1668.47 -75.9259L1671.66 -73.5124ZM1674.39 -83.8885C1673.74 -82.9961 1673.94 -81.745 1674.83 -81.0941C1675.72 -80.4432 1676.97 -80.639 1677.62 -81.5315L1674.39 -83.8885ZM1678.2 -82.326C1678.85 -83.2196 1678.65 -84.4703 1677.76 -85.1196C1676.86 -85.7689 1675.61 -85.5708 1674.96 -84.6772L1678.2 -82.326ZM1680.71 -92.7389C1680.07 -91.8329 1680.3 -90.5862 1681.2 -89.9543C1682.11 -89.3225 1683.35 -89.5447 1683.99 -90.4506L1680.71 -92.7389ZM1684.55 -91.2607C1685.18 -92.1679 1684.96 -93.4142 1684.05 -94.0442C1683.14 -94.6743 1681.89 -94.4496 1681.26 -93.5424L1684.55 -91.2607ZM1686.82 -101.719C1686.21 -100.798 1686.46 -99.5569 1687.38 -98.9464C1688.3 -98.336 1689.54 -98.5874 1690.15 -99.508L1686.82 -101.719ZM1690.69 -100.332C1691.3 -101.254 1691.05 -102.494 1690.13 -103.103C1689.2 -103.711 1687.96 -103.457 1687.36 -102.535L1690.69 -100.332ZM1692.69 -110.839C1692.11 -109.902 1692.39 -108.668 1693.33 -108.082C1694.27 -107.497 1695.5 -107.781 1696.09 -108.717L1692.69 -110.839ZM1696.61 -109.553C1697.19 -110.491 1696.9 -111.724 1695.96 -112.307C1695.03 -112.891 1693.79 -112.603 1693.21 -111.665L1696.61 -109.553ZM1698.3 -120.103C1697.74 -119.149 1698.06 -117.925 1699.02 -117.368C1699.97 -116.811 1701.2 -117.133 1701.75 -118.087L1698.3 -120.103ZM1702.24 -118.93C1702.8 -119.885 1702.47 -121.109 1701.52 -121.663C1700.56 -122.217 1699.34 -121.891 1698.78 -120.935L1702.24 -118.93ZM1703.56 -129.502C1703.04 -128.528 1703.41 -127.316 1704.38 -126.795C1705.35 -126.273 1706.57 -126.64 1707.09 -127.614L1703.56 -129.502ZM1707.57 -128.526C1708.09 -129.502 1707.72 -130.713 1706.74 -131.23C1705.77 -131.748 1704.56 -131.376 1704.04 -130.401L1707.57 -128.526ZM1708.49 -139.219C1708.01 -138.222 1708.44 -137.028 1709.43 -136.553C1710.43 -136.077 1711.62 -136.5 1712.1 -137.497L1708.49 -139.219ZM1712.53 -138.406C1713 -139.405 1712.57 -140.597 1711.57 -141.067C1710.57 -141.538 1709.38 -141.109 1708.91 -140.109L1712.53 -138.406ZM1712.81 -149.016C1712.4 -147.991 1712.9 -146.826 1713.92 -146.414C1714.95 -146.002 1716.11 -146.499 1716.52 -147.524L1712.81 -149.016ZM1716.91 -148.488C1717.31 -149.516 1716.8 -150.677 1715.78 -151.082C1714.75 -151.486 1713.59 -150.981 1713.18 -149.953L1716.91 -148.488ZM1716.36 -159.137C1716.05 -158.077 1716.66 -156.967 1717.72 -156.659C1718.78 -156.35 1719.89 -156.96 1720.2 -158.021L1716.36 -159.137ZM-7.80453 252.876C-7.69429 252.762 -7.58374 252.647 -7.47289 252.532L-10.35 249.753C-10.4619 249.869 -10.5734 249.985 -10.6846 250.1L-7.80453 252.876ZM-0.550094 245.509C-0.320546 245.28 -0.0899723 245.051 0.141621 244.822L-2.67489 241.981C-2.90818 242.213 -3.14045 242.443 -3.3717 242.674L-0.550094 245.509ZM7.22932 237.914C7.4661 237.687 7.70374 237.46 7.94225 237.232L5.17909 234.34C4.93905 234.569 4.69987 234.798 4.46155 235.026L7.22932 237.914ZM15.1578 230.445C15.3998 230.22 15.6426 229.996 15.8862 229.771L13.1719 226.833C12.9269 227.059 12.6827 227.285 12.4392 227.511L15.1578 230.445ZM23.2109 223.101C23.457 222.88 23.7038 222.658 23.9512 222.437L21.2829 219.457C21.0342 219.68 20.786 219.902 20.5386 220.124L23.2109 223.101ZM31.3758 215.879C31.6252 215.662 31.8751 215.444 32.1256 215.227L29.5018 212.207C29.2499 212.426 28.9987 212.645 28.7479 212.863L31.3758 215.879ZM39.6455 208.777C39.8977 208.564 40.1503 208.35 40.4035 208.136L37.8231 205.08C37.5686 205.295 37.3146 205.509 37.0612 205.724L39.6455 208.777ZM48.0161 201.792C48.2708 201.583 48.5259 201.373 48.7814 201.163L46.2442 198.071C45.9873 198.282 45.7309 198.493 45.4749 198.703L48.0161 201.792ZM56.4853 194.924C56.7423 194.718 56.9998 194.513 57.2576 194.307L54.7636 191.18C54.5045 191.386 54.2458 191.593 53.9874 191.799L56.4853 194.924ZM65.0515 188.172C65.3109 187.97 65.5706 187.769 65.8307 187.567L63.3805 184.405C63.1191 184.608 62.858 184.811 62.5974 185.013L65.0515 188.172ZM73.7133 181.539C73.975 181.341 74.2371 181.144 74.4995 180.946L72.094 177.75C71.8302 177.949 71.5668 178.147 71.3037 178.346L73.7133 181.539ZM82.4667 175.03C82.7318 174.836 82.9971 174.642 83.2628 174.447L80.9032 171.218C80.6361 171.413 80.3694 171.608 80.1029 171.803L82.4667 175.03ZM91.2932 168.661C91.5637 168.469 91.8345 168.277 92.1056 168.085L89.7931 164.821C89.5206 165.014 89.2483 165.207 88.9764 165.401L91.2932 168.661ZM100.218 162.419C100.49 162.232 100.763 162.044 101.036 161.857L98.7728 158.559C98.4982 158.747 98.2239 158.936 97.9498 159.124L100.218 162.419ZM109.24 156.31C109.515 156.127 109.79 155.944 110.065 155.761L107.853 152.429C107.576 152.612 107.299 152.796 107.023 152.98L109.24 156.31ZM118.359 150.34C118.636 150.161 118.914 149.983 119.191 149.805L117.032 146.438C116.753 146.617 116.474 146.796 116.195 146.976L118.359 150.34ZM127.573 144.518C127.853 144.344 128.133 144.171 128.414 143.998L126.31 140.595C126.028 140.77 125.746 140.944 125.465 141.119L127.573 144.518ZM136.879 138.855C137.162 138.686 137.446 138.517 137.731 138.348L135.686 134.91C135.4 135.08 135.115 135.25 134.829 135.42L136.879 138.855ZM146.278 133.359C146.564 133.195 146.851 133.031 147.138 132.868L145.156 129.393C144.867 129.558 144.578 129.723 144.29 129.888L146.278 133.359ZM155.778 128.036C156.067 127.878 156.357 127.719 156.646 127.561L154.731 124.05C154.439 124.209 154.147 124.369 153.856 124.528L155.778 128.036ZM165.378 122.898C165.671 122.745 165.963 122.593 166.256 122.441L164.41 118.892C164.115 119.045 163.821 119.199 163.526 119.353L165.378 122.898ZM175.077 117.959C175.373 117.812 175.669 117.666 175.965 117.52L174.194 113.933C173.896 114.08 173.598 114.228 173.3 114.376L175.077 117.959ZM184.875 113.232C185.174 113.092 185.473 112.952 185.772 112.813L184.082 109.187C183.78 109.328 183.479 109.469 183.177 109.61L184.875 113.232ZM194.783 108.728C195.084 108.596 195.386 108.464 195.687 108.332L194.083 104.667C193.779 104.8 193.475 104.934 193.171 105.068L194.783 108.728ZM204.795 104.468C205.099 104.343 205.404 104.218 205.709 104.094L204.198 100.39C203.89 100.516 203.583 100.642 203.275 100.768L204.795 104.468ZM214.908 100.471C215.216 100.354 215.524 100.238 215.832 100.121L214.422 96.3783C214.111 96.4956 213.799 96.6134 213.488 96.7315L214.908 100.471ZM225.12 96.7585C225.432 96.6503 225.744 96.5425 226.056 96.4351L224.754 92.6529C224.439 92.7614 224.124 92.8703 223.808 92.9798L225.12 96.7585ZM235.43 93.3537C235.746 93.2549 236.061 93.1566 236.377 93.0588L235.193 89.2381C234.873 89.337 234.554 89.4364 234.235 89.5364L235.43 93.3537ZM245.844 90.2792C246.16 90.1917 246.476 90.1047 246.791 90.0182L245.735 86.1602C245.415 86.2477 245.096 86.3358 244.776 86.4244L245.844 90.2792ZM256.361 87.5634C256.68 87.4872 256.999 87.4115 257.318 87.3365L256.401 83.443C256.078 83.5191 255.755 83.5957 255.431 83.673L256.361 87.5634ZM266.963 85.2411C267.285 85.1771 267.607 85.1138 267.929 85.0511L267.163 81.125C266.837 81.1886 266.51 81.2529 266.184 81.3178L266.963 85.2411ZM277.64 83.3462C277.965 83.2956 278.289 83.2457 278.614 83.1964L278.013 79.2418C277.684 79.2918 277.354 79.3425 277.024 79.3939L277.64 83.3462ZM288.379 81.9151C288.706 81.8791 289.033 81.8438 289.359 81.8092L288.938 77.8314C288.606 77.8666 288.273 77.9025 287.941 77.9392L288.379 81.9151ZM299.164 80.9863C299.492 80.9661 299.82 80.9467 300.148 80.928L299.921 76.9345C299.587 76.9535 299.252 76.9733 298.918 76.9938L299.164 80.9863ZM309.973 80.5998C310.302 80.5967 310.63 80.5944 310.959 80.5929L310.941 76.593C310.606 76.5945 310.271 76.5968 309.935 76.6L309.973 80.5998ZM320.78 80.7961C321.108 80.8113 321.436 80.8274 321.764 80.8444L321.971 76.8497C321.636 76.8324 321.301 76.816 320.965 76.8004L320.78 80.7961ZM331.555 81.6148C331.717 81.6321 331.879 81.6496 332.041 81.6673L332.475 77.6909C332.309 77.6728 332.143 77.6549 331.977 77.6372L331.555 81.6148ZM332.041 81.6673C332.217 81.6865 332.393 81.7059 332.567 81.7256L333.016 77.7508C332.836 77.7306 332.656 77.7106 332.475 77.6909L332.041 81.6673ZM342.439 83.2176C342.748 83.2774 343.055 83.3383 343.36 83.4L344.154 79.4798C343.838 79.4157 343.52 79.3527 343.2 79.2907L342.439 83.2176ZM352.877 85.8419C353.18 85.9383 353.481 86.0359 353.779 86.1348L355.038 82.3381C354.724 82.234 354.408 82.1312 354.089 82.0299L352.877 85.8419ZM362.713 89.822C362.994 89.9652 363.272 90.1098 363.547 90.2559L365.424 86.7234C365.128 86.5663 364.829 86.4109 364.527 86.2573L362.713 89.822ZM371.465 95.5273C371.702 95.7253 371.935 95.925 372.165 96.1264L374.8 93.1168C374.547 92.8951 374.29 92.6754 374.03 92.4578L371.465 95.5273ZM378.417 103.172C378.596 103.435 378.77 103.7 378.94 103.967L382.311 101.812C382.121 101.516 381.927 101.221 381.729 100.929L378.417 103.172ZM382.957 112.505C383.056 112.805 383.151 113.107 383.243 113.411L387.071 112.253C386.971 111.92 386.866 111.589 386.758 111.259L382.957 112.505ZM385.044 122.8C385.074 123.123 385.103 123.447 385.128 123.772L389.116 123.46C389.089 123.112 389.058 122.765 389.026 122.42L385.044 122.8ZM385.165 133.479C385.144 133.811 385.122 134.143 385.097 134.477L389.086 134.774C389.112 134.425 389.136 134.076 389.157 133.729L385.165 133.479ZM383.868 144.19C383.812 144.512 383.755 144.834 383.696 145.157L387.632 145.872C387.693 145.539 387.752 145.206 387.809 144.874L383.868 144.19ZM381.583 154.788C381.504 155.099 381.424 155.411 381.343 155.724L385.214 156.729C385.297 156.41 385.379 156.09 385.46 155.772L381.583 154.788ZM378.605 165.243C378.508 165.553 378.41 165.863 378.312 166.173L382.124 167.384C382.224 167.069 382.324 166.753 382.422 166.438L378.605 165.243ZM375.133 175.57C375.022 175.882 374.91 176.195 374.797 176.507L378.56 177.864C378.674 177.547 378.787 177.231 378.9 176.915L375.133 175.57ZM371.307 185.797C371.186 186.109 371.064 186.421 370.942 186.733L374.666 188.192C374.79 187.877 374.912 187.563 375.035 187.249L371.307 185.797ZM367.231 195.955C367.104 196.263 366.977 196.571 366.849 196.879L370.546 198.408C370.674 198.098 370.802 197.788 370.93 197.478L367.231 195.955ZM362.989 206.069C362.858 206.375 362.728 206.681 362.597 206.987L366.277 208.556C366.407 208.249 366.538 207.943 366.669 207.636L362.989 206.069ZM358.654 216.165C358.523 216.47 358.391 216.775 358.259 217.08L361.932 218.666C362.063 218.361 362.195 218.055 362.327 217.75L358.654 216.165ZM354.299 226.268C354.168 226.575 354.036 226.881 353.905 227.186L357.582 228.762C357.713 228.457 357.844 228.152 357.975 227.846L354.299 226.268ZM349.995 236.409C349.867 236.718 349.738 237.026 349.61 237.334L353.302 238.872C353.43 238.565 353.558 238.259 353.686 237.952L349.995 236.409ZM345.827 246.623C345.703 246.936 345.58 247.248 345.457 247.559L349.179 249.025C349.3 248.716 349.422 248.407 349.545 248.097L345.827 246.623ZM341.897 256.958C341.783 257.275 341.669 257.592 341.556 257.908L345.322 259.255C345.433 258.943 345.546 258.631 345.659 258.318L341.897 256.958ZM338.357 267.47C338.257 267.793 338.158 268.115 338.061 268.436L341.89 269.595C341.985 269.281 342.081 268.965 342.179 268.649L338.357 267.47ZM335.443 278.223C335.368 278.551 335.295 278.879 335.224 279.205L339.131 280.059C339.2 279.745 339.271 279.429 339.343 279.112L335.443 278.223ZM333.578 289.258C333.545 289.589 333.514 289.918 333.486 290.246L337.471 290.588C337.497 290.28 337.526 289.97 337.558 289.658L333.578 289.258ZM333.568 300.663C333.61 301.02 333.658 301.373 333.71 301.725L337.666 301.139C337.62 300.825 337.578 300.508 337.539 300.188L333.568 300.663ZM336.961 311.811C337.132 312.125 337.31 312.435 337.494 312.741L340.922 310.68C340.767 310.422 340.617 310.161 340.473 309.896L336.961 311.811ZM344.802 320.516C345.094 320.721 345.393 320.922 345.697 321.118L347.87 317.76C347.607 317.59 347.35 317.417 347.098 317.24L344.802 320.516ZM355.365 325.415C355.714 325.517 356.068 325.616 356.426 325.712L357.462 321.848C357.133 321.76 356.808 321.669 356.489 321.576L355.365 325.415ZM366.566 327.49C366.877 327.521 367.191 327.55 367.507 327.577L367.853 323.592C367.552 323.566 367.254 323.539 366.958 323.51L366.566 327.49ZM377.747 327.914C377.931 327.912 378.115 327.909 378.3 327.905L378.226 323.906C378.047 323.909 377.869 323.912 377.691 323.915L377.747 327.914ZM378.3 327.905C378.47 327.902 378.64 327.899 378.81 327.895L378.724 323.896C378.558 323.9 378.392 323.903 378.226 323.906L378.3 327.905ZM388.928 327.352C389.262 327.324 389.596 327.294 389.93 327.263L389.564 323.28C389.238 323.31 388.912 323.339 388.586 323.367L388.928 327.352ZM399.976 326.019C400.309 325.967 400.641 325.914 400.974 325.86L400.334 321.912C400.01 321.964 399.685 322.016 399.361 322.066L399.976 326.019ZM410.9 323.939C411.228 323.865 411.557 323.79 411.885 323.714L410.984 319.817C410.663 319.891 410.343 319.964 410.021 320.037L410.9 323.939ZM421.657 321.153C421.981 321.058 422.304 320.962 422.626 320.866L421.48 317.033C421.165 317.128 420.849 317.221 420.533 317.314L421.657 321.153ZM432.218 317.71C432.535 317.596 432.851 317.482 433.167 317.366L431.796 313.609C431.486 313.721 431.177 313.834 430.867 313.945L432.218 317.71ZM442.56 313.667C442.869 313.536 443.177 313.405 443.486 313.273L441.911 309.596C441.608 309.725 441.305 309.854 441.002 309.982L442.56 313.667ZM452.67 309.083C452.971 308.937 453.271 308.791 453.572 308.644L451.814 305.051C451.519 305.195 451.223 305.339 450.928 305.482L452.67 309.083ZM462.529 304.026C462.826 303.865 463.122 303.703 463.418 303.541L461.499 300.032C461.207 300.192 460.915 300.35 460.623 300.509L462.529 304.026ZM472.146 298.55C472.435 298.377 472.724 298.204 473.012 298.031L470.951 294.603C470.666 294.774 470.381 294.945 470.096 295.115L472.146 298.55ZM481.537 292.704C481.818 292.521 482.1 292.338 482.381 292.155L480.195 288.805C479.917 288.986 479.639 289.167 479.361 289.347L481.537 292.704ZM490.715 286.534C490.99 286.343 491.264 286.151 491.539 285.959L489.244 282.682C488.973 282.872 488.702 283.062 488.43 283.251L490.715 286.534ZM499.696 280.083C499.964 279.884 500.232 279.685 500.5 279.486L498.112 276.277C497.847 276.474 497.582 276.671 497.316 276.868L499.696 280.083ZM508.496 273.388C508.758 273.183 509.02 272.978 509.282 272.772L506.814 269.625C506.554 269.829 506.294 270.032 506.034 270.235L508.496 273.388ZM517.11 266.501C517.37 266.288 517.63 266.075 517.89 265.862L515.352 262.77C515.094 262.982 514.836 263.193 514.578 263.404L517.11 266.501ZM525.577 259.437C525.832 259.22 526.086 259.003 526.341 258.785L523.745 255.743C523.492 255.959 523.238 256.174 522.985 256.39L525.577 259.437ZM533.916 252.22C534.166 252 534.417 251.779 534.667 251.558L532.021 248.558C531.772 248.778 531.523 248.998 531.273 249.217L533.916 252.22ZM542.143 244.876C542.39 244.653 542.637 244.429 542.883 244.205L540.196 241.242C539.95 241.465 539.704 241.688 539.459 241.91L542.143 244.876ZM550.271 237.431C550.515 237.204 550.76 236.977 551.005 236.75L548.284 233.818C548.04 234.045 547.796 234.271 547.552 234.496L550.271 237.431ZM558.308 229.912C558.551 229.683 558.794 229.454 559.037 229.224L556.289 226.317C556.047 226.546 555.805 226.775 555.563 227.003L558.308 229.912ZM566.286 222.327C566.527 222.096 566.768 221.865 567.009 221.635L564.241 218.747C564.001 218.977 563.76 219.207 563.52 219.437L566.286 222.327ZM574.217 214.695C574.456 214.463 574.696 214.231 574.935 214L572.154 211.125C571.915 211.356 571.676 211.588 571.436 211.819L574.217 214.695ZM582.113 207.036C582.352 206.804 582.591 206.572 582.83 206.339L580.041 203.472C579.802 203.704 579.564 203.936 579.325 204.168L582.113 207.036ZM589.992 199.367C590.231 199.135 590.47 198.903 590.708 198.671L587.918 195.805C587.679 196.037 587.441 196.269 587.202 196.501L589.992 199.367ZM597.873 191.701C598.112 191.469 598.351 191.237 598.59 191.006L595.804 188.135C595.565 188.367 595.326 188.599 595.087 188.832L597.873 191.701ZM605.769 184.058C606.009 183.827 606.248 183.596 606.488 183.365L603.713 180.484C603.472 180.716 603.232 180.947 602.992 181.179L605.769 184.058ZM613.692 176.458C613.933 176.227 614.175 175.997 614.416 175.767L611.657 172.871C611.415 173.101 611.173 173.332 610.931 173.563L613.692 176.458ZM621.663 168.914C621.905 168.687 622.146 168.461 622.388 168.234L619.653 165.315C619.411 165.543 619.168 165.77 618.926 165.998L621.663 168.914ZM629.708 161.439C629.952 161.214 630.197 160.99 630.441 160.766L627.737 157.818C627.492 158.043 627.246 158.268 627.001 158.494L629.708 161.439ZM637.833 154.063C638.08 153.842 638.328 153.62 638.575 153.399L635.91 150.416C635.661 150.638 635.413 150.861 635.164 151.084L637.833 154.063ZM646.052 146.813C646.304 146.594 646.555 146.376 646.807 146.159L644.19 143.134C643.936 143.353 643.683 143.572 643.43 143.792L646.052 146.813ZM654.383 139.713C654.639 139.499 654.896 139.285 655.152 139.072L652.592 135.998C652.334 136.213 652.076 136.428 651.818 136.644L654.383 139.713ZM662.858 132.782C663.115 132.576 663.372 132.371 663.63 132.166L661.139 129.036C660.879 129.243 660.62 129.45 660.36 129.657L662.858 132.782ZM671.499 126.049C671.762 125.849 672.025 125.65 672.288 125.452L669.879 122.259C669.613 122.459 669.347 122.66 669.082 122.862L671.499 126.049ZM680.31 119.564C680.58 119.372 680.849 119.18 681.118 118.989L678.806 115.725C678.533 115.919 678.26 116.112 677.988 116.307L680.31 119.564ZM689.31 113.368C689.586 113.185 689.862 113.002 690.138 112.82L687.938 109.479C687.658 109.664 687.378 109.849 687.099 110.034L689.31 113.368ZM698.514 107.509C698.798 107.336 699.081 107.164 699.365 106.993L697.296 103.569C697.008 103.743 696.721 103.917 696.433 104.093L698.514 107.509ZM707.94 102.039C708.23 101.879 708.522 101.719 708.813 101.56L706.898 98.0487C706.601 98.2102 706.305 98.3724 706.009 98.5354L707.94 102.039ZM717.598 97.0183C717.896 96.8725 718.195 96.7276 718.493 96.5835L716.755 92.9808C716.451 93.1277 716.146 93.2755 715.842 93.424L717.598 97.0183ZM727.501 92.5095C727.652 92.4459 727.803 92.3824 727.954 92.3192L726.409 88.6296C726.254 88.6942 726.1 88.759 725.946 88.824L727.501 92.5095ZM727.954 92.3192C728.114 92.252 728.274 92.1851 728.435 92.1184L726.898 88.4255C726.735 88.4933 726.572 88.5613 726.409 88.6296L727.954 92.3192ZM737.863 88.4367C738.171 88.3245 738.478 88.2133 738.785 88.1031L737.434 84.3382C737.122 84.4505 736.808 84.5638 736.494 84.6782L737.863 88.4367ZM748.392 84.9311C748.709 84.8358 749.025 84.7417 749.34 84.6487L748.21 80.8118C747.887 80.9069 747.564 81.0031 747.24 81.1005L748.392 84.9311ZM759.081 82.0928C759.418 82.0154 759.755 81.9396 760.091 81.8651L759.225 77.96C758.88 78.0364 758.534 78.1144 758.188 78.1937L759.081 82.0928ZM769.985 80.0374C770.323 79.988 770.66 79.9402 770.996 79.8939L770.45 75.9313C770.103 75.9791 769.756 76.0285 769.407 76.0794L769.985 80.0374ZM780.977 78.9516C781.312 78.9352 781.645 78.9206 781.977 78.9076L781.821 74.9107C781.476 74.9242 781.13 74.9394 780.782 74.9563L780.977 78.9516ZM791.932 79.0332C792.258 79.0552 792.582 79.0791 792.905 79.1046L793.221 75.1171C792.883 75.0903 792.543 75.0654 792.202 75.0423L791.932 79.0332ZM802.757 80.5136C803.084 80.5829 803.41 80.6542 803.733 80.7276L804.618 76.8268C804.276 76.7492 803.932 76.6737 803.587 76.6005L802.757 80.5136ZM813.157 83.624C813.459 83.7437 813.759 83.8655 814.058 83.9893L815.591 80.2949C815.272 80.1627 814.952 80.0327 814.629 79.905L813.157 83.624ZM822.797 88.5403C823.073 88.7169 823.347 88.8956 823.618 89.0766L825.836 85.7479C825.545 85.5534 825.25 85.3613 824.954 85.1716L822.797 88.5403ZM831.237 95.2458C831.471 95.4747 831.703 95.7059 831.933 95.9392L834.782 93.1313C834.535 92.8803 834.285 92.6317 834.033 92.3853L831.237 95.2458ZM838.159 103.537C838.342 103.807 838.523 104.078 838.702 104.352L842.049 102.162C841.858 101.869 841.664 101.578 841.468 101.29L838.159 103.537ZM843.392 113.023C843.526 113.327 843.658 113.632 843.787 113.94L847.472 112.382C847.334 112.056 847.194 111.731 847.051 111.409L843.392 113.023ZM846.97 123.3C847.054 123.62 847.137 123.94 847.218 124.262L851.098 123.289C851.013 122.95 850.926 122.612 850.836 122.276L846.97 123.3ZM849.048 134.075C849.089 134.4 849.129 134.726 849.167 135.054L853.14 134.594C853.101 134.252 853.059 133.912 853.016 133.572L849.048 134.075ZM849.799 145.004C849.803 145.337 849.807 145.671 849.808 146.005L853.808 145.986C853.806 145.639 853.803 145.292 853.798 144.947L849.799 145.004ZM849.412 156.036C849.385 156.374 849.355 156.713 849.325 157.053L853.309 157.412C853.34 157.062 853.37 156.712 853.399 156.363L849.412 156.036ZM848.044 167C847.99 167.326 847.934 167.653 847.877 167.981L851.819 168.664C851.877 168.327 851.934 167.991 851.99 167.655L848.044 167ZM845.828 177.827C845.75 178.152 845.67 178.478 845.588 178.804L849.47 179.769C849.553 179.435 849.635 179.101 849.716 178.768L845.828 177.827ZM842.865 188.51C842.764 188.832 842.662 189.155 842.56 189.478L846.371 190.691C846.476 190.361 846.58 190.031 846.683 189.702L842.865 188.51ZM839.24 199.011C839.12 199.329 838.999 199.647 838.877 199.965L842.611 201.398C842.736 201.073 842.86 200.749 842.982 200.425L839.24 199.011ZM835.028 209.303C834.89 209.616 834.752 209.928 834.612 210.241L838.265 211.87C838.408 211.552 838.549 211.234 838.689 210.916L835.028 209.303ZM830.289 219.371C830.138 219.673 829.985 219.976 829.832 220.279L833.4 222.086C833.556 221.778 833.711 221.47 833.866 221.162L830.289 219.371ZM825.075 229.203C824.911 229.496 824.746 229.789 824.58 230.083L828.062 232.051C828.231 231.753 828.399 231.455 828.565 231.157L825.075 229.203ZM819.429 238.794C819.339 238.94 819.248 239.085 819.158 239.231L822.557 241.34C822.649 241.192 822.74 241.044 822.832 240.896L819.429 238.794ZM819.158 239.231C819.064 239.382 818.971 239.534 818.878 239.685L822.29 241.773C822.378 241.629 822.467 241.484 822.557 241.34L819.158 239.231ZM814.097 248.727C813.957 249.043 813.819 249.359 813.684 249.674L817.361 251.248C817.488 250.951 817.619 250.653 817.751 250.354L814.097 248.727ZM810.394 259.427C810.31 259.77 810.229 260.113 810.151 260.456L814.052 261.34C814.124 261.021 814.2 260.702 814.278 260.382L810.394 259.427ZM808.843 270.722C808.833 271.071 808.828 271.42 808.826 271.768L812.826 271.79C812.827 271.47 812.833 271.15 812.841 270.829L808.843 270.722ZM809.876 282.08C809.948 282.419 810.024 282.758 810.103 283.095L813.997 282.178C813.924 281.869 813.854 281.558 813.788 281.247L809.876 282.08ZM813.532 292.872C813.681 293.187 813.833 293.501 813.988 293.814L817.571 292.036C817.427 291.746 817.287 291.457 817.15 291.166L813.532 292.872ZM819.429 302.6C819.638 302.879 819.85 303.156 820.065 303.433L823.224 300.979C823.023 300.72 822.825 300.461 822.629 300.2L819.429 302.6ZM826.969 311.031C827.208 311.259 827.449 311.485 827.693 311.711L830.413 308.778C830.182 308.564 829.954 308.35 829.727 308.134L826.969 311.031ZM835.611 318.189C835.877 318.382 836.145 318.574 836.414 318.765L838.729 315.503C838.47 315.32 838.214 315.136 837.96 314.951L835.611 318.189ZM845.032 324.25C845.315 324.412 845.599 324.573 845.885 324.733L847.841 321.244C847.565 321.089 847.291 320.934 847.017 320.778L845.032 324.25ZM854.919 329.322C855.235 329.468 855.553 329.612 855.872 329.756L857.516 326.11C857.206 325.97 856.898 325.83 856.591 325.689L854.919 329.322ZM865.136 333.562C865.457 333.681 865.78 333.801 866.103 333.919L867.479 330.163C867.163 330.047 866.849 329.931 866.536 329.814L865.136 333.562ZM875.622 337.095C875.945 337.192 876.268 337.289 876.592 337.385L877.731 333.551C877.414 333.457 877.097 333.362 876.782 333.266L875.622 337.095ZM886.339 340.013C886.66 340.092 886.981 340.169 887.304 340.246L888.233 336.355C887.916 336.28 887.6 336.204 887.285 336.127L886.339 340.013ZM897.245 342.383C897.571 342.445 897.897 342.507 898.223 342.569L898.962 338.638C898.641 338.577 898.32 338.516 898 338.455L897.245 342.383ZM908.035 344.213C908.369 344.263 908.705 344.312 909.041 344.36L909.612 340.401C909.281 340.354 908.95 340.305 908.621 340.257L908.035 344.213ZM919.005 345.614C919.333 345.65 919.662 345.685 919.992 345.719L920.409 341.741C920.083 341.707 919.759 341.672 919.435 341.637L919.005 345.614ZM930.076 346.607C930.418 346.631 930.761 346.655 931.105 346.679L931.378 342.688C931.039 342.665 930.7 342.641 930.362 342.617L930.076 346.607ZM940.997 347.209C941.332 347.222 941.666 347.234 942.002 347.247L942.146 343.249C941.815 343.237 941.484 343.225 941.153 343.212L940.997 347.209ZM952.116 347.469C952.443 347.472 952.77 347.474 953.097 347.476L953.12 343.476C952.796 343.474 952.472 343.472 952.149 343.469L952.116 347.469ZM963.064 347.402C963.401 347.395 963.738 347.388 964.076 347.38L963.985 343.381C963.651 343.389 963.317 343.396 962.983 343.403L963.064 347.402ZM974.12 347.03C974.448 347.014 974.777 346.998 975.106 346.982L974.909 342.987C974.583 343.003 974.258 343.019 973.933 343.034L974.12 347.03ZM985.096 346.374C985.433 346.35 985.77 346.325 986.108 346.3L985.811 342.311C985.476 342.336 985.142 342.361 984.808 342.385L985.096 346.374ZM996.087 345.448C996.415 345.416 996.743 345.384 997.071 345.352L996.68 341.371C996.354 341.403 996.029 341.435 995.704 341.466L996.087 345.448ZM1007.03 344.269C1007.36 344.229 1007.7 344.189 1008.04 344.148L1007.55 340.177C1007.22 340.217 1006.89 340.257 1006.56 340.297L1007.03 344.269ZM1017.96 342.846C1018.29 342.8 1018.62 342.753 1018.94 342.707L1018.38 338.747C1018.05 338.793 1017.73 338.839 1017.4 338.885L1017.96 342.846ZM1028.83 341.198C1029.16 341.144 1029.49 341.09 1029.82 341.035L1029.18 337.088C1028.85 337.142 1028.52 337.196 1028.19 337.25L1028.83 341.198ZM1039.72 339.32C1040.04 339.261 1040.37 339.201 1040.69 339.142L1039.96 335.208C1039.64 335.267 1039.32 335.326 1039 335.385L1039.72 339.32ZM1050.47 337.251C1050.8 337.184 1051.13 337.118 1051.46 337.05L1050.66 333.131C1050.33 333.198 1050 333.264 1049.68 333.33L1050.47 337.251ZM1061.34 334.948C1061.66 334.877 1061.98 334.806 1062.3 334.735L1061.43 330.831C1061.11 330.902 1060.79 330.972 1060.48 331.042L1061.34 334.948ZM1071.95 332.499C1072.28 332.421 1072.6 332.343 1072.93 332.265L1071.99 328.376C1071.67 328.454 1071.34 328.532 1071.02 328.609L1071.95 332.499ZM1082.73 329.814C1083.06 329.729 1083.39 329.644 1083.72 329.558L1082.71 325.687C1082.39 325.772 1082.06 325.857 1081.73 325.941L1082.73 329.814ZM1093.28 326.999C1093.6 326.911 1093.91 326.823 1094.23 326.734L1093.17 322.88C1092.85 322.968 1092.53 323.056 1092.21 323.143L1093.28 326.999ZM1103.88 323.984C1104.2 323.889 1104.53 323.794 1104.85 323.698L1103.72 319.861C1103.4 319.956 1103.08 320.051 1102.75 320.145L1103.88 323.984ZM1114.44 320.798C1114.76 320.701 1115.07 320.603 1115.38 320.505L1114.19 316.686C1113.88 316.784 1113.57 316.881 1113.26 316.977L1114.44 320.798ZM1124.86 317.482C1125.18 317.379 1125.49 317.275 1125.81 317.17L1124.56 313.37C1124.25 313.473 1123.93 313.577 1123.62 313.68L1124.86 317.482ZM1135.4 313.953C1135.72 313.843 1136.04 313.732 1136.36 313.621L1135.06 309.84C1134.74 309.95 1134.42 310.06 1134.1 310.169L1135.4 313.953ZM1145.68 310.343C1145.99 310.232 1146.3 310.12 1146.62 310.007L1145.26 306.244C1144.95 306.356 1144.64 306.467 1144.33 306.579L1145.68 310.343ZM1156.01 306.553C1156.33 306.435 1156.64 306.317 1156.96 306.198L1155.55 302.455C1155.23 302.572 1154.92 302.69 1154.61 302.807L1156.01 306.553ZM1166.36 302.593C1166.66 302.474 1166.97 302.355 1167.27 302.235L1165.82 298.511C1165.51 298.63 1165.21 298.749 1164.9 298.867L1166.36 302.593ZM1176.48 298.565C1176.78 298.44 1177.09 298.315 1177.4 298.19L1175.89 294.485C1175.59 294.61 1175.28 294.734 1174.97 294.859L1176.48 298.565ZM1186.69 294.344C1187 294.213 1187.31 294.082 1187.62 293.95L1186.06 290.265C1185.75 290.396 1185.45 290.527 1185.14 290.657L1186.69 294.344ZM1196.81 290.008C1197.11 289.876 1197.41 289.745 1197.71 289.613L1196.11 285.948C1195.81 286.079 1195.51 286.21 1195.21 286.341L1196.81 290.008ZM1206.79 285.58C1207.1 285.443 1207.4 285.306 1207.7 285.169L1206.06 281.524C1205.75 281.661 1205.45 281.797 1205.15 281.934L1206.79 285.58ZM1216.86 280.967C1217.17 280.825 1217.47 280.682 1217.78 280.539L1216.09 276.914C1215.78 277.057 1215.48 277.199 1215.17 277.341L1216.86 280.967ZM1226.78 276.279C1227.07 276.136 1227.37 275.993 1227.67 275.85L1225.93 272.246C1225.64 272.389 1225.34 272.531 1225.04 272.673L1226.78 276.279ZM1236.61 271.488C1236.9 271.34 1237.2 271.192 1237.5 271.044L1235.73 267.46C1235.43 267.608 1235.13 267.755 1234.83 267.903L1236.61 271.488ZM1246.51 266.521C1246.81 266.367 1247.11 266.214 1247.41 266.06L1245.59 262.497C1245.29 262.65 1244.99 262.803 1244.69 262.956L1246.51 266.521ZM1256.25 261.495C1256.54 261.342 1256.83 261.189 1257.13 261.036L1255.27 257.493C1254.98 257.646 1254.69 257.798 1254.4 257.95L1256.25 261.495ZM1265.91 256.375C1266.2 256.217 1266.5 256.059 1266.79 255.901L1264.9 252.379C1264.6 252.537 1264.31 252.694 1264.02 252.851L1265.91 256.375ZM1275.63 251.086C1275.93 250.923 1276.22 250.76 1276.52 250.597L1274.58 247.096C1274.29 247.258 1274 247.421 1273.7 247.583L1275.63 251.086ZM1285.23 245.731C1285.51 245.57 1285.8 245.408 1286.09 245.245L1284.12 241.765C1283.83 241.926 1283.55 242.088 1283.26 242.249L1285.23 245.731ZM1294.7 240.314C1294.99 240.147 1295.28 239.98 1295.57 239.813L1293.56 236.353C1293.27 236.519 1292.99 236.685 1292.7 236.851L1294.7 240.314ZM1304.23 234.734C1304.52 234.563 1304.81 234.391 1305.1 234.219L1303.06 230.779C1302.77 230.951 1302.48 231.122 1302.19 231.293L1304.23 234.734ZM1313.71 229.054C1313.99 228.884 1314.27 228.714 1314.55 228.543L1312.47 225.124C1312.19 225.294 1311.91 225.464 1311.63 225.633L1313.71 229.054ZM1322.99 223.366C1323.27 223.192 1323.55 223.017 1323.83 222.842L1321.72 219.443C1321.44 219.618 1321.16 219.792 1320.88 219.966L1322.99 223.366ZM1332.31 217.524C1332.59 217.345 1332.88 217.166 1333.16 216.986L1331.02 213.608C1330.74 213.787 1330.45 213.966 1330.17 214.145L1332.31 217.524ZM1341.68 211.527C1341.82 211.435 1341.97 211.343 1342.11 211.251L1339.93 207.893C1339.79 207.985 1339.65 208.077 1339.51 208.168L1341.68 211.527ZM1342.11 211.251C1342.25 211.159 1342.39 211.068 1342.53 210.977L1340.36 207.62C1340.22 207.711 1340.08 207.802 1339.93 207.893L1342.11 211.251ZM1350.93 205.507C1351.21 205.325 1351.49 205.143 1351.77 204.961L1349.57 201.615C1349.3 201.797 1349.02 201.979 1348.74 202.16L1350.93 205.507ZM1360.04 199.513C1360.32 199.332 1360.59 199.151 1360.86 198.97L1358.65 195.635C1358.38 195.816 1358.11 195.997 1357.83 196.177L1360.04 199.513ZM1369.09 193.493C1369.37 193.306 1369.65 193.12 1369.92 192.934L1367.7 189.611C1367.42 189.796 1367.14 189.982 1366.86 190.168L1369.09 193.493ZM1378.21 187.355C1378.48 187.17 1378.76 186.984 1379.03 186.799L1376.79 183.488C1376.51 183.673 1376.24 183.858 1375.97 184.043L1378.21 187.355ZM1387.18 181.245C1387.45 181.06 1387.72 180.875 1387.99 180.691L1385.73 177.392C1385.46 177.576 1385.19 177.76 1384.92 177.945L1387.18 181.245ZM1396.2 175.032C1396.48 174.842 1396.75 174.652 1397.02 174.462L1394.74 171.175C1394.47 171.365 1394.2 171.554 1393.92 171.744L1396.2 175.032ZM1405.17 168.778C1405.44 168.589 1405.71 168.4 1405.98 168.211L1403.68 164.938C1403.41 165.126 1403.14 165.315 1402.88 165.503L1405.17 168.778ZM1414.03 162.53C1414.3 162.335 1414.58 162.141 1414.85 161.947L1412.53 158.686C1412.26 158.88 1411.99 159.074 1411.71 159.268L1414.03 162.53ZM1422.99 156.131C1423.26 155.938 1423.53 155.745 1423.79 155.551L1421.46 152.304C1421.19 152.497 1420.92 152.69 1420.65 152.883L1422.99 156.131ZM1431.79 149.768C1432.05 149.575 1432.32 149.383 1432.58 149.191L1430.22 145.958C1429.96 146.15 1429.7 146.341 1429.43 146.533L1431.79 149.768ZM1440.63 143.292C1440.9 143.094 1441.17 142.896 1441.43 142.699L1439.06 139.48C1438.79 139.677 1438.52 139.875 1438.26 140.072L1440.63 143.292ZM1449.4 136.785C1449.66 136.589 1449.93 136.392 1450.19 136.196L1447.79 132.992C1447.53 133.188 1447.27 133.384 1447.01 133.58L1449.4 136.785ZM1458.1 130.247C1458.37 130.044 1458.63 129.842 1458.9 129.64L1456.49 126.452C1456.22 126.653 1455.95 126.855 1455.69 127.057L1458.1 130.247ZM1466.83 123.597C1467.09 123.396 1467.35 123.195 1467.62 122.994L1465.18 119.822C1464.92 120.022 1464.66 120.222 1464.4 120.422L1466.83 123.597ZM1475.4 116.983C1475.66 116.776 1475.93 116.569 1476.19 116.363L1473.74 113.206C1473.47 113.412 1473.21 113.618 1472.94 113.825L1475.4 116.983ZM1484.07 110.188C1484.33 109.983 1484.59 109.778 1484.85 109.573L1482.38 106.434C1482.12 106.638 1481.86 106.843 1481.6 107.047L1484.07 110.188ZM1492.57 103.444C1492.82 103.241 1493.08 103.037 1493.33 102.834L1490.83 99.7112C1490.58 99.9141 1490.32 100.117 1490.07 100.32L1492.57 103.444ZM1501.13 96.5477C1501.39 96.3383 1501.64 96.1289 1501.9 95.9197L1499.38 92.8155C1499.12 93.0242 1498.87 93.2329 1498.61 93.4418L1501.13 96.5477ZM1509.55 89.666C1509.8 89.4583 1510.05 89.2507 1510.3 89.0432L1507.76 85.9574C1507.51 86.1644 1507.25 86.3714 1507 86.5785L1509.55 89.666ZM1517.98 82.6615C1518.24 82.4479 1518.49 82.2344 1518.75 82.0209L1516.18 78.9545C1515.93 79.1674 1515.67 79.3803 1515.42 79.5933L1517.98 82.6615ZM1526.31 75.6445C1526.56 75.4328 1526.81 75.2213 1527.06 75.0098L1524.46 71.9632C1524.22 72.1741 1523.97 72.3851 1523.72 72.5961L1526.31 75.6445ZM1534.63 68.517C1534.88 68.2993 1535.14 68.0816 1535.39 67.8641L1532.77 64.8383C1532.52 65.0552 1532.27 65.2722 1532.02 65.4893L1534.63 68.517ZM1542.84 61.3684C1543.09 61.1528 1543.33 60.9374 1543.58 60.722L1540.94 57.7177C1540.69 57.9323 1540.45 58.1471 1540.21 58.362L1542.84 61.3684ZM1551.05 54.102C1551.3 53.8803 1551.55 53.6587 1551.8 53.4373L1549.13 50.4554C1548.88 50.6761 1548.64 50.897 1548.39 51.118L1551.05 54.102ZM1559.13 46.8271C1559.37 46.6079 1559.62 46.3888 1559.86 46.1698L1557.16 43.211C1556.92 43.4293 1556.68 43.6477 1556.44 43.8662L1559.13 46.8271ZM1567.23 39.4057C1567.47 39.1802 1567.72 38.9549 1567.96 38.7297L1565.24 35.7954C1565 36.0198 1564.76 36.2443 1564.51 36.469L1567.23 39.4057ZM1575.15 32.0123C1575.39 31.7841 1575.64 31.5561 1575.88 31.3282L1573.13 28.4189C1572.89 28.646 1572.65 28.8733 1572.41 29.1006L1575.15 32.0123ZM1583.14 24.4193C1583.37 24.1904 1583.61 23.9616 1583.85 23.733L1581.08 20.8505C1580.84 21.0782 1580.6 21.3062 1580.37 21.5342L1583.14 24.4193ZM1590.94 16.8495C1591.18 16.614 1591.42 16.3787 1591.66 16.1436L1588.86 13.2887C1588.62 13.523 1588.38 13.7574 1588.14 13.992L1590.94 16.8495ZM1598.73 9.13734C1598.97 8.9054 1599.2 8.67361 1599.43 8.44199L1596.6 5.61622C1596.37 5.84694 1596.14 6.07784 1595.91 6.30888L1598.73 9.13734ZM1606.43 1.3625C1606.66 1.12406 1606.89 0.885787 1607.13 0.647693L1604.26 -2.14738C1604.03 -1.91025 1603.8 -1.67294 1603.57 -1.43544L1606.43 1.3625ZM1613.98 -6.44056C1614.21 -6.67734 1614.43 -6.91393 1614.66 -7.15033L1611.77 -9.91339C1611.54 -9.67798 1611.32 -9.44237 1611.09 -9.2066L1613.98 -6.44056ZM1621.55 -14.436C1621.77 -14.6768 1622 -14.9174 1622.22 -15.1578L1619.29 -17.8865C1619.07 -17.6472 1618.85 -17.4076 1618.62 -17.1679L1621.55 -14.436ZM1628.95 -22.4543C1629.18 -22.7018 1629.4 -22.949 1629.63 -23.196L1626.67 -25.8885C1626.45 -25.6427 1626.22 -25.3966 1626 -25.1503L1628.95 -22.4543ZM1636.23 -30.5357C1636.45 -30.7806 1636.67 -31.0252 1636.88 -31.2696L1633.89 -33.9239C1633.67 -33.6807 1633.46 -33.4372 1633.24 -33.1936L1636.23 -30.5357ZM1643.49 -38.8067C1643.7 -39.0553 1643.91 -39.3036 1644.13 -39.5517L1641.1 -42.1646C1640.89 -41.9178 1640.67 -41.6708 1640.46 -41.4235L1643.49 -38.8067ZM1650.58 -47.1338C1650.8 -47.3888 1651.01 -47.6436 1651.23 -47.898L1648.16 -50.4668C1647.95 -50.2138 1647.74 -49.9604 1647.52 -49.7067L1650.58 -47.1338ZM1657.53 -55.5318C1657.75 -55.7935 1657.96 -56.0549 1658.17 -56.3159L1655.07 -58.8373C1654.85 -58.5778 1654.64 -58.3179 1654.43 -58.0577L1657.53 -55.5318ZM1664.35 -64.0426C1664.56 -64.3028 1664.76 -64.5625 1664.96 -64.8219L1661.82 -67.292C1661.61 -67.0342 1661.41 -66.7761 1661.21 -66.5176L1664.35 -64.0426ZM1671.07 -72.7343C1671.27 -72.9941 1671.47 -73.2534 1671.66 -73.5124L1668.47 -75.9259C1668.28 -75.6687 1668.08 -75.4111 1667.89 -75.1531L1671.07 -72.7343ZM1677.62 -81.5315C1677.82 -81.7968 1678.01 -82.0616 1678.2 -82.326L1674.96 -84.6772C1674.77 -84.4147 1674.58 -84.1519 1674.39 -83.8885L1677.62 -81.5315ZM1683.99 -90.4506C1684.17 -90.7212 1684.36 -90.9912 1684.55 -91.2607L1681.26 -93.5424C1681.08 -93.2751 1680.89 -93.0073 1680.71 -92.7389L1683.99 -90.4506ZM1690.15 -99.508C1690.33 -99.7833 1690.51 -100.058 1690.69 -100.332L1687.36 -102.535C1687.18 -102.264 1687 -101.991 1686.82 -101.719L1690.15 -99.508ZM1696.09 -108.717C1696.26 -108.997 1696.43 -109.275 1696.61 -109.553L1693.21 -111.665C1693.04 -111.39 1692.87 -111.115 1692.69 -110.839L1696.09 -108.717ZM1701.75 -118.087C1701.92 -118.369 1702.08 -118.65 1702.24 -118.93L1698.78 -120.935C1698.62 -120.659 1698.46 -120.381 1698.3 -120.103L1701.75 -118.087ZM1707.09 -127.614C1707.25 -127.919 1707.41 -128.223 1707.57 -128.526L1704.04 -130.401C1703.88 -130.102 1703.72 -129.803 1703.56 -129.502L1707.09 -127.614ZM1712.1 -137.497C1712.24 -137.802 1712.39 -138.104 1712.53 -138.406L1708.91 -140.109C1708.77 -139.814 1708.63 -139.517 1708.49 -139.219L1712.1 -137.497ZM1716.52 -147.524C1716.65 -147.848 1716.78 -148.169 1716.91 -148.488L1713.18 -149.953C1713.06 -149.643 1712.94 -149.331 1712.81 -149.016L1716.52 -147.524ZM1720.2 -158.021C1720.25 -158.175 1720.29 -158.329 1720.33 -158.481L1716.49 -159.576C1716.44 -159.43 1716.4 -159.284 1716.36 -159.137L1720.2 -158.021Z" fill="#BCDAF2"/>
</svg>
