<svg width="117" height="106" viewBox="0 0 117 106" fill="none" xmlns="http://www.w3.org/2000/svg">
<g clip-path="url(#clip0_2439_504)">
<path d="M115.39 36.67L106.16 34.16L109.41 22.22C109.65 21.32 109.12 20.39 108.22 20.15C83.5802 13.45 72.6902 17.96 68.3602 21.3C66.5402 16.23 59.6902 6.94004 34.4002 0.0600374C33.5002 -0.179963 32.5702 0.350037 32.3302 1.25004L29.0802 13.19L19.8502 10.68C18.9502 10.44 18.0202 10.97 17.7802 11.87L0.0601595 77C-0.179841 77.9 0.35016 78.83 1.25016 79.07L37.6202 88.97C38.5202 89.21 39.4502 88.68 39.6902 87.78C39.9302 86.88 39.4002 85.95 38.5002 85.71L3.76016 76.26L20.6002 14.38L28.2002 16.45L14.9002 65.3C14.6602 66.2 15.1902 67.13 16.0902 67.37C48.3702 76.15 47.7002 88.2 47.6802 88.45C47.5702 89.29 48.1102 90.07 48.9102 90.29C48.9802 90.31 49.0502 90.32 49.1202 90.33C49.1402 90.33 49.1702 90.33 49.1902 90.33C49.2802 90.37 49.3602 90.41 49.4602 90.43C49.5802 90.46 49.6902 90.48 49.8102 90.49C49.8702 90.52 49.9402 90.55 50.0002 90.57C50.7402 90.77 51.5502 90.44 51.9302 89.75C51.9902 89.64 58.3602 78.87 89.9102 87.46C90.8102 87.7 91.7402 87.17 91.9802 86.27L105.27 37.42L112.87 39.49L96.0302 101.37L60.2002 91.62C59.3002 91.38 58.3702 91.91 58.1302 92.81C57.8902 93.71 58.4202 94.64 59.3202 94.88L96.7702 105.07C97.6702 105.31 98.6002 104.78 98.8402 103.88L116.56 38.74C116.82 37.84 116.29 36.91 115.39 36.67ZM18.6002 64.56L35.1402 3.77004C64.6802 12.2 65.6202 23.46 65.6402 24.5L49.6602 83.25C47.0402 78.14 39.5702 70.54 18.6002 64.56ZM89.1702 83.77C68.1402 78.34 57.7302 81.35 52.8502 84.43L68.8902 25.47C69.7402 24.34 77.3702 15.66 105.71 22.98L89.1702 83.77Z" fill="white"/>
<path d="M92.9502 37.64C85.5902 36.43 79.0902 36.16 73.6402 36.84C72.7202 36.96 72.0602 37.8 72.1702 38.72C72.2602 39.42 72.7602 39.97 73.4002 40.14C73.6102 40.2 73.8302 40.21 74.0502 40.19C79.1802 39.55 85.3502 39.81 92.3902 40.97C93.3102 41.12 94.1802 40.5 94.3302 39.58C94.5002 38.66 93.8702 37.79 92.9502 37.64Z" fill="white"/>
<path d="M89.4101 50.67C82.0501 49.46 75.5501 49.19 70.1001 49.87C69.1801 49.99 68.5201 50.83 68.6301 51.75C68.7201 52.45 69.2201 53 69.8601 53.17C70.0701 53.23 70.2901 53.24 70.5101 53.22C75.6401 52.58 81.8101 52.84 88.8501 54C89.7701 54.15 90.6401 53.53 90.7901 52.61C90.9501 51.69 90.3301 50.82 89.4101 50.67Z" fill="white"/>
<path d="M85.8603 63.7001C78.5003 62.4901 72.0003 62.2201 66.5503 62.9001C65.6303 63.0201 64.9703 63.8601 65.0903 64.7801C65.1803 65.4801 65.6803 66.0201 66.3203 66.2001C66.5303 66.2601 66.7503 66.2701 66.9703 66.2501C72.1003 65.6101 78.2703 65.8701 85.3103 67.0301C86.2303 67.1801 87.1003 66.5601 87.2503 65.6401C87.4103 64.7201 86.7803 63.8501 85.8603 63.7001Z" fill="white"/>
<path d="M37.4302 26.0201C44.0902 28.5901 49.5402 31.4901 53.6402 34.6401C53.8202 34.7801 54.0202 34.8801 54.2302 34.9301C54.8702 35.1001 55.5802 34.8901 56.0102 34.3301C56.5802 33.5901 56.4402 32.5301 55.7002 31.9601C51.3502 28.6101 45.6102 25.5501 38.6502 22.8701C37.7702 22.5301 36.8002 22.9701 36.4702 23.8401C36.1302 24.7001 36.5702 25.6801 37.4302 26.0201Z" fill="white"/>
<path d="M33.8904 39.04C40.5504 41.61 46.0004 44.51 50.1004 47.66C50.2804 47.8 50.4804 47.9 50.6904 47.95C51.3304 48.12 52.0404 47.91 52.4704 47.35C53.0404 46.61 52.9004 45.55 52.1604 44.98C47.8104 41.63 42.0704 38.57 35.1104 35.89C34.2304 35.55 33.2604 35.99 32.9304 36.86C32.5904 37.73 33.0204 38.71 33.8904 39.04Z" fill="white"/>
<path d="M48.6102 58.01C44.2602 54.66 38.5202 51.6 31.5602 48.92C30.6902 48.58 29.7102 49.02 29.3802 49.89C29.0402 50.76 29.4802 51.74 30.3502 52.07C37.0102 54.64 42.4602 57.54 46.5602 60.69C46.7402 60.83 46.9402 60.93 47.1502 60.98C47.7902 61.15 48.5002 60.94 48.9302 60.38C49.4902 59.64 49.3502 58.58 48.6102 58.01Z" fill="white"/>
</g>
<defs>
<clipPath id="clip0_2439_504">
<rect width="116.63" height="105.12" fill="white"/>
</clipPath>
</defs>
</svg>
