<svg width="100" height="72" viewBox="0 0 100 72" fill="none" xmlns="http://www.w3.org/2000/svg">
<g clip-path="url(#clip0_2439_513)">
<path d="M99.4635 39.2151L58.9189 0.484707C58.5512 0.138458 58.0543 -0.0396125 57.5475 0.00985169L1.59006 5.05519C0.904382 5.11455 0.328013 5.56962 0.0994528 6.21266C-0.129107 6.85569 0.0497658 7.56797 0.536698 8.04283L18.1656 24.8804C18.0663 25.0189 17.9768 25.1673 17.9172 25.3355L10.4045 46.6743C9.98716 47.8516 7.14506 58.4369 34.3934 67.9439C61.6417 77.4509 66.0539 67.4097 66.4713 66.2324L73.984 44.8936C74.0436 44.7254 74.0635 44.5573 74.0734 44.3891L85.6405 43.3503L80.0259 59.2976C79.1117 58.981 78.1179 59.4559 77.7999 60.366C77.4819 61.2761 77.9589 62.2654 78.8732 62.582L78.4856 63.6801C77.5714 63.3635 76.5776 63.8384 76.2596 64.7485C75.9416 65.6587 76.4186 66.6479 77.3329 66.9645L76.9453 68.0626C76.6273 68.9728 77.1043 69.962 78.0186 70.2786C78.9328 70.5952 79.9265 70.1203 80.2445 69.2102L80.6321 68.1121C81.5463 68.4286 82.5401 67.9538 82.8581 67.0437C83.1761 66.1335 82.6991 65.1442 81.7848 64.8277L82.1724 63.7296C83.0866 64.0461 84.0804 63.5713 84.3984 62.6611C84.7164 61.751 84.2394 60.7617 83.3251 60.4451L89.4664 43.0041L98.4101 42.1929C99.0958 42.1335 99.6721 41.6784 99.9007 41.0354C100.129 40.3924 99.9603 39.6801 99.4635 39.2151ZM63.192 65.0453C63.1622 65.1245 59.5251 73.0288 35.5561 64.6694C11.5871 56.3 13.7037 47.8714 13.7137 47.8318L20.8785 27.4723L41.0912 46.7733C41.2701 46.9513 41.4887 47.0799 41.7272 47.1591C41.9558 47.2382 42.2141 47.2679 42.4626 47.2481L70.3568 44.7353L63.192 65.0453ZM42.9296 43.7065L5.72402 8.17144L57.0705 3.54159L94.2761 39.0766L42.9296 43.7065Z" fill="white"/>
</g>
<defs>
<clipPath id="clip0_2439_513">
<rect width="100" height="72" fill="white"/>
</clipPath>
</defs>
</svg>
