<svg width="52" height="70" viewBox="0 0 52 70" fill="none" xmlns="http://www.w3.org/2000/svg">
<g clip-path="url(#clip0_2439_498)">
<path d="M51.4601 0.98C51.4401 0.9 51.4401 0.82 51.4101 0.75C51.4101 0.74 51.4101 0.73 51.4001 0.72C51.3501 0.61 51.2801 0.52 51.2101 0.44C51.1901 0.42 51.1901 0.4 51.1701 0.38C51.0701 0.27 50.9501 0.19 50.8201 0.13C50.7801 0.11 50.7401 0.11 50.7101 0.09C50.6101 0.05 50.5001 0.02 50.3901 0.02C50.3701 0.01 50.3501 0 50.3301 0C50.2401 0 50.1501 0 50.0601 0.02C49.9701 0.04 49.8901 0.06 49.8001 0.1L33.3101 7.47C33.2801 7.48 33.2601 7.51 33.2301 7.52C33.1601 7.56 33.1001 7.61 33.0301 7.66C32.9701 7.71 32.9101 7.77 32.8601 7.83C32.8401 7.86 32.8101 7.87 32.7901 7.9L0.210054 56.45C-0.159946 57.01 -0.00994551 57.76 0.540055 58.13L16.4701 68.82C17.0301 69.19 17.7801 69.05 18.1501 68.49L25.2801 57.87L50.7401 19.94C50.7601 19.91 50.7601 19.88 50.7801 19.85C50.8201 19.78 50.8501 19.71 50.8701 19.63C50.9001 19.55 50.9201 19.47 50.9301 19.39C50.9301 19.36 50.9501 19.33 50.9501 19.3L51.5001 1.25C51.5001 1.24 51.4901 1.23 51.5001 1.22C51.5001 1.14 51.4701 1.06 51.4601 0.98ZM10.0201 46.17L34.1301 10.25L40.0801 14.25L15.9801 50.17L10.0201 46.17ZM36.2901 8.79L49.0201 3.1L48.5901 17.03L36.2901 8.79ZM16.8101 66.14L2.89005 56.79L8.67005 48.18L15.6301 52.85L22.5901 57.52L16.8101 66.14ZM23.9401 55.52L17.9901 51.52L42.1001 15.6L48.0501 19.6L23.9401 55.52Z" fill="white"/>
</g>
<defs>
<clipPath id="clip0_2439_498">
<rect width="51.5" height="69.03" fill="white"/>
</clipPath>
</defs>
</svg>
