<svg width="104" height="139" viewBox="0 0 104 139" fill="none" xmlns="http://www.w3.org/2000/svg">
<g clip-path="url(#clip0_2439_500)">
<path d="M95.3602 101.5L87.3202 86.11C86.8402 85.2 85.7202 84.85 84.8102 85.32L73.8302 91.05C65.4102 74.27 69.0702 50.93 69.1102 50.7C69.2402 49.93 68.8702 49.16 68.1902 48.78L9.6302 15.71H9.6202C9.6102 15.71 9.6102 15.7 9.6002 15.7C9.5702 15.69 9.5502 15.68 9.5202 15.67C9.4702 15.65 9.4202 15.63 9.3702 15.61C9.3402 15.6 9.3102 15.58 9.2802 15.57C9.2402 15.56 9.2002 15.55 9.1602 15.54C9.1602 15.54 9.1602 15.54 9.1502 15.54C9.0702 15.51 9.0002 15.49 8.9202 15.48H8.9102C8.8702 15.48 8.8302 15.48 8.7802 15.48C8.7102 15.48 8.6402 15.47 8.5702 15.48C8.5602 15.48 8.5502 15.48 8.5502 15.48C8.4902 15.49 8.4302 15.5 8.3702 15.51C8.3502 15.51 8.3302 15.52 8.3102 15.52C8.2802 15.53 8.2502 15.53 8.2202 15.54C8.2102 15.54 8.2002 15.55 8.1902 15.55C8.1302 15.57 8.0702 15.6 8.0102 15.62C7.9702 15.64 7.9202 15.65 7.8802 15.67C7.8702 15.67 7.8702 15.67 7.8602 15.68C7.8602 15.68 7.8602 15.68 7.8502 15.69C7.8002 15.72 7.7502 15.76 7.7002 15.79C7.6602 15.82 7.6102 15.84 7.5702 15.88C7.5202 15.92 7.4702 15.97 7.4202 16.02L7.4102 16.03C7.3702 16.07 7.3402 16.1 7.3002 16.14C7.2902 16.15 7.2902 16.15 7.2802 16.16C7.2402 16.21 7.2102 16.26 7.1702 16.32C7.1602 16.33 7.1602 16.34 7.1502 16.35C7.1302 16.38 7.1102 16.4 7.0902 16.44V16.45C7.0902 16.46 7.0802 16.46 7.0802 16.47C7.0402 16.54 7.0202 16.61 6.9902 16.68C6.9802 16.72 6.9502 16.75 6.9402 16.79C6.9402 16.8 6.9402 16.81 6.9302 16.82C6.9102 16.87 6.9102 16.93 6.9002 16.98C6.8902 17.03 6.8702 17.09 6.8702 17.14V17.15V17.16L0.0101986 84.38C-0.0698014 85.16 0.350199 85.91 1.0602 86.25C1.2802 86.35 22.5002 96.65 31.4802 113.18L18.8502 119.78C17.9402 120.26 17.5902 121.38 18.0602 122.29L26.1002 137.68C26.5802 138.59 27.7002 138.94 28.6102 138.47L94.5702 104.02C95.4802 103.54 95.8302 102.42 95.3602 101.5ZM3.8402 83.48L9.9402 23.68L27.7402 57.76C27.7702 57.81 27.8002 57.85 27.8302 57.89C23.2602 61.28 21.6902 67.59 24.4002 72.79C27.4102 78.55 34.5402 80.79 40.3002 77.78C46.0602 74.77 48.3002 67.64 45.2902 61.88C42.5702 56.68 36.5002 54.36 31.1002 56.18C31.0802 56.13 31.0702 56.08 31.0402 56.03L13.2802 22.03L65.2502 51.4C64.5502 56.73 62.6002 77.05 70.5302 92.78L34.7802 111.45C26.4002 95.97 8.6302 85.97 3.8402 83.48ZM31.1102 60.2C35.0502 58.14 39.9302 59.67 41.9902 63.61C44.0502 67.55 42.5202 72.43 38.5802 74.49C34.6402 76.55 29.7602 75.02 27.7002 71.08C25.6402 67.14 27.1702 62.26 31.1102 60.2ZM28.5302 134.3L22.2102 122.21L84.8702 89.48L91.1902 101.57L28.5302 134.3Z" fill="white"/>
<path d="M88.4501 46.99C88.4501 46.99 90.1401 33.73 76.8701 32.04C76.8701 32.04 90.1301 33.73 91.8201 20.46C91.8201 20.46 90.1301 33.72 103.4 35.41C103.4 35.42 90.1401 33.73 88.4501 46.99Z" stroke="white" stroke-width="2" stroke-miterlimit="10"/>
<path d="M57.8301 15.46C57.8301 15.46 55.3901 7.88005 47.8101 10.32C47.8101 10.32 55.3901 7.88005 52.9501 0.300049C52.9501 0.300049 55.3901 7.88005 62.9701 5.44005C62.9601 5.44005 55.3801 7.89005 57.8301 15.46Z" stroke="white" stroke-width="2" stroke-miterlimit="10"/>
</g>
<defs>
<clipPath id="clip0_2439_500">
<rect width="103.53" height="138.68" fill="white"/>
</clipPath>
</defs>
</svg>
