<svg width="923" height="756" viewBox="0 0 923 756" fill="none" xmlns="http://www.w3.org/2000/svg">
<g clip-path="url(#clip0_2439_483)">
<path d="M280.17 222L279.84 235.3L292.38 239.73L279.63 243.52L279.3 256.82L271.75 245.87L259 249.66L267.08 239.1L259.53 228.14L272.08 232.57L280.17 222Z" stroke="white" stroke-width="2.4386" stroke-miterlimit="10"/>
<path d="M898.02 219.21L906.13 226.67L915.74 221.26L911.15 231.28L919.27 238.75L908.31 237.48L903.72 247.51L901.54 236.7L890.59 235.43L900.2 230.02L898.02 219.21Z" stroke="white" stroke-width="2.0212" stroke-miterlimit="10"/>
<path d="M204.29 417.42L215.54 424.51L225.77 416L222.5 428.9L233.75 436L220.48 436.87L217.21 449.77L212.27 437.41L199 438.28L209.22 429.77L204.29 417.42Z" stroke="white" stroke-width="2.4386" stroke-miterlimit="10"/>
<path d="M579 682L585.94 693.35L598.88 690.27L590.23 700.37L597.16 711.72L584.88 706.62L576.22 716.72L577.28 703.46L565 698.35L577.94 695.26L579 682Z" stroke="white" stroke-width="2.4386" stroke-miterlimit="10"/>
<path d="M554.55 35.29L561.49 46.65L574.43 43.56L565.78 53.66L572.71 65.02L560.43 59.91L551.77 70.02L552.83 56.75L540.55 51.65L553.49 48.56L554.55 35.29Z" stroke="white" stroke-width="2.4386" stroke-miterlimit="10"/>
<path d="M537.64 460.9C537.64 460.9 542.95 446.95 529 441.64C529 441.64 542.95 446.95 548.26 433C548.26 433 542.95 446.95 556.9 452.26C556.9 452.26 542.95 446.95 537.64 460.9Z" stroke="white" stroke-width="2" stroke-miterlimit="10"/>
<path d="M562.83 454.52L601.87 469.37" stroke="white" stroke-width="2" stroke-miterlimit="10"/>
<path d="M607.8 471.63L619.04 475.9" stroke="white" stroke-width="2" stroke-miterlimit="10"/>
<path d="M589.31 486.87L553.63 460.87" stroke="white" stroke-width="2" stroke-miterlimit="10"/>
<path d="M603.92 448.46L559.98 444.16" stroke="white" stroke-width="2" stroke-miterlimit="10"/>
<path d="M131.17 691.31C131.17 691.31 124.15 672.15 105 679.17C105 679.17 124.16 672.15 117.14 653C117.14 653 124.16 672.16 143.31 665.14C143.31 665.13 124.15 672.15 131.17 691.31Z" stroke="white" stroke-width="1.6147" stroke-miterlimit="10"/>
<path d="M38.15 239.1C38.15 239.1 33.55 226.55 21 231.15C21 231.15 33.55 226.55 28.95 214C28.95 214 33.55 226.55 46.1 221.95C46.11 221.95 33.55 226.55 38.15 239.1Z" stroke="white" stroke-width="1.0581" stroke-miterlimit="10"/>
<path d="M122.15 35.1C122.15 35.1 117.55 22.55 105 27.15C105 27.15 117.55 22.55 112.95 10C112.95 10 117.55 22.55 130.1 17.95C130.1 17.95 117.55 22.54 122.15 35.1Z" stroke="white" stroke-width="1.0581" stroke-miterlimit="10"/>
</g>
<defs>
<clipPath id="clip0_2439_483">
<rect width="922.24" height="755.53" fill="white"/>
</clipPath>
</defs>
</svg>
