<svg width="75" height="88" viewBox="0 0 75 88" fill="none" xmlns="http://www.w3.org/2000/svg">
<g clip-path="url(#clip0_2451_1167)">
<path opacity="0.75" d="M71.8379 56.5118L52.1709 37.4981C54.5037 36.5552 56.3781 34.8051 57.4635 32.5056C58.6097 30.084 58.7446 27.3638 57.8546 24.8405C56.4859 20.9604 52.9261 18.3556 48.874 18.186C49.3662 17.4127 49.6965 16.5445 49.8112 15.6219C51.3551 14.0007 51.9552 11.5791 51.1529 9.31344C50.3505 7.05459 48.3683 5.55548 46.1569 5.27736C45.004 4.1649 43.4398 3.54083 41.8217 3.56797C41.1812 3.58153 40.5272 3.69685 39.8867 3.9207C39.145 4.18525 38.491 4.59225 37.9314 5.08065C36.1852 3.3916 33.812 2.40802 31.2702 2.4555C30.2588 2.47585 29.261 2.659 28.3036 2.99817L16.4509 7.25809C11.583 9.0014 9.03446 14.4009 10.7605 19.2917C10.8818 19.6376 11.0301 19.9632 11.1852 20.2888C10.7605 20.3431 10.329 20.4381 9.9042 20.5941C6.9309 21.6591 5.28581 24.8065 6.01397 27.8251C3.2227 29.1614 1.83382 32.431 2.89234 35.4224C3.79579 37.973 6.20275 39.5535 8.75129 39.506C9.18953 39.4992 9.63452 39.4382 10.0795 39.3296C11.1245 41.5342 13.3495 42.8705 15.6957 42.823C16.3362 42.8095 16.9902 42.6941 17.6307 42.4703C18.932 42.0023 19.977 41.1408 20.6782 40.069L16.2486 76.3937C15.8104 79.9821 17.2262 83.4687 20.0242 85.7275C21.8985 87.2402 24.2448 88.0474 26.6315 87.9999C27.744 87.9796 28.843 87.7761 29.8948 87.403L68.1364 73.7211C71.521 72.5136 73.9886 69.6782 74.7437 66.1509C75.5191 62.6168 74.4269 59.0148 71.8379 56.5118Z" fill="#CFD8DC"/>
<path d="M69.2895 54.0426L49.6293 35.029C51.9621 34.0861 53.8364 32.336 54.9219 30.0365C56.0681 27.6148 56.203 24.8947 55.313 22.3713C53.9443 18.4913 50.3845 15.8865 46.3324 15.7169C46.8246 14.9436 47.1549 14.0753 47.2696 13.1528C48.8135 11.5316 49.4136 9.10993 48.6113 6.84431C47.8089 4.58546 45.8267 3.08635 43.6153 2.80823C42.4624 1.69577 40.8982 1.0717 39.2801 1.09883C38.6396 1.1124 37.9856 1.22772 37.3451 1.45157C36.6034 1.71612 35.9494 2.12311 35.3898 2.61151C33.6436 0.936033 31.2704 -0.047548 28.7286 -6.47736e-05C27.7172 0.0202852 26.7194 0.203435 25.762 0.542601L13.9025 4.78896C9.03467 6.53227 6.48612 11.9318 8.21212 16.8226C8.33348 17.1685 8.48181 17.4941 8.63688 17.8197C8.21212 17.874 7.78062 17.9689 7.35586 18.125C4.38256 19.1899 2.73747 22.3374 3.46563 25.356C0.674365 26.6923 -0.714524 29.9619 0.343998 32.9533C1.24745 35.5038 3.65441 37.0843 6.20295 37.0369C6.64119 37.0301 7.08618 36.969 7.53116 36.8605C8.5762 39.0651 10.8011 40.4014 13.1474 40.3539C13.7879 40.3403 14.4419 40.225 15.0824 40.0012C16.3836 39.5331 17.4287 38.6716 18.1299 37.5999L13.7003 73.9246C13.262 77.5129 14.6779 80.9996 17.4759 83.2584C19.3502 84.7711 21.6965 85.5783 24.0832 85.5308C25.1957 85.5105 26.2946 85.307 27.3464 84.9339L65.5881 71.2519C68.9726 70.0445 71.4403 67.2091 72.1954 63.6817C72.9708 60.1476 71.8785 56.5457 69.2895 54.0426Z" fill="white"/>
<path d="M47.2155 29.3988C49.2247 28.6798 50.2764 26.4549 49.5618 24.4334C48.8471 22.412 46.6357 21.3538 44.6265 22.0728C42.6173 22.7919 41.5655 25.0168 42.2802 27.0382C42.9949 29.0529 45.2063 30.1111 47.2155 29.3988ZM45.4086 24.2842C46.2042 23.9993 47.0807 24.4199 47.3638 25.2203C47.647 26.0207 47.229 26.9026 46.4334 27.1875C45.6378 27.4724 44.7613 27.0518 44.4782 26.2514C44.195 25.4509 44.613 24.5691 45.4086 24.2842Z" fill="#2576B9"/>
<path d="M18.1367 16.7616L29.9962 12.522C31.6884 11.9183 32.5784 10.0326 31.9784 8.32994C31.3783 6.62733 29.504 5.73193 27.8117 6.33564L15.9522 10.5752C14.2599 11.1789 13.3699 13.0647 13.97 14.7673C14.5701 16.4699 16.4444 17.3653 18.1367 16.7616ZM16.7343 12.7798L28.5938 8.54022C29.0792 8.36386 29.6119 8.62162 29.7872 9.11002C29.9625 9.59842 29.7062 10.1343 29.2208 10.3107L17.3613 14.5502C16.8759 14.7266 16.3432 14.4688 16.168 13.9804C15.9927 13.492 16.2489 12.9562 16.7343 12.7798Z" fill="#2576B9"/>
<path d="M65.0619 58.4722L34.2366 28.6663L24.9729 31.9765L19.7679 74.6639C19.5926 76.1224 20.1657 77.5401 21.3051 78.4558C22.4446 79.3716 23.9413 79.6293 25.3167 79.1342L63.5651 65.4522C64.9405 64.9638 65.9451 63.8106 66.2485 62.3726C66.5586 60.9481 66.1136 59.4897 65.0619 58.4722ZM27.1169 33.7063L33.6635 31.366L43.6217 40.9916L25.4313 47.4968L27.1169 33.7063ZM63.9696 61.891C63.8348 62.5354 63.3966 63.0306 62.783 63.2544L24.5414 76.9364C23.9211 77.1602 23.2806 77.0449 22.7682 76.6379C22.2558 76.2241 22.0131 75.6136 22.0872 74.9624L25.1212 50.1083L45.5028 42.8163L63.4437 60.1612C63.9157 60.6157 64.1112 61.2465 63.9696 61.891Z" fill="#2576B9"/>
<path d="M34.0347 26.7534L29.7399 14.6045L19.6401 18.22L23.9349 30.3689L34.0347 26.7534ZM22.6134 19.6377L28.3241 17.5959L31.0547 25.3289L25.344 27.3707L22.6134 19.6377Z" fill="#2576B9"/>
<path d="M41.2081 12.4068C40.7024 10.9823 41.444 9.42213 42.8599 8.91338C41.444 9.42213 39.8933 8.67596 39.3877 7.25146C39.8933 8.67596 39.1517 10.2361 37.7358 10.7449C39.1517 10.2361 40.7091 10.9823 41.2081 12.4068Z" fill="#2576B9"/>
<path d="M11.2257 34.527C14.2269 34.527 16.6599 32.0792 16.6599 29.0596C16.6599 26.0401 14.2269 23.5923 11.2257 23.5923C8.22448 23.5923 5.7915 26.0401 5.7915 29.0596C5.7915 32.0792 8.22448 34.527 11.2257 34.527Z" fill="#2576B9"/>
<path d="M27.1172 33.7064L33.6638 31.3594L43.622 40.9917L25.4316 47.4969L27.1172 33.7064Z" fill="#D22329"/>
<path d="M63.9697 61.8911C63.8349 62.5355 63.3966 63.0307 62.7831 63.2545L24.5415 76.9365C23.9212 77.1604 23.2807 77.045 22.7683 76.638C22.2559 76.2243 22.0131 75.6138 22.0873 74.9626L25.1213 50.1085L45.5029 42.8164L63.4438 60.1614C63.9158 60.6158 64.1113 61.2467 63.9697 61.8911Z" fill="#D22329"/>
<path d="M28.3256 17.5909L22.6147 19.6338L25.3477 27.3672L31.0586 25.3243L28.3256 17.5909Z" fill="#D22329"/>
</g>
<defs>
<clipPath id="clip0_2451_1167">
<rect width="75" height="88" fill="white"/>
</clipPath>
</defs>
</svg>
