<svg width="1440" height="368" viewBox="0 0 1440 368" fill="none" xmlns="http://www.w3.org/2000/svg">
<path d="M1436.82 323.873C1387.39 285.976 1236.53 185.748 1178.95 162.022C1158.8 153.713 1137.63 146.237 1115.84 146.954C1094.05 147.671 1071.36 158.248 1061.86 177.86C1043.08 216.662 1083.3 260.601 1078.03 303.383C1072.75 346.201 1021.72 370.734 979.154 363.59C936.59 356.446 899.55 329.431 862.698 306.986C798.167 267.691 770.425 244.53 717.72 199.749C689.888 176.103 661.438 152.072 627.635 138.242C593.831 124.403 553.16 122.224 522.19 141.585C488.135 162.873 473.368 174.579 434.695 196.038C359.288 237.879 283.136 219.118 211.719 179.034C171.316 156.366 133.039 129.924 97.4869 100.228C79.7154 85.3671 62.6165 69.7081 46.2797 53.2872C31.6555 38.5873 11.5528 21.9602 2.19189 3.19092" stroke="#BCDAF2" stroke-width="8" stroke-miterlimit="10" stroke-linecap="round" stroke-linejoin="round" stroke-dasharray="1 20"/>
</svg>
