<svg width="102" height="79" viewBox="0 0 102 79" fill="none" xmlns="http://www.w3.org/2000/svg">
<g clip-path="url(#clip0_1653_4041)">
<path opacity="0.75" d="M64.5199 79.0001C59.9799 79.0001 55.9205 76.9379 53.2415 73.7002C50.5114 76.9279 46.3702 79.0001 41.7484 79.0001H19.7744C11.7272 79.0001 5.17285 72.4948 5.17285 64.5051V41.7515C5.17285 17.5534 22.0138 4.49299 37.8526 4.49299H41.7484C48.1085 4.49299 53.2824 10.022 53.2824 16.8262V20.0738C53.2824 26.7584 47.996 32.407 41.7484 32.407H37.8526C37.1368 32.407 35.3474 33.1542 34.6521 34.5787H41.7484C44.8568 34.5787 47.7404 35.5052 50.1228 37.0992C52.1372 15.8798 67.8022 4.48303 82.5981 4.48303H86.4939C92.8539 4.48303 98.0381 10.012 98.0381 16.8162V20.0639C98.0381 26.8581 92.8642 32.397 86.4939 32.397H82.5981C81.8823 32.397 80.0929 33.1442 79.3976 34.5688H86.4939C94.6945 34.5688 101.372 41.0741 101.372 49.0637V64.5151C101.372 72.5047 94.6945 79.01 86.4939 79.01H64.5199V79.0001Z" fill="#CFD8DC"/>
<path d="M59.9183 74.517C55.3784 74.517 51.3189 72.4549 48.6399 69.2172C45.9098 72.4449 41.7686 74.517 37.1468 74.517H15.1729C7.11542 74.517 0.571289 68.0117 0.571289 60.0221V37.2585C0.571289 13.0604 17.4122 0 33.251 0H37.1468C43.5069 0 48.6808 5.529 48.6808 12.3332V15.5808C48.6808 22.2654 43.3944 27.914 37.1468 27.914H33.251C32.5353 27.914 30.7458 28.6612 30.0505 30.0858H37.1468C40.2553 30.0858 43.1388 31.0122 45.5213 32.6062C47.5356 11.3868 63.2006 0 77.9863 0H81.8821C88.2421 0 93.4263 5.529 93.4263 12.3332V15.5808C93.4263 22.375 88.2524 27.914 81.8821 27.914H77.9863C77.2705 27.914 75.4811 28.6612 74.7858 30.0858H81.8821C90.0827 30.0858 96.7597 36.591 96.7597 44.5807V60.032C96.7597 68.0217 90.0827 74.527 81.8821 74.527H59.9183V74.517Z" fill="#2576B9"/>
<path d="M37.1465 7.18269C39.3654 7.18269 41.3184 9.61346 41.3184 12.3331V15.5808C41.3184 18.2905 39.3756 20.7312 37.1465 20.7312H33.2507C28.5165 20.7312 22.4018 24.7958 22.4018 31.3011C22.4018 35.6346 24.6207 37.2684 27.4019 37.2684H37.1363C41.3082 37.2684 44.6416 40.5161 44.6416 44.5807V60.032C44.6416 64.0966 41.3082 67.3442 37.1363 67.3442H15.1726C11.2768 67.3442 7.94336 64.0966 7.94336 60.032V37.2585C7.94336 16.3877 21.8496 7.17273 33.2609 7.17273H37.1465V7.18269ZM81.8818 7.18269C84.1108 7.18269 86.0536 9.61346 86.0536 12.3331V15.5808C86.0536 18.2905 84.1108 20.7312 81.8818 20.7312H77.986C73.2619 20.7312 67.137 24.7958 67.137 31.3011C67.137 35.6346 69.3661 37.2684 72.1474 37.2684H81.8818C86.0536 37.2684 89.3973 40.5161 89.3973 44.5807V60.032C89.3973 64.0966 86.0639 67.3442 81.8818 67.3442H59.9078C56.012 67.3442 52.6684 64.0966 52.6684 60.032V37.2585C52.6684 16.3877 66.5746 7.17273 77.986 7.17273H81.8818V7.18269Z" fill="#FFD95C"/>
</g>
<defs>
<clipPath id="clip0_1653_4041">
<rect width="100.8" height="79" fill="white" transform="translate(0.571289)"/>
</clipPath>
</defs>
</svg>
