<svg width="92" height="94" viewBox="0 0 92 94" fill="none" xmlns="http://www.w3.org/2000/svg">
<g clip-path="url(#clip0_1653_4019)">
<path d="M77.4583 1.47888C77.4583 1.47888 77.4583 14.5092 64.3984 14.5092C64.3984 14.5092 77.4583 14.5092 77.4583 27.5395C77.4583 27.5395 77.4583 14.5092 90.5182 14.5092C90.5182 14.5092 77.4583 14.5092 77.4583 1.47888Z" stroke="#2576B9" stroke-width="2.9625" stroke-miterlimit="10" stroke-linecap="round" stroke-linejoin="round"/>
<path opacity="0.85" d="M66.931 53.2304L47.6818 50.2426L44.577 31.0569C44.2866 29.2383 42.9145 27.8693 41.0817 27.5895C39.279 27.3097 37.5163 28.2091 36.695 29.8378L27.9017 47.1749L8.66238 44.1872C6.85963 43.9074 5.09695 44.8067 4.2757 46.4355C3.45445 48.0543 3.76492 50.0128 5.05689 51.2919L18.8679 64.9917L10.0745 82.3387C9.24326 83.9875 9.54372 85.8961 10.8557 87.1951C12.1477 88.4742 14.1107 88.7839 15.7231 87.9546L33.0495 79.0812L46.8705 92.781C47.872 93.7702 49.2642 94.1799 50.5962 93.9301C50.9868 93.8602 51.3774 93.7303 51.7479 93.5404C53.3704 92.711 54.2618 90.9423 53.9713 89.1537L50.8666 69.968L68.193 61.0946C69.8154 60.2652 70.7068 58.5065 70.4163 56.7078C70.1359 54.8992 68.7338 53.5102 66.931 53.2304Z" fill="#CFD8DC"/>
<path d="M38.5282 29.8383L41.673 49.2639C41.8032 50.0832 42.4542 50.7328 43.2854 50.8627L62.7751 53.8804C64.6179 54.1702 65.0185 56.6484 63.356 57.4977L45.8093 66.481C45.0682 66.8608 44.6475 67.6801 44.7877 68.4995L47.9325 87.9251C48.233 89.7637 45.9896 90.9128 44.6675 89.5938L30.6763 75.7242C30.0854 75.1346 29.174 74.9947 28.4328 75.3744L10.8861 84.3577C9.22361 85.2071 7.4409 83.4384 8.28218 81.7796L17.1857 64.2227C17.5663 63.4733 17.4161 62.5739 16.8252 61.9844L2.8439 48.1147C1.52189 46.7957 2.65361 44.5574 4.49642 44.8471L23.9861 47.8649C24.8173 47.9948 25.6286 47.5751 26.0092 46.8357L34.9127 29.2787C35.744 27.61 38.2277 27.9997 38.5282 29.8383Z" fill="#EB9CC3" stroke="#2576B9" stroke-width="4.5202" stroke-miterlimit="10"/>
</g>
<defs>
<clipPath id="clip0_1653_4019">
<rect width="92" height="94" fill="white"/>
</clipPath>
</defs>
</svg>
