<svg width="439" height="219" viewBox="0 0 439 219" fill="none" xmlns="http://www.w3.org/2000/svg">
<g clip-path="url(#clip0_1662_6703)">
<path d="M376.281 48.097C369.744 51.2789 367.025 59.1388 370.203 65.6721C373.382 72.2054 381.27 74.9085 387.817 71.7366C391.926 69.7417 394.525 65.8915 395.105 61.6922C400.033 68.9836 409.7 71.7366 417.857 67.7767C426.774 63.4378 430.483 52.7152 426.134 43.818C421.786 34.9207 411.04 31.2202 402.123 35.5591" fill="#EB9CC3"/>
<path d="M376.281 48.097C369.744 51.2789 367.025 59.1388 370.203 65.6721C373.382 72.2054 381.27 74.9085 387.817 71.7366C391.926 69.7417 394.525 65.8915 395.105 61.6922C400.033 68.9836 409.7 71.7366 417.857 67.7767C426.774 63.4378 430.483 52.7152 426.134 43.818C421.786 34.9207 411.04 31.2202 402.123 35.5591" stroke="#2576B9" stroke-width="3" stroke-miterlimit="10"/>
<path d="M402.113 35.5391C411.03 31.2002 414.738 20.4777 410.39 11.5804C406.041 2.68315 395.295 -1.01739 386.378 3.32152C378.231 7.28139 374.432 16.5776 377.151 24.9462C373.483 22.8117 368.844 22.4825 364.735 24.4774C358.198 27.6593 355.479 35.5192 358.658 42.0525C361.836 48.5858 369.724 51.2889 376.272 48.117" fill="#EB9CC3"/>
<path d="M402.113 35.5391C411.03 31.2002 414.738 20.4777 410.39 11.5804C406.041 2.68315 395.295 -1.01739 386.378 3.32152C378.231 7.28139 374.432 16.5776 377.151 24.9462C373.483 22.8117 368.844 22.4825 364.735 24.4774C358.198 27.6593 355.479 35.5192 358.658 42.0525C361.836 48.5858 369.724 51.2889 376.272 48.117" stroke="#2576B9" stroke-width="3" stroke-miterlimit="10"/>
<path d="M394.805 22.6022C397.45 22.6022 399.594 20.4631 399.594 17.8244C399.594 15.1857 397.45 13.0466 394.805 13.0466C392.161 13.0466 390.017 15.1857 390.017 17.8244C390.017 20.4631 392.161 22.6022 394.805 22.6022Z" fill="#EB9CC3" stroke="#2576B9" stroke-width="3" stroke-miterlimit="10"/>
<path d="M372.113 41.6036C374.758 41.6036 376.901 39.4645 376.901 36.8258C376.901 34.1871 374.758 32.048 372.113 32.048C369.469 32.048 367.325 34.1871 367.325 36.8258C367.325 39.4645 369.469 41.6036 372.113 41.6036Z" fill="#EB9CC3" stroke="#2576B9" stroke-width="3" stroke-miterlimit="10"/>
<path d="M382.599 63.0887C385.244 63.0887 387.388 60.9496 387.388 58.3109C387.388 55.6722 385.244 53.5331 382.599 53.5331C379.955 53.5331 377.811 55.6722 377.811 58.3109C377.811 60.9496 379.955 63.0887 382.599 63.0887Z" fill="#EB9CC3" stroke="#2576B9" stroke-width="3" stroke-miterlimit="10"/>
<path d="M411.579 56.9743C414.224 56.9743 416.368 54.8352 416.368 52.1965C416.368 49.5578 414.224 47.4188 411.579 47.4188C408.935 47.4188 406.791 49.5578 406.791 52.1965C406.791 54.8352 408.935 56.9743 411.579 56.9743Z" fill="#EB9CC3" stroke="#2576B9" stroke-width="3" stroke-miterlimit="10"/>
<path d="M403.192 35.0105C403.192 35.0105 431.123 26.7516 420.576 5.14685" stroke="#2576B9" stroke-width="3" stroke-miterlimit="10"/>
<path d="M403.362 35.3596C403.362 35.3596 427.104 18.5027 437.651 40.1075" stroke="#2576B9" stroke-width="3" stroke-miterlimit="10"/>
<path d="M344.462 62.2708C297.888 71.3376 240.748 86.6584 178.479 113.35C103.505 145.498 44.9145 183.92 2.49902 216.506" stroke="white" stroke-width="5" stroke-miterlimit="10" stroke-linecap="round" stroke-linejoin="round" stroke-dasharray="1 10"/>
</g>
<defs>
<clipPath id="clip0_1662_6703">
<rect width="439" height="219" fill="white"/>
</clipPath>
</defs>
</svg>
