<svg width="92" height="111" viewBox="0 0 92 111" fill="none" xmlns="http://www.w3.org/2000/svg">
<g clip-path="url(#clip0_1715_4397)">
<path d="M60.1409 24.3779C56.8199 25.9907 55.4387 29.9744 57.0535 33.2858C58.6683 36.5972 62.6748 37.9673 66.0009 36.3596C68.088 35.3485 69.4082 33.3971 69.7028 31.2687C72.2062 34.9643 77.1166 36.3596 81.2603 34.3526C85.7898 32.1534 87.6738 26.7187 85.4648 22.2091C83.2559 17.6995 77.7971 15.8239 73.2675 18.0231" fill="#EB9CC3"/>
<path d="M60.1409 24.3779C56.8199 25.9907 55.4387 29.9744 57.0535 33.2858C58.6683 36.5972 62.6748 37.9673 66.0009 36.3596C68.088 35.3485 69.4082 33.3971 69.7028 31.2687C72.2062 34.9643 77.1166 36.3596 81.2603 34.3526C85.7898 32.1534 87.6738 26.7187 85.4649 22.2091C83.2559 17.6995 77.7971 15.8239 73.2675 18.0231" stroke="#2576B9" stroke-width="2" stroke-miterlimit="10"/>
<path d="M73.2623 18.013C77.7919 15.8138 79.6758 10.3791 77.4669 5.8695C75.2579 1.35993 69.7991 -0.515684 65.2695 1.68349C61.131 3.69055 59.2013 8.40233 60.5825 12.644C58.7189 11.5621 56.3627 11.3952 54.2757 12.4063C50.9547 14.0191 49.5734 18.0029 51.1883 21.3143C52.8031 24.6256 56.8096 25.9957 60.1357 24.388" fill="#EB9CC3"/>
<path d="M73.2623 18.013C77.7919 15.8138 79.6758 10.3791 77.4669 5.8695C75.2579 1.35993 69.7991 -0.515685 65.2695 1.68349C61.131 3.69055 59.2013 8.40233 60.5825 12.644C58.7189 11.5621 56.3627 11.3952 54.2757 12.4063C50.9547 14.0191 49.5734 18.0029 51.1883 21.3143C52.8031 24.6256 56.8096 25.9957 60.1357 24.388" stroke="#2576B9" stroke-width="2" stroke-miterlimit="10"/>
<path d="M69.5505 11.4559C70.8939 11.4559 71.9829 10.3717 71.9829 9.03429C71.9829 7.69687 70.8939 6.61267 69.5505 6.61267C68.2072 6.61267 67.1182 7.69687 67.1182 9.03429C67.1182 10.3717 68.2072 11.4559 69.5505 11.4559Z" fill="#EB9CC3" stroke="#2576B9" stroke-width="2" stroke-miterlimit="10"/>
<path d="M58.0232 21.0868C59.3665 21.0868 60.4556 20.0026 60.4556 18.6651C60.4556 17.3277 59.3665 16.2435 58.0232 16.2435C56.6798 16.2435 55.5908 17.3277 55.5908 18.6651C55.5908 20.0026 56.6798 21.0868 58.0232 21.0868Z" fill="#EB9CC3" stroke="#2576B9" stroke-width="2" stroke-miterlimit="10"/>
<path d="M63.3498 31.9764C64.6932 31.9764 65.7822 30.8922 65.7822 29.5548C65.7822 28.2174 64.6932 27.1332 63.3498 27.1332C62.0065 27.1332 60.9175 28.2174 60.9175 29.5548C60.9175 30.8922 62.0065 31.9764 63.3498 31.9764Z" fill="#EB9CC3" stroke="#2576B9" stroke-width="2" stroke-miterlimit="10"/>
<path d="M78.071 28.8773C79.4144 28.8773 80.5034 27.7932 80.5034 26.4557C80.5034 25.1183 79.4144 24.0341 78.071 24.0341C76.7277 24.0341 75.6387 25.1183 75.6387 26.4557C75.6387 27.7932 76.7277 28.8773 78.071 28.8773Z" fill="#EB9CC3" stroke="#2576B9" stroke-width="2" stroke-miterlimit="10"/>
<path d="M73.8105 17.745C73.8105 17.745 87.9985 13.559 82.6412 2.60864" stroke="#2576B9" stroke-width="2" stroke-miterlimit="10"/>
<path d="M73.897 17.922C73.897 17.922 85.9572 9.37807 91.3145 20.3284" stroke="#2576B9" stroke-width="2" stroke-miterlimit="10"/>
<path d="M43.9775 31.5619C20.3191 36.1574 -8.7067 43.9227 -40.3375 57.4514C-78.4224 73.7455 -108.185 93.2196 -129.73 109.736" stroke="white" stroke-width="3" stroke-miterlimit="10" stroke-linecap="round" stroke-linejoin="round" stroke-dasharray="1 10"/>
</g>
<defs>
<clipPath id="clip0_1715_4397">
<rect width="223" height="111" fill="white" transform="translate(-131)"/>
</clipPath>
</defs>
</svg>
