<svg width="84" height="79" viewBox="0 0 84 79" fill="none" xmlns="http://www.w3.org/2000/svg">
<path d="M21.2814 50.7325C14.7436 54.0887 12.0245 62.3793 15.2035 69.2706C18.3824 76.1618 26.2697 79.0131 32.8175 75.6674C36.9261 73.5632 39.5251 69.502 40.1049 65.0727C45.0333 72.7636 54.7 75.6674 62.8572 71.4905C71.7741 66.9139 75.4829 55.6037 71.1344 46.219C66.7858 36.8342 56.0395 32.9309 47.1226 37.5075" fill="#EB9CC3"/>
<path d="M21.2814 50.7325C14.7436 54.0887 12.0245 62.3793 15.2035 69.2706C18.3824 76.1618 26.2697 79.0131 32.8175 75.6674C36.9261 73.5632 39.5251 69.502 40.1049 65.0727C45.0333 72.7636 54.7 75.6674 62.8572 71.4905C71.7741 66.9139 75.4829 55.6037 71.1344 46.219C66.7858 36.8342 56.0395 32.9309 47.1226 37.5075" stroke="#2576B9" stroke-width="3" stroke-miterlimit="10"/>
<path d="M47.1127 37.4865C56.0297 32.9098 59.7384 21.5997 55.3899 12.2149C51.0414 2.83017 40.2951 -1.07314 31.3781 3.50352C23.2309 7.68037 19.4322 17.486 22.1513 26.3131C18.4825 24.0616 13.8441 23.7144 9.73547 25.8187C3.1977 29.1749 0.478643 37.4655 3.65756 44.3567C6.83647 51.248 14.7238 54.0992 21.2715 50.7535" fill="#EB9CC3"/>
<path d="M47.1127 37.4865C56.0297 32.9098 59.7384 21.5997 55.3899 12.2149C51.0414 2.83017 40.2951 -1.07314 31.3781 3.50352C23.2309 7.68037 19.4322 17.486 22.1513 26.3131C18.4825 24.0616 13.8441 23.7144 9.73547 25.8187C3.1977 29.1749 0.478643 37.4655 3.65756 44.3567C6.83647 51.248 14.7238 54.0992 21.2715 50.7535" stroke="#2576B9" stroke-width="3" stroke-miterlimit="10"/>
<path d="M39.8055 23.8407C42.45 23.8407 44.5938 21.5844 44.5938 18.8011C44.5938 16.0178 42.45 13.7615 39.8055 13.7615C37.1609 13.7615 35.0171 16.0178 35.0171 18.8011C35.0171 21.5844 37.1609 23.8407 39.8055 23.8407Z" fill="#EB9CC3" stroke="#2576B9" stroke-width="3" stroke-miterlimit="10"/>
<path d="M17.1131 43.8833C19.7576 43.8833 21.9015 41.627 21.9015 38.8437C21.9015 36.0604 19.7576 33.8041 17.1131 33.8041C14.4685 33.8041 12.3247 36.0604 12.3247 38.8437C12.3247 41.627 14.4685 43.8833 17.1131 43.8833Z" fill="#EB9CC3" stroke="#2576B9" stroke-width="3" stroke-miterlimit="10"/>
<path d="M27.5994 66.5456C30.244 66.5456 32.3878 64.2893 32.3878 61.506C32.3878 58.7227 30.244 56.4664 27.5994 56.4664C24.9549 56.4664 22.811 58.7227 22.811 61.506C22.811 64.2893 24.9549 66.5456 27.5994 66.5456Z" fill="#EB9CC3" stroke="#2576B9" stroke-width="3" stroke-miterlimit="10"/>
<path d="M56.5794 60.0962C59.224 60.0962 61.3678 57.8399 61.3678 55.0566C61.3678 52.2733 59.224 50.017 56.5794 50.017C53.9349 50.017 51.791 52.2733 51.791 55.0566C51.791 57.8399 53.9349 60.0962 56.5794 60.0962Z" fill="#EB9CC3" stroke="#2576B9" stroke-width="3" stroke-miterlimit="10"/>
<path d="M48.1924 36.9289C48.1924 36.9289 76.1229 28.2175 65.5765 5.42889" stroke="#2576B9" stroke-width="3" stroke-miterlimit="10"/>
<path d="M48.3623 37.2971C48.3623 37.2971 72.1042 19.5166 82.6506 42.3051" stroke="#2576B9" stroke-width="3" stroke-miterlimit="10"/>
</svg>
