<svg width="131" height="117" viewBox="0 0 131 117" fill="none" xmlns="http://www.w3.org/2000/svg">
<path opacity="0.75" d="M93.9901 116.29C92.7901 116.29 91.5901 116.2 90.4001 116.02C83.9701 115.05 78.3101 111.49 74.6001 106.38C72.2101 106.73 69.79 106.9 67.3601 106.9C64.8301 106.9 62.28 106.71 59.78 106.33C54.48 105.53 49.43 103.93 44.7001 101.56C36.41 104.91 29.3101 106.61 23.5301 106.61C14.8401 106.61 10.2101 102.82 7.86005 99.63C1.48005 90.98 4.62005 78.84 17.1901 63.51C16.4701 58.59 16.4801 53.6 17.2301 48.64C20.9401 24.06 42.48 5.52 67.3301 5.52C69.8601 5.52 72.4101 5.71 74.9301 6.09C79.8101 6.83 84.5101 8.25999 88.9301 10.35C97.7601 6.66999 105.3 4.81 111.38 4.81C120.04 4.81 124.65 8.59999 127 11.78C133.08 20.02 130.51 31.45 119.37 45.76C118.75 46.56 118.1 47.37 117.41 48.2C118.24 53.34 118.26 58.57 117.47 63.79C116.73 68.67 115.26 73.46 113.15 77.93C113.19 77.99 113.23 78.04 113.28 78.1C117.08 83.25 118.65 89.58 117.69 95.91C115.93 107.53 105.75 116.29 93.9901 116.29Z" fill="#CFD8DC"/>
<path d="M89.3401 111.64C88.1401 111.64 86.9401 111.55 85.7501 111.37C79.3201 110.4 73.6601 106.84 69.9501 101.73C67.5601 102.08 65.1401 102.25 62.7101 102.25C60.1801 102.25 57.6301 102.06 55.1301 101.68C49.8302 100.88 44.7801 99.28 40.0501 96.91C31.7601 100.26 24.6601 101.96 18.8801 101.96C10.1901 101.96 5.56015 98.17 3.21015 94.98C-3.16985 86.33 -0.029851 74.19 12.5401 58.86C11.8201 53.94 11.8301 48.95 12.5801 43.99C16.2901 19.41 37.8301 0.869972 62.6801 0.869972C65.2102 0.869972 67.7601 1.05997 70.2801 1.43997C75.1601 2.17997 79.8601 3.60997 84.2801 5.69997C93.1101 2.01997 100.65 0.159973 106.73 0.159973C115.39 0.159973 120 3.94997 122.35 7.12997C128.43 15.37 125.86 26.8 114.72 41.11C114.1 41.91 113.45 42.72 112.76 43.55C113.59 48.69 113.61 53.92 112.82 59.14C112.08 64.02 110.61 68.81 108.5 73.28C108.54 73.34 108.58 73.39 108.63 73.45C112.43 78.6 114 84.93 113.04 91.26C111.28 102.87 101.09 111.64 89.3401 111.64Z" fill="#2576B9"/>
<path d="M77.5301 89.34C71.5201 91.47 64.9101 92.2 58.1701 91.18C36.2901 87.87 21.2201 67.45 24.5301 45.57C27.8401 23.69 48.2601 8.62001 70.1401 11.93C92.0201 15.24 107.09 35.66 103.78 57.54C102.75 64.38 100.04 70.55 96.1401 75.71" fill="#FFD95C"/>
<path d="M77.5301 89.34C71.5201 91.47 64.9101 92.2 58.1701 91.18C36.2901 87.87 21.2201 67.45 24.5301 45.57C27.8401 23.69 48.2601 8.62001 70.1401 11.93C92.0201 15.24 107.09 35.66 103.78 57.54C102.75 64.38 100.04 70.55 96.1401 75.71" stroke="white" stroke-width="3.8992" stroke-miterlimit="10"/>
<path d="M86.2602 17.04C100.64 10.47 111.78 8.71 115.26 13.41C121.1 21.34 103 44.61 74.8202 65.39C46.6402 86.17 19.0602 96.59 13.2202 88.67C9.79018 84.02 14.6002 74.1 24.8402 62.5" stroke="white" stroke-width="3.8992" stroke-miterlimit="10"/>
<path d="M90.7902 101.02C98.1687 101.02 104.15 95.0385 104.15 87.66C104.15 80.2815 98.1687 74.3 90.7902 74.3C83.4117 74.3 77.4302 80.2815 77.4302 87.66C77.4302 95.0385 83.4117 101.02 90.7902 101.02Z" stroke="white" stroke-width="3.8992" stroke-miterlimit="10"/>
</svg>
