<svg width="131" height="164" viewBox="0 0 131 164" fill="none" xmlns="http://www.w3.org/2000/svg">
<g clip-path="url(#clip0_1662_6715)">
<path opacity="0.75" d="M93.9901 163.29C92.7901 163.29 91.5901 163.2 90.4001 163.02C83.9701 162.05 78.3101 158.49 74.6001 153.38C72.2101 153.73 69.79 153.9 67.3601 153.9C64.8301 153.9 62.28 153.71 59.78 153.33C54.48 152.53 49.43 150.93 44.7001 148.56C36.41 151.91 29.3101 153.61 23.5301 153.61C14.8401 153.61 10.2101 149.82 7.86005 146.63C1.48005 137.98 4.62005 125.84 17.1901 110.51C16.4701 105.59 16.4801 100.6 17.2301 95.64C20.9401 71.06 42.48 52.52 67.3301 52.52C69.8601 52.52 72.4101 52.71 74.9301 53.09C79.8101 53.83 84.5101 55.26 88.9301 57.35C97.7601 53.67 105.3 51.81 111.38 51.81C120.04 51.81 124.65 55.6 127 58.78C133.08 67.02 130.51 78.45 119.37 92.76C118.75 93.56 118.1 94.37 117.41 95.2C118.24 100.34 118.26 105.57 117.47 110.79C116.73 115.67 115.26 120.46 113.15 124.93C113.19 124.99 113.23 125.04 113.28 125.1C117.08 130.25 118.65 136.58 117.69 142.91C115.93 154.53 105.75 163.29 93.9901 163.29Z" fill="#CFD8DC"/>
<path d="M89.3401 158.64C88.1401 158.64 86.9401 158.55 85.7501 158.37C79.3201 157.4 73.6601 153.84 69.9501 148.73C67.5601 149.08 65.1401 149.25 62.7101 149.25C60.1801 149.25 57.6301 149.06 55.1301 148.68C49.8302 147.88 44.7801 146.28 40.0501 143.91C31.7601 147.26 24.6601 148.96 18.8801 148.96C10.1901 148.96 5.56015 145.17 3.21015 141.98C-3.16985 133.33 -0.029851 121.19 12.5401 105.86C11.8201 100.94 11.8301 95.95 12.5801 90.99C16.2901 66.41 37.8301 47.87 62.6801 47.87C65.2102 47.87 67.7601 48.06 70.2801 48.44C75.1601 49.18 79.8601 50.61 84.2801 52.7C93.1101 49.02 100.65 47.16 106.73 47.16C115.39 47.16 120 50.95 122.35 54.13C128.43 62.37 125.86 73.8 114.72 88.11C114.1 88.91 113.45 89.72 112.76 90.55C113.59 95.69 113.61 100.92 112.82 106.14C112.08 111.02 110.61 115.81 108.5 120.28C108.54 120.34 108.58 120.39 108.63 120.45C112.43 125.6 114 131.93 113.04 138.26C111.28 149.87 101.09 158.64 89.3401 158.64Z" fill="#2576B9"/>
<path d="M77.5301 136.34C71.5201 138.47 64.9101 139.2 58.1701 138.18C36.2901 134.87 21.2201 114.45 24.5301 92.57C27.8401 70.69 48.2601 55.62 70.1401 58.93C92.0201 62.24 107.09 82.66 103.78 104.54C102.75 111.38 100.04 117.55 96.1401 122.71" fill="#FFD95C"/>
<path d="M77.5301 136.34C71.5201 138.47 64.9101 139.2 58.1701 138.18C36.2901 134.87 21.2201 114.45 24.5301 92.57C27.8401 70.69 48.2601 55.62 70.1401 58.93C92.0201 62.24 107.09 82.66 103.78 104.54C102.75 111.38 100.04 117.55 96.1401 122.71" stroke="white" stroke-width="3.8992" stroke-miterlimit="10"/>
<path d="M86.2602 64.04C100.64 57.47 111.78 55.71 115.26 60.41C121.1 68.34 103 91.61 74.8202 112.39C46.6402 133.17 19.0602 143.59 13.2202 135.67C9.79018 131.02 14.6002 121.1 24.8402 109.5" stroke="white" stroke-width="3.8992" stroke-miterlimit="10"/>
<path d="M90.7902 148.02C98.1687 148.02 104.15 142.039 104.15 134.66C104.15 127.281 98.1687 121.3 90.7902 121.3C83.4117 121.3 77.4302 127.281 77.4302 134.66C77.4302 142.039 83.4117 148.02 90.7902 148.02Z" stroke="white" stroke-width="3.8992" stroke-miterlimit="10"/>
<path d="M90.4599 1.47998C90.4599 1.47998 90.4599 14.52 77.4199 14.52C77.4199 14.52 90.4599 14.52 90.4599 27.56C90.4599 27.56 90.4599 14.52 103.5 14.52C103.51 14.52 90.4699 14.52 90.4599 1.47998Z" stroke="white" stroke-width="2.9625" stroke-miterlimit="10" stroke-linecap="round" stroke-linejoin="round"/>
</g>
<defs>
<clipPath id="clip0_1662_6715">
<rect width="130.2" height="163.29" fill="white"/>
</clipPath>
</defs>
</svg>
