<svg width="55" height="69" viewBox="0 0 55 69" fill="none" xmlns="http://www.w3.org/2000/svg">
<g clip-path="url(#clip0_1715_4427)">
<path opacity="0.75" d="M39.704 69C39.1971 69 38.6902 68.962 38.1875 68.8859C35.4713 68.476 33.0804 66.9717 31.5132 64.8124C30.5036 64.9603 29.4813 65.0321 28.4548 65.0321C27.3861 65.0321 26.3089 64.9519 25.2528 64.7913C23.014 64.4532 20.8807 63.7771 18.8826 62.7757C15.3807 64.1912 12.3815 64.9096 9.93984 64.9096C6.26895 64.9096 4.31311 63.3081 3.32041 61.9601C0.625324 58.305 1.95175 53.1751 7.26165 46.6972C6.95751 44.6182 6.96173 42.5096 7.27855 40.4137C8.84575 30.0272 17.9448 22.1929 28.4421 22.1929C29.5109 22.1929 30.5881 22.2732 31.6526 22.4338C33.714 22.7465 35.6994 23.3507 37.5666 24.2339C41.2966 22.6788 44.4817 21.8929 47.0501 21.8929C50.7083 21.8929 52.6557 23.4944 53.6484 24.8381C56.2167 28.32 55.1311 33.1499 50.4253 39.1968C50.1633 39.5348 49.8888 39.8771 49.5973 40.2278C49.9479 42.3998 49.9564 44.6098 49.6226 46.8155C49.31 48.8776 48.6891 50.9017 47.7978 52.7906C47.8147 52.8159 47.8315 52.837 47.8527 52.8624C49.4579 55.0386 50.1211 57.7134 49.7156 60.3882C48.9721 65.2984 44.6718 69 39.704 69Z" fill="#CFD8DC"/>
<path d="M37.7397 67.0351C37.2328 67.0351 36.7259 66.9971 36.2232 66.921C33.507 66.5111 31.116 65.0068 29.5488 62.8475C28.5392 62.9954 27.517 63.0672 26.4905 63.0672C25.4217 63.0672 24.3445 62.987 23.2885 62.8264C21.0496 62.4883 18.9163 61.8122 16.9183 60.8108C13.4163 62.2263 10.4171 62.9447 7.97548 62.9447C4.30459 62.9447 2.34876 61.3432 1.35605 59.9952C-1.33903 56.3401 -0.0126099 51.2102 5.2973 44.7323C4.99315 42.6533 4.99737 40.5447 5.31419 38.4488C6.8814 28.0623 15.9805 20.228 26.4778 20.228C27.5465 20.228 28.6237 20.3083 29.6882 20.4689C31.7497 20.7816 33.7351 21.3858 35.6022 22.269C39.3322 20.7139 42.5173 19.928 45.0857 19.928C48.7439 19.928 50.6913 21.5295 51.684 22.8732C54.2524 26.3551 53.1667 31.185 48.4609 37.2319C48.199 37.5699 47.9244 37.9122 47.6329 38.2629C47.9835 40.4349 47.992 42.6449 47.6583 44.8506C47.3457 46.9127 46.7247 48.9368 45.8334 50.8256C45.8503 50.851 45.8672 50.8721 45.8883 50.8975C47.4935 53.0737 48.1567 55.7485 47.7512 58.4233C47.0077 63.3292 42.7032 67.0351 37.7397 67.0351Z" fill="#2576B9"/>
<path d="M32.7511 57.6119C30.2124 58.512 27.4201 58.8205 24.573 58.3895C15.3302 56.9908 8.96427 48.3621 10.3625 39.1165C11.7607 29.8708 20.3867 23.5028 29.6294 24.9015C38.8721 26.3002 45.2381 34.9289 43.8399 44.1745C43.4048 47.0648 42.26 49.672 40.6125 51.8524" fill="#FFD95C"/>
<path d="M32.7511 57.612C30.2124 58.512 27.4201 58.8205 24.573 58.3895C15.3302 56.9908 8.96427 48.3621 10.3625 39.1165C11.7607 29.8708 20.3867 23.5028 29.6294 24.9015C38.8721 26.3002 45.2381 34.9289 43.8399 44.1745C43.4048 47.0648 42.26 49.672 40.6125 51.8524" stroke="white" stroke-width="3.8992" stroke-miterlimit="10"/>
<path d="M36.4388 27.0608C42.5133 24.2846 47.2192 23.5409 48.6892 25.5269C51.1562 28.8778 43.5103 38.7108 31.6063 47.4916C19.7023 56.2724 8.05173 60.6755 5.58476 57.3288C4.13583 55.3639 6.16771 51.1721 10.4934 46.2704" stroke="white" stroke-width="3.8992" stroke-miterlimit="10"/>
<path d="M38.3526 62.5475C41.4695 62.5475 43.9962 60.0199 43.9962 56.9021C43.9962 53.7842 41.4695 51.2567 38.3526 51.2567C35.2357 51.2567 32.709 53.7842 32.709 56.9021C32.709 60.0199 35.2357 62.5475 38.3526 62.5475Z" stroke="white" stroke-width="3.8992" stroke-miterlimit="10"/>
<path d="M38.2125 0.625366C38.2125 0.625366 38.2125 6.13556 32.7041 6.13556C32.7041 6.13556 38.2125 6.13556 38.2125 11.6458C38.2125 11.6458 38.2125 6.13556 43.721 6.13556C43.7252 6.13556 38.2168 6.13556 38.2125 0.625366Z" stroke="white" stroke-miterlimit="10" stroke-linecap="round" stroke-linejoin="round"/>
</g>
<defs>
<clipPath id="clip0_1715_4427">
<rect width="55" height="69" fill="white"/>
</clipPath>
</defs>
</svg>
