<svg width="120" height="114" viewBox="0 0 120 114" fill="none" xmlns="http://www.w3.org/2000/svg">
<g clip-path="url(#clip0_1662_5465)">
<path opacity="0.75" d="M64.8993 0.080001L61.2493 0.490001C55.9793 1.09 51.8792 4.94 50.7093 9.81C50.3893 11.16 50.2893 12.59 50.4593 14.05L51.8593 26.39C51.8793 26.7 51.9393 27 51.9993 27.31C50.6493 27.81 49.3193 28.39 48.0293 29.06L38.4493 21.27C33.1993 17 25.4792 17.8 21.2092 23.05L18.8893 25.9C17.7193 27.34 16.8993 29.01 16.4793 30.78C16.1593 32.11 16.0593 33.5 16.2093 34.89C16.5393 38.12 18.1493 41.09 20.6693 43.14L30.2092 50.9C30.0793 51.37 29.9393 51.83 29.8293 52.3C29.6593 53.03 29.5193 53.76 29.3993 54.5C29.0592 54.52 28.7192 54.54 28.3892 54.59L15.5293 56.34C10.3693 57.04 6.40925 60.86 5.25925 65.63C4.91925 67.06 4.82925 68.59 5.03925 70.14L5.53925 73.78C5.97925 77 7.67925 79.92 10.2693 81.88C12.8593 83.85 16.1193 84.71 19.3393 84.27L29.9792 82.82L25.7593 88.02C24.5893 89.46 23.7793 91.13 23.3493 92.9C23.0293 94.23 22.9293 95.62 23.0793 97.01C23.4093 100.24 25.0193 103.21 27.5393 105.26L30.3892 107.58C35.6392 111.85 43.3593 111.05 47.6293 105.8L55.1293 96.57C55.5793 96.01 55.9593 95.42 56.3093 94.8C56.3293 94.8 56.3593 94.81 56.3793 94.81C61.0393 95.63 64.8792 96.14 67.7793 96.35C70.6393 96.55 73.2293 97.58 75.5393 99.46L76.9593 100.6C77.9393 101.38 78.9993 101.99 80.0993 102.43L81.8092 103.82C82.0492 104.02 82.3092 104.19 82.5592 104.37C82.7992 104.6 83.0293 104.82 83.2893 105.03L86.1393 107.35C91.3893 111.62 99.1093 110.82 103.379 105.57L116.439 89.51C117.609 88.07 118.429 86.4 118.849 84.63C119.169 83.3 119.269 81.91 119.119 80.52C118.789 77.29 117.179 74.32 114.659 72.27L111.809 69.95C111.509 69.71 111.209 69.49 110.899 69.28C110.709 69.1 110.539 68.91 110.329 68.75L108.569 67.32C107.899 66.3 107.069 65.36 106.079 64.55L104.649 63.39C102.469 61.62 100.909 59.24 100.139 56.51C99.3693 53.78 98.1293 50.25 96.4693 46.01C96.4193 45.87 96.3493 45.75 96.2893 45.61C96.8193 45.15 97.3193 44.65 97.7793 44.09L105.279 34.86C106.449 33.42 107.259 31.75 107.689 29.98C108.009 28.65 108.109 27.26 107.959 25.87C107.629 22.64 106.019 19.67 103.499 17.62L100.649 15.3C95.3993 11.03 87.6793 11.83 83.4093 17.08L79.6793 21.67L78.4492 10.87C78.0792 7.64 76.4493 4.69 73.9093 2.66C71.3693 0.640001 68.1293 -0.289999 64.8993 0.080001Z" fill="#CFD8DC"/>
<path d="M59.9696 3.1L56.3196 3.51C51.0496 4.11 46.9496 7.96 45.7796 12.83C45.4596 14.18 45.3596 15.61 45.5296 17.07L46.9296 29.41C46.9696 29.72 47.0196 30.02 47.0796 30.33C45.7296 30.83 44.3996 31.41 43.1096 32.08L33.5296 24.29C28.2796 20.02 20.5596 20.82 16.2896 26.07L13.9696 28.92C12.7996 30.36 11.9796 32.03 11.5596 33.8C11.2396 35.13 11.1396 36.52 11.2896 37.91C11.6196 41.14 13.2296 44.11 15.7496 46.16L25.2896 53.92C25.1596 54.39 25.0196 54.85 24.9096 55.32C24.7396 56.05 24.5996 56.78 24.4796 57.52C24.1396 57.54 23.7996 57.56 23.4696 57.61L10.5996 59.36C5.43956 60.06 1.47956 63.88 0.329564 68.65C-0.0104363 70.08 -0.100436 71.61 0.109564 73.16L0.609564 76.8C1.04956 80.02 2.74956 82.94 5.33956 84.9C7.92956 86.87 11.1896 87.73 14.4096 87.29L25.0496 85.84L20.8296 91.04C19.6596 92.48 18.8496 94.15 18.4196 95.92C18.0996 97.25 17.9996 98.64 18.1496 100.03C18.4796 103.26 20.0896 106.23 22.6096 108.28L25.4596 110.6C30.7096 114.87 38.4296 114.07 42.6996 108.82L50.1996 99.59C50.6496 99.03 51.0296 98.44 51.3796 97.82C51.3996 97.82 51.4296 97.83 51.4496 97.83C56.1096 98.65 59.9496 99.16 62.8496 99.37C65.7096 99.57 68.2996 100.6 70.6096 102.48L72.0296 103.62C73.0096 104.4 74.0696 105.01 75.1696 105.45L76.8796 106.84C77.1196 107.04 77.3796 107.21 77.6296 107.39C77.8696 107.62 78.0996 107.84 78.3596 108.05L81.2096 110.37C86.4596 114.64 94.1796 113.84 98.4496 108.59L111.51 92.53C112.68 91.09 113.5 89.42 113.92 87.65C114.24 86.32 114.34 84.93 114.19 83.54C113.86 80.31 112.25 77.34 109.73 75.29L106.88 72.97C106.58 72.73 106.28 72.51 105.97 72.3C105.78 72.12 105.61 71.93 105.4 71.77L103.64 70.34C102.97 69.32 102.14 68.38 101.15 67.57L99.7196 66.41C97.5396 64.64 95.9796 62.26 95.2096 59.53C94.4396 56.8 93.1996 53.27 91.5396 49.03C91.4896 48.89 91.4196 48.77 91.3596 48.63C91.8896 48.17 92.3896 47.67 92.8496 47.11L100.35 37.88C101.52 36.44 102.33 34.77 102.76 33C103.08 31.67 103.18 30.28 103.03 28.89C102.7 25.66 101.09 22.69 98.5696 20.64L95.7196 18.32C90.4696 14.05 82.7496 14.85 78.4796 20.1L74.7496 24.69L73.5196 13.89C73.1496 10.66 71.5196 7.71 68.9796 5.68C66.4396 3.67 63.1996 2.73 59.9696 3.1Z" fill="white"/>
<path d="M72.3696 46.08C63.3996 39.52 50.7496 40.91 43.4296 49.27C35.3296 58.52 36.5796 72.56 46.0296 80.25C46.0496 80.26 46.0596 80.27 46.0796 80.29C48.3396 82.12 51.0596 83.29 53.9196 83.8C56.6896 84.29 60.8296 84.95 63.8796 85.16C69.5696 85.56 74.9896 87.7 79.4096 91.29L79.4696 91.33L90.9296 77.23L90.8796 77.19C86.4496 73.59 83.2496 68.71 81.6996 63.22C80.8896 60.37 79.4896 56.62 78.4696 54.04C77.6196 51.88 76.3596 49.91 74.7396 48.25C73.9496 47.43 73.0896 46.61 72.3696 46.08Z" fill="#FFD95C" stroke="#2576B9" stroke-width="3.6769" stroke-miterlimit="10"/>
<path d="M73.9795 86.88L85.4395 72.78" stroke="#2576B9" stroke-width="3.6769" stroke-miterlimit="10"/>
<path d="M96.2895 79.96L83.2295 96.03" stroke="#2576B9" stroke-width="3.6769" stroke-miterlimit="10"/>
<path d="M100.62 83.49L87.5596 99.55" stroke="#2576B9" stroke-width="3.6769" stroke-miterlimit="10"/>
<path d="M24.6699 35.08L35.7899 44.12" stroke="#2576B9" stroke-width="3.6769" stroke-miterlimit="10"/>
<path d="M31.7998 99.78L39.2998 90.55" stroke="#2576B9" stroke-width="3.6769" stroke-miterlimit="10"/>
<path d="M81.96 38.08L89.46 28.85" stroke="#2576B9" stroke-width="3.6769" stroke-miterlimit="10"/>
<path d="M25.4 71.42L12.54 73.18" stroke="#2576B9" stroke-width="3.6769" stroke-miterlimit="10"/>
<path d="M60.9596 27.68L59.5596 15.34" stroke="#2576B9" stroke-width="3.6769" stroke-miterlimit="10"/>
<path d="M54.9902 53.21L56.1202 67.75L65.8102 63.92L67.1202 79.36" stroke="#2576B9" stroke-width="3.6769" stroke-miterlimit="10"/>
</g>
<defs>
<clipPath id="clip0_1662_5465">
<rect width="119.19" height="113.34" fill="white"/>
</clipPath>
</defs>
</svg>
