<svg width="76" height="84" viewBox="0 0 76 84" fill="none" xmlns="http://www.w3.org/2000/svg">
<g clip-path="url(#clip0_1662_5494)">
<path d="M60.9004 55.61C60.9004 55.61 60.9004 68.65 47.8604 68.65C47.8604 68.65 60.9004 68.65 60.9004 81.69C60.9004 81.69 60.9004 68.65 73.9404 68.65C73.9504 68.65 60.9104 68.65 60.9004 55.61Z" stroke="#2576B9" stroke-width="2.9625" stroke-miterlimit="10" stroke-linecap="round" stroke-linejoin="round"/>
<path opacity="0.85" d="M57.8398 23.62L41.2098 21.04L38.5298 4.42C38.2798 2.84 37.0898 1.66 35.5098 1.42C33.9598 1.18 32.4298 1.96 31.7198 3.36L24.1198 18.38L7.48982 15.79C5.92982 15.55 4.40982 16.33 3.69982 17.74C2.98982 19.15 3.25982 20.84 4.37982 21.95L16.3198 33.82L8.71982 48.84C7.99982 50.27 8.25982 51.92 9.39982 53.05C10.5198 54.16 12.2098 54.42 13.6098 53.7L28.5798 46.02L40.5198 57.89C41.3798 58.75 42.5898 59.1 43.7398 58.88C44.0798 58.82 44.4098 58.7 44.7298 58.54C46.1298 57.82 46.8998 56.29 46.6498 54.74L43.9698 38.12L58.9398 30.44C60.3398 29.72 61.1098 28.19 60.8598 26.64C60.6098 25.07 59.3998 23.86 57.8398 23.62Z" fill="#CFD8DC"/>
<path d="M33.3 3.36L36.01 20.18C36.13 20.89 36.69 21.45 37.4 21.56L54.24 24.18C55.84 24.43 56.18 26.57 54.75 27.31L39.59 35.1C38.95 35.43 38.59 36.14 38.7 36.85L41.41 53.67C41.67 55.27 39.73 56.26 38.59 55.12L26.51 43.1C26 42.59 25.22 42.47 24.57 42.8L9.40996 50.58C7.96996 51.32 6.42996 49.78 7.15996 48.34L14.85 33.13C15.18 32.49 15.05 31.7 14.54 31.19L2.44996 19.19C1.29996 18.05 2.28996 16.11 3.87996 16.36L20.72 18.98C21.43 19.09 22.14 18.73 22.46 18.08L30.15 2.87C30.89 1.43 33.04 1.76 33.3 3.36Z" fill="#EB9CC3" stroke="#2576B9" stroke-width="3.9123" stroke-miterlimit="10"/>
</g>
<defs>
<clipPath id="clip0_1662_5494">
<rect width="75.43" height="83.17" fill="white"/>
</clipPath>
</defs>
</svg>
